<?xml version="1.0" standalone="no"?>
<!DOCTYPE svg PUBLIC "-//W3C//DTD SVG 1.1//EN" "http://www.w3.org/Graphics/SVG/1.1/DTD/svg11.dtd" >
<svg xmlns="http://www.w3.org/2000/svg" xmlns:xlink="http://www.w3.org/1999/xlink" version="1.1">
<metadata>
Created by FontForge 20170731 at Wed Aug  3 22:21:37 2016
 By Aleksey,,,
Copyright (c) 2016 by Ignacio Corbo and Fernando Diaz. All rights reserved.
</metadata>
<defs>
<font id="Brother-1816-ExtraBold" horiz-adv-x="588" >
  <font-face 
    font-family="Brother 1816"
    font-weight="800"
    font-stretch="normal"
    units-per-em="1000"
    panose-1="0 0 0 0 0 0 0 0 0 0"
    ascent="800"
    descent="-200"
    x-height="500"
    cap-height="720"
    bbox="-81 -343 1520 1127"
    underline-thickness="35"
    underline-position="-273"
    unicode-range="U+000D-F6C3"
  />
<missing-glyph horiz-adv-x="785" 
d="M275 526l-47 -47l117 -117l-118 -120l47 -47l119 118l118 -118l47 47l-118 120l117 117l-47 47l-117 -118zM100 0v720h585v-720h-585z" />
    <glyph glyph-name=".notdef" horiz-adv-x="785" 
d="M275 526l-47 -47l117 -117l-118 -120l47 -47l119 118l118 -118l47 47l-118 120l117 117l-47 47l-117 -118zM100 0v720h585v-720h-585z" />
    <glyph glyph-name=".null" horiz-adv-x="0" 
 />
    <glyph glyph-name=".null" horiz-adv-x="0" 
 />
    <glyph glyph-name="nonmarkingreturn" horiz-adv-x="333" 
 />
    <glyph glyph-name="CR" unicode="&#xd;" horiz-adv-x="253" 
 />
    <glyph glyph-name="space" unicode=" " horiz-adv-x="253" 
 />
    <glyph glyph-name="exclam" unicode="!" horiz-adv-x="360" 
d="M108 222l-17 498h178l-17 -498h-144zM84 78q0 43 26 67.5t70 24.5t70 -24.5t26 -67.5t-26 -67.5t-70 -24.5t-70 24.5t-26 67.5z" />
    <glyph glyph-name="quotedbl" unicode="&#x22;" horiz-adv-x="491" 
d="M52 424l-15 315h162l-15 -315h-132zM291 424l-15 315h162l-15 -315h-132z" />
    <glyph glyph-name="numbersign" unicode="#" horiz-adv-x="779" 
d="M76 422l17 129h128l23 169h138l-23 -169h116l23 169h137l-22 -169h126l-18 -129h-127l-17 -127h126l-17 -128h-126l-23 -167h-139l23 167h-115l-22 -167h-138l23 167h-129l17 128h129l17 127h-127zM342 422l-18 -127h115l17 127h-114z" />
    <glyph glyph-name="dollar" unicode="$" horiz-adv-x="610" 
d="M68 25v176q89 -48 190 -55l12 136l-16 6q-102 39 -150.5 87.5t-48.5 140.5q0 96 70.5 155t187.5 63l11 118h57l-11 -120q88 -6 149 -32v-169q-67 42 -164 45l-13 -143q2 -1 8.5 -3.5t10.5 -3.5q104 -41 154 -89.5t50 -137.5q0 -98 -69 -153.5t-196 -59.5l-11 -118h-57
l11 120q-104 6 -175 37zM386 198q0 32 -61 61l-10 -111q71 8 71 50zM235 517q0 -31 52 -59l10 114q-62 -13 -62 -55z" />
    <glyph glyph-name="percent" unicode="%" horiz-adv-x="837" 
d="M43 557q0 75 51.5 126t128.5 51q76 0 128 -51t52 -126q0 -74 -52 -124.5t-128 -50.5q-77 0 -128.5 50.5t-51.5 124.5zM151 557q0 -36 20 -57t52 -21q31 0 51.5 21t20.5 57q0 37 -20.5 58.5t-51.5 21.5q-32 0 -52 -21.5t-20 -58.5zM435 160q0 76 51.5 127t127.5 51
q77 0 128.5 -51t51.5 -127q0 -73 -51.5 -123.5t-128.5 -50.5q-76 0 -127.5 50.5t-51.5 123.5zM542 160q0 -35 20.5 -56.5t51.5 -21.5t52 21.5t21 56.5q0 38 -21 59.5t-52 21.5t-51.5 -21.5t-20.5 -59.5zM108 0l513 720h100l-513 -720h-100z" />
    <glyph glyph-name="ampersand" unicode="&#x26;" horiz-adv-x="698" 
d="M487 358h152q11 -135 -49 -226l127 -132h-193l-35 37q-75 -51 -182 -51q-137 0 -209 58.5t-72 145.5q0 114 133 187q-34 39 -51 77.5t-17 93.5q0 74 62.5 130t149.5 56t150 -55.5t63 -128.5q0 -130 -137 -198l96 -99q17 50 12 105zM384 145l-138 142q-54 -36 -54 -82
q0 -35 30.5 -58t85.5 -23q43 0 76 21zM241 535q0 -24 11 -43.5t36 -44.5q77 42 77 88q0 26 -18 43.5t-44 17.5t-44 -18t-18 -43z" />
    <glyph glyph-name="quotesingle" unicode="'" horiz-adv-x="236" 
d="M52 424l-15 315h162l-15 -315h-132z" />
    <glyph glyph-name="parenleft" unicode="(" horiz-adv-x="367" 
d="M172 -67q-110 182 -110 427t110 427h177q-113 -190 -113 -427t113 -427h-177z" />
    <glyph glyph-name="parenright" unicode=")" horiz-adv-x="367" 
d="M194 787q110 -182 110 -427t-110 -427h-177q113 190 113 427t-113 427h177z" />
    <glyph glyph-name="asterisk" unicode="*" horiz-adv-x="471" 
d="M400 699l43 -129l-118 -28l77 -92l-102 -74l-64 95l-65 -95l-102 74l75 92l-116 28l41 129l109 -47l-8 115h132l-9 -115z" />
    <glyph glyph-name="plus" unicode="+" horiz-adv-x="633" 
d="M79 291v138h167v169h140v-169h168v-138h-168v-169h-140v169h-167z" />
    <glyph glyph-name="comma" unicode="," horiz-adv-x="249" 
d="M211 58l-86 -208h-128l58 208h156z" />
    <glyph glyph-name="hyphen" unicode="-" horiz-adv-x="410" 
d="M37 213v138h335v-138h-335z" />
    <glyph glyph-name="period" unicode="." horiz-adv-x="266" 
d="M37 78q0 43 26 67.5t70 24.5t70 -24.5t26 -67.5t-26 -67.5t-70 -24.5t-70 24.5t-26 67.5z" />
    <glyph glyph-name="slash" unicode="/" horiz-adv-x="528" 
d="M-13 -67l368 854h186l-368 -854h-186z" />
    <glyph glyph-name="zero" unicode="0" horiz-adv-x="666" 
d="M31 360q0 159 83 266.5t219 107.5t219 -107.5t83 -266.5t-83 -266.5t-219 -107.5t-219 107.5t-83 266.5zM216 360q0 -94 30.5 -150.5t86.5 -56.5t86.5 56.5t30.5 150.5t-30.5 150.5t-86.5 56.5t-86.5 -56.5t-30.5 -150.5z" />
    <glyph glyph-name="one" unicode="1" horiz-adv-x="363" 
d="M10 720h280v-720h-183v566h-97v154z" />
    <glyph glyph-name="two" unicode="2" horiz-adv-x="533" 
d="M34 529v169q57 36 162 36q129 0 205 -72t76 -188q0 -18 -3 -37t-6 -34t-12 -35t-13.5 -31.5t-18.5 -33t-18.5 -29.5t-22 -32t-21.5 -28.5t-24.5 -30.5t-22.5 -29h193v-154h-515q14 17 71 85t76 93t55.5 74t55 84t28.5 68q15 40 10 75q-4 41 -35 64.5t-83 23.5
q-78 0 -137 -38z" />
    <glyph glyph-name="three" unicode="3" horiz-adv-x="505" 
d="M277 505q0 32 -29.5 50.5t-78.5 18.5q-81 0 -141 -29v157q75 32 175 32q122 0 193 -57t71 -147q0 -56 -32.5 -99t-80.5 -64q52 -18 88.5 -62.5t36.5 -107.5q0 -99 -77.5 -155t-198.5 -56q-108 0 -186 37v157q81 -34 169 -34q47 0 75 19.5t28 54.5q0 37 -36.5 58.5
t-104.5 21.5h-29v134h35q54 0 88.5 19t34.5 52z" />
    <glyph glyph-name="four" unicode="4" horiz-adv-x="631" 
d="M509 0h-157v148h-355l239 572h176l-173 -423h117v157h153v-157h85v-149h-85v-148z" />
    <glyph glyph-name="five" unicode="5" horiz-adv-x="512" 
d="M33 25v157q61 -36 155 -36q49 0 81 26.5t32 70.5q0 43 -36 70.5t-93 27.5q-74 0 -129 -23l16 402h394v-154h-236l-4 -106q18 4 43 4q103 0 168.5 -66.5t65.5 -176.5q0 -109 -76 -172t-201 -63q-112 0 -180 39z" />
    <glyph glyph-name="six" unicode="6" horiz-adv-x="595" 
d="M334 484q106 0 174 -73t68 -171q0 -110 -77.5 -182t-195.5 -72q-115 0 -191 74.5t-76 188.5q0 68 26.5 141.5t69 135t88.5 111t91 83.5h224q-148 -108 -249 -247q22 11 48 11zM303 132q47 0 77.5 30.5t30.5 77.5t-30.5 77.5t-77.5 30.5q-46 0 -76.5 -30.5t-30.5 -76.5
q0 -47 30.5 -78t76.5 -31z" />
    <glyph glyph-name="seven" unicode="7" horiz-adv-x="516" 
d="M240 0h-189l237 566h-271v154h514z" />
    <glyph glyph-name="eight" unicode="8" horiz-adv-x="578" 
d="M148 367q-10 5 -25 17t-36 33t-35 53.5t-14 68.5q0 84 71.5 140t179.5 56q109 0 180.5 -56t71.5 -140q0 -36 -14 -68.5t-35 -53.5t-36.5 -33t-25.5 -17q13 -6 29 -18t38.5 -34t37.5 -56t15 -72q0 -88 -73 -145t-188 -57q-96 0 -163.5 42t-87.5 109q-9 33 -6 67
q2 35 17.5 66t37 51t36 30.5t25.5 16.5zM204 209q0 -30 25 -51t60 -21t60 21t25 51q0 36 -27.5 62.5t-57.5 38.5q-29 -12 -57 -38.5t-28 -62.5zM213 518q0 -32 24.5 -55t51.5 -36q77 37 77 91q0 28 -22.5 48t-54.5 20t-54 -20t-22 -48z" />
    <glyph glyph-name="nine" unicode="9" 
d="M264 236q-105 0 -173.5 73t-68.5 171q0 110 77.5 182.5t195.5 72.5q115 0 191 -75t76 -189q0 -130 -86.5 -262t-187.5 -209h-225q147 108 248 246q-17 -10 -47 -10zM295 588q-47 0 -77.5 -31t-30.5 -77t30.5 -77t77.5 -31q46 0 77 30.5t31 76.5q0 47 -30.5 78t-77.5 31z
" />
    <glyph glyph-name="colon" unicode=":" horiz-adv-x="266" 
d="M37 422q0 43 26 67.5t70 24.5t70 -24.5t26 -67.5t-26 -67.5t-70 -24.5t-70 24.5t-26 67.5zM37 78q0 43 26 67.5t70 24.5t70 -24.5t26 -67.5t-26 -67.5t-70 -24.5t-70 24.5t-26 67.5z" />
    <glyph glyph-name="semicolon" unicode=";" horiz-adv-x="255" 
d="M211 58l-86 -208h-128l58 208h156zM26 422q0 43 25.5 67.5t69.5 24.5t70 -24.5t26 -67.5t-26 -67.5t-70 -24.5t-69.5 24.5t-25.5 67.5z" />
    <glyph glyph-name="less" unicode="&#x3c;" horiz-adv-x="620" 
d="M52 360l485 297v-183l-200 -114l200 -114v-183z" />
    <glyph glyph-name="equal" unicode="=" horiz-adv-x="603" 
d="M79 401v138h445v-138h-445zM79 181v138h445v-138h-445z" />
    <glyph glyph-name="greater" unicode="&#x3e;" horiz-adv-x="620" 
d="M568 359l-485 -297v183l200 114l-200 115v183z" />
    <glyph glyph-name="question" unicode="?" horiz-adv-x="486" 
d="M102 222v51q0 40 15.5 72.5t38 53t44.5 38.5t37.5 38t15.5 42q0 26 -18 44t-45 18q-75 0 -163 -55v161q83 49 179 49q92 0 157.5 -52t65.5 -142q0 -47 -18 -85.5t-44 -63t-52 -45.5t-44 -46t-18 -52v-26h-151zM82 78q0 43 26 67.5t70 24.5t70 -25t26 -67t-26 -67t-70 -25
t-70 24.5t-26 67.5z" />
    <glyph glyph-name="at" unicode="@" horiz-adv-x="911" 
d="M822 51v-146q-43 -27 -118.5 -43.5t-155.5 -16.5q-202 0 -333.5 112.5t-131.5 291.5q0 175 123 289t320 114q137 0 213.5 -60.5t76.5 -161.5v-278q-152 -72 -271 -72q-77 0 -139.5 45.5t-62.5 128.5q0 97 85 143.5t210 27.5v7q-9 71 -118 71q-118 0 -194 -67.5
t-76 -175.5q0 -117 82.5 -193t212.5 -76q74 0 150.5 16.5t126.5 43.5zM566 207q38 0 68 16v105q-60 10 -91.5 -7.5t-31.5 -50.5q0 -28 15 -45.5t40 -17.5z" />
    <glyph glyph-name="A" unicode="A" horiz-adv-x="709" 
d="M-8 0l358 730h9l358 -730h-191l-51 110h-242l-50 -110h-191zM286 233h137q-48 110 -68 172q-2 -5 -29.5 -75t-39.5 -97z" />
    <glyph glyph-name="B" unicode="B" horiz-adv-x="649" 
d="M500 378q49 -14 84 -59.5t35 -104.5q0 -106 -79 -160t-213 -54h-257v720h239q125 0 204 -52t79 -153q0 -50 -26 -85.5t-66 -51.5zM244 426h74q35 0 55 10q35 15 35 62q0 38 -24 57t-64 19h-76v-148zM244 307v-161h93q40 0 66.5 20t26.5 60t-25.5 60.5t-63.5 20.5h-97z
" />
    <glyph glyph-name="C" unicode="C" horiz-adv-x="655" 
d="M619 686v-167q-94 48 -191 48q-98 0 -156.5 -60t-58.5 -147t56.5 -147t150.5 -60q110 0 204 48v-169q-88 -46 -220 -46q-161 0 -268 108t-107 266t108.5 266t274.5 108q115 0 207 -48z" />
    <glyph glyph-name="D" unicode="D" horiz-adv-x="749" 
d="M312 0h-242v720h241q186 0 297 -100.5t111 -259.5t-110.5 -259.5t-296.5 -100.5zM309 566h-56v-412h57q105 0 164.5 59t59.5 147t-59.5 147t-165.5 59z" />
    <glyph glyph-name="E" unicode="E" horiz-adv-x="586" 
d="M557 0h-487v720h472v-154h-289v-128h247v-146h-247v-138h304v-154z" />
    <glyph glyph-name="F" unicode="F" horiz-adv-x="542" 
d="M518 566h-265v-138h223v-150h-223v-278h-183v720h448v-154z" />
    <glyph glyph-name="G" unicode="G" horiz-adv-x="712" 
d="M669 40q-108 -54 -250 -54q-172 0 -281.5 107t-109.5 267q0 158 109 266t275 108q131 0 231 -48v-167q-105 48 -215 48q-100 0 -158 -60t-58 -147q0 -88 56.5 -148.5t150.5 -60.5q39 0 75 9v178h175v-298z" />
    <glyph glyph-name="H" unicode="H" horiz-adv-x="772" 
d="M703 0h-184v289h-266v-289h-183v720h183v-278h266v278h184v-720z" />
    <glyph glyph-name="I" unicode="I" horiz-adv-x="322" 
d="M253 0h-183v720h183v-720z" />
    <glyph glyph-name="J" unicode="J" horiz-adv-x="422" 
d="M352 720v-505q0 -121 -59 -175t-171 -54q-68 0 -104 18v151q32 -16 72 -16q78 0 78 74v507h184z" />
    <glyph glyph-name="K" unicode="K" horiz-adv-x="709" 
d="M253 720v-317l248 317h214l-250 -307l254 -413h-203l-175 297l-88 -104v-193h-183v720h183z" />
    <glyph glyph-name="L" unicode="L" horiz-adv-x="529" 
d="M513 0h-443v720h183v-566h260v-154z" />
    <glyph glyph-name="M" unicode="M" horiz-adv-x="850" 
d="M425 199q-2 2 -134 128l-47 39v-366h-174v730h4l351 -319l351 319h5v-730h-176v366l-46 -39q-132 -126 -134 -128z" />
    <glyph glyph-name="N" unicode="N" horiz-adv-x="752" 
d="M683 -10h-7l-369 325l-58 48v-363h-179v730h8l366 -324q8 -6 28 -23.5t31 -25.5v363h180v-730z" />
    <glyph glyph-name="O" unicode="O" horiz-adv-x="819" 
d="M28 360q0 157 108.5 265.5t272.5 108.5q165 0 273 -108.5t108 -265.5q0 -158 -108 -266t-273 -108t-273 108t-108 266zM212 360q0 -86 55.5 -146.5t141.5 -60.5t141 60.5t55 146.5q0 85 -55 146t-141 61t-141.5 -61t-55.5 -146z" />
    <glyph glyph-name="P" unicode="P" horiz-adv-x="614" 
d="M310 229h-57v-229h-183v720h240q134 0 213.5 -63t79.5 -182q0 -120 -79.5 -183t-213.5 -63zM318 566h-65v-183h66q45 0 72 23t27 69q0 45 -27.5 68t-72.5 23z" />
    <glyph glyph-name="Q" unicode="Q" horiz-adv-x="826" 
d="M33 360q0 157 108 265.5t272 108.5q165 0 273.5 -108.5t108.5 -265.5q0 -123 -68 -218.5t-181 -133.5q91 -92 249 -92q63 0 124 11v-159q-52 -14 -140 -14q-131 0 -245.5 62t-176.5 174q-144 19 -234 122.5t-90 247.5zM217 360q0 -86 55 -146.5t141 -60.5q87 0 142 60.5
t55 146.5t-55.5 146.5t-141.5 60.5t-141 -61t-55 -146z" />
    <glyph glyph-name="R" unicode="R" horiz-adv-x="661" 
d="M70 720h262q133 0 212 -63.5t79 -181.5q0 -75 -35 -128t-97 -80l145 -267h-191l-116 237h-80v-237h-179v720zM340 566h-91v-183h92q44 0 70.5 22.5t26.5 69.5q0 45 -27 68t-71 23z" />
    <glyph glyph-name="S" unicode="S" horiz-adv-x="566" 
d="M263 -14q-126 0 -218 39v176q84 -45 170 -52q27 -3 57 -1q92 6 92 50q0 26 -29 44t-104 46q-102 39 -150.5 87.5t-48.5 140.5q0 99 75 158.5t198 59.5q110 0 192 -34v-169q-72 45 -177 45q-49 0 -78.5 -16t-29.5 -43q0 -24 29 -43.5t97 -47.5q104 -41 154 -89.5
t50 -137.5q0 -100 -73 -156.5t-206 -56.5z" />
    <glyph glyph-name="T" unicode="T" 
d="M578 566h-192v-566h-184v566h-192v154h568v-154z" />
    <glyph glyph-name="U" unicode="U" horiz-adv-x="750" 
d="M688 720v-453q0 -128 -83 -204.5t-230 -76.5q-146 0 -229.5 76.5t-83.5 204.5v453h183v-433q0 -64 33.5 -99t96.5 -35t96 35t33 99v433h184z" />
    <glyph glyph-name="V" unicode="V" horiz-adv-x="707" 
d="M723 720l-366 -730h-8l-366 730h201l92 -199q62 -139 77 -184q5 10 35.5 83.5t42.5 100.5l92 199h200z" />
    <glyph glyph-name="W" unicode="W" horiz-adv-x="1022" 
d="M-5 720h205l89 -216q29 -66 55 -145q4 6 11 22t16 38.5t14 32.5l35 77l88 189h8q14 -30 43.5 -92.5t48 -101t39 -86t32.5 -79.5q6 12 146 361h205l-340 -730h-9l-135 287l-34 74q-33 -72 -34 -74l-135 -287h-9z" />
    <glyph glyph-name="X" unicode="X" horiz-adv-x="734" 
d="M511 720h205l-252 -357l254 -363h-205l-147 220l-146 -220h-205l255 363l-253 357h206l143 -217z" />
    <glyph glyph-name="Y" unicode="Y" horiz-adv-x="643" 
d="M-33 720h208l146 -270l147 270h208l-263 -445v-275h-183v275z" />
    <glyph glyph-name="Z" unicode="Z" horiz-adv-x="646" 
d="M20 0l328 566h-294v154h571l-327 -566h311v-154h-589z" />
    <glyph glyph-name="bracketleft" unicode="[" horiz-adv-x="413" 
d="M97 -67v854h263v-139h-84v-576h84v-139h-263z" />
    <glyph glyph-name="backslash" unicode="\" horiz-adv-x="528" 
d="M173 787l368 -854h-186l-368 854h186z" />
    <glyph glyph-name="bracketright" unicode="]" horiz-adv-x="413" 
d="M338 787v-854h-263v139h84v576h-84v139h263z" />
    <glyph glyph-name="asciicircum" unicode="^" horiz-adv-x="675" 
d="M625 261h-183l-104 185l-105 -185h-183l288 471z" />
    <glyph glyph-name="underscore" unicode="_" horiz-adv-x="630" 
d="M37 0h555v-138h-555v138z" />
    <glyph glyph-name="grave" unicode="`" horiz-adv-x="378" 
d="M261 734l80 -173h-154l-150 173h224z" />
    <glyph glyph-name="a" unicode="a" horiz-adv-x="535" 
d="M62 324v158q69 32 188 32q118 0 179.5 -52.5t61.5 -147.5v-314h-160l-4 39l2 32h-2q-15 -34 -52.5 -59.5t-94.5 -25.5q-67 0 -112.5 39t-45.5 114q0 91 83 133.5t209 24.5v7q0 63 -95 63q-90 0 -157 -43zM231 119q34 0 56 26t22 68q-61 10 -91.5 -6t-30.5 -46
q0 -19 12 -30.5t32 -11.5z" />
    <glyph glyph-name="b" unicode="b" horiz-adv-x="637" 
d="M346 366q-42 0 -72 -31t-30 -85t30 -85t72 -31q43 0 72 32t29 84t-28.5 84t-72.5 32zM59 0v720h179v-227l-3 -42h2q47 63 148 63q97 0 163 -71t66 -193t-67 -193t-167 -71q-51 0 -95 24.5t-60 60.5h-2l1 -32l-3 -39h-162z" />
    <glyph glyph-name="c" unicode="c" horiz-adv-x="472" 
d="M203 250q0 -51 32 -80.5t85 -29.5q37 0 72 14t51 26v-159q-70 -35 -151 -35q-121 0 -195 74.5t-74 189.5t74 189.5t195 74.5q80 0 148 -34v-160q-20 16 -54 28t-66 12q-52 0 -84.5 -30t-32.5 -80z" />
    <glyph glyph-name="d" unicode="d" horiz-adv-x="637" 
d="M577 720v-720h-161l-4 39l2 32h-2q-17 -37 -60.5 -61t-95.5 -24q-99 0 -166 71t-67 193t66 193t163 71q101 0 148 -63h2q-3 13 -3 42v227h178zM291 366q-44 0 -72.5 -32t-28.5 -84t29 -84t72 -32q42 0 71.5 31t29.5 85t-29.5 85t-71.5 31z" />
    <glyph glyph-name="e" unicode="e" horiz-adv-x="540" 
d="M281 514q113 0 174.5 -67.5t61.5 -166.5q0 -21 -5 -66h-305q11 -80 120 -80q49 0 99 11t70 21v-149q-64 -31 -186 -31q-132 0 -210 73.5t-78 190.5q0 114 74 189t185 75zM349 296q1 35 -17 58t-53 23q-34 0 -53 -23t-20 -58h143z" />
    <glyph glyph-name="f" unicode="f" horiz-adv-x="369" 
d="M15 500h68v39q0 91 56.5 143t162.5 52q40 0 70 -6v-149q-21 7 -52 7q-34 0 -54 -17.5t-20 -50.5v-18h109v-138h-101v-362h-178v362h-61v138z" />
    <glyph glyph-name="g" unicode="g" horiz-adv-x="535" 
d="M227 122q0 -12 23 -18.5t76 -14.5q107 -16 153 -49t46 -100q0 -80 -75 -125.5t-199 -45.5q-109 0 -177.5 34t-68.5 96q0 40 33.5 70.5t86.5 43.5q-30 6 -49.5 24t-19.5 46q0 25 21.5 48.5t61.5 36.5q-53 22 -84 64t-31 98q0 83 64 133.5t159 50.5q51 0 89 -14h188v-125
h-52q-7 1 -19 3q12 -21 12 -48q0 -70 -46.5 -117t-120.5 -60q-71 -14 -71 -31zM247 259q29 0 46.5 18.5t17.5 47.5t-17.5 48t-46.5 19q-28 0 -45.5 -19t-17.5 -48t17.5 -47.5t45.5 -18.5zM256 -123q39 0 66 13.5t27 36.5q0 49 -98 49q-33 0 -55 -14.5t-22 -36.5
q0 -23 23 -35.5t59 -12.5z" />
    <glyph glyph-name="h" unicode="h" horiz-adv-x="614" 
d="M59 720h175v-233q0 -37 -2 -57q25 34 66 59t89 25q82 0 128.5 -51t46.5 -151v-312h-178v285q0 69 -54 69q-42 0 -67 -29t-25 -74v-251h-179v720z" />
    <glyph glyph-name="i" unicode="i" horiz-adv-x="297" 
d="M59 500h179v-500h-179v500zM53 643q0 43 26 67.5t70 24.5t69.5 -24.5t25.5 -67.5t-25.5 -68t-69.5 -25t-70 25t-26 68z" />
    <glyph glyph-name="j" unicode="j" horiz-adv-x="297" 
d="M238 500v-546q0 -92 -50.5 -140t-145.5 -48q-61 0 -83 12v154q14 -6 39 -6q61 0 61 63v511h179zM53 643q0 43 26 67.5t70 24.5t69.5 -24.5t25.5 -67.5t-25.5 -68t-69.5 -25t-70 25t-26 68z" />
    <glyph glyph-name="k" unicode="k" horiz-adv-x="594" 
d="M579 500l-163 -217l171 -283h-200l-108 196l-45 -57v-139h-175v720h179v-404l136 184h205z" />
    <glyph glyph-name="l" unicode="l" horiz-adv-x="346" 
d="M56 151v569h178v-529q0 -55 46 -55q24 0 53 13v-147q-37 -16 -109 -16q-75 0 -121.5 40t-46.5 125z" />
    <glyph glyph-name="m" unicode="m" horiz-adv-x="915" 
d="M59 500h162l5 -51q3 -19 -4 -32h2q15 32 48 57.5t74 33.5q26 7 48 4q98 -5 135 -89q68 91 162 91q81 0 126.5 -51t45.5 -151v-312h-178v289q0 65 -50 65t-67 -37.5t-17 -104.5v-212h-179v289q0 65 -49 65q-50 0 -67.5 -37.5t-17.5 -104.5v-212h-179v500z" />
    <glyph glyph-name="n" unicode="n" horiz-adv-x="614" 
d="M59 500h162l5 -51q3 -19 -4 -32h2q18 37 64.5 67t98.5 30q82 0 128.5 -51t46.5 -151v-312h-178v285q0 69 -54 69q-42 0 -67 -29t-25 -74v-251h-179v500z" />
    <glyph glyph-name="o" unicode="o" 
d="M294 514q118 0 194.5 -75t76.5 -189t-76.5 -189t-194.5 -75t-194.5 75t-76.5 189t76.5 189t194.5 75zM294 134q44 0 74 32t30 84t-30 84t-74 32q-45 0 -74.5 -32t-29.5 -84t29.5 -84t74.5 -32z" />
    <glyph glyph-name="p" unicode="p" horiz-adv-x="637" 
d="M60 -220v720h161l4 -37l-2 -32h2q17 36 60.5 59.5t95.5 23.5q99 0 166 -71t67 -193t-66 -193t-163 -71q-49 0 -88 18t-60 47h-2q3 -13 3 -42v-229h-178zM346 134q44 0 72.5 32t28.5 84t-29 84t-72 32q-42 0 -71.5 -31t-29.5 -85t29.5 -85t71.5 -31z" />
    <glyph glyph-name="q" unicode="q" horiz-adv-x="637" 
d="M291 134q42 0 71.5 31t29.5 85t-29.5 85t-71.5 31q-43 0 -72 -32t-29 -84t28.5 -84t72.5 -32zM577 500v-720h-178v229l3 42h-2q-46 -65 -148 -65q-97 0 -163 71t-66 193t67 193t166 71q52 0 95.5 -23.5t60.5 -59.5h2l-2 32l4 37h161z" />
    <glyph glyph-name="r" unicode="r" horiz-adv-x="415" 
d="M58 0v500h162q0 -2 3 -38q2 -27 3 -31q24 36 62 59.5t82 23.5q7 0 14.5 -0.5t12.5 -1.5h5v-174h-2l-5 2.5t-7 2.5t-10 1.5t-12 0.5q-52 0 -91 -36t-39 -99v-210h-178z" />
    <glyph glyph-name="s" unicode="s" horiz-adv-x="457" 
d="M269 151q0 13 -16.5 21t-57.5 19q-80 21 -122 58t-42 107q0 74 52 116t144 42q97 0 173 -30v-151q-57 29 -126 38q-30 2 -43 1q-37 -5 -37 -25q0 -23 65 -40q92 -23 132.5 -59.5t40.5 -104.5q0 -75 -57.5 -116t-160.5 -41q-96 0 -174 32v155q35 -20 85.5 -34.5
t86.5 -14.5q57 0 57 27z" />
    <glyph glyph-name="t" unicode="t" horiz-adv-x="393" 
d="M-1 500h65v150h173v-150h124v-138h-124v-171q0 -59 60 -59q36 0 80 20v-144q-46 -22 -134 -22q-69 0 -117.5 33t-60.5 104q-4 32 -4 53v186h-62v138z" />
    <glyph glyph-name="u" unicode="u" horiz-adv-x="613" 
d="M554 0h-162l-5 51q-1 17 4 32h-2q-18 -37 -64 -67t-98 -30q-82 0 -128.5 51t-46.5 151v312h179v-285q0 -69 54 -69q41 0 65.5 28.5t24.5 74.5v251h179v-500z" />
    <glyph glyph-name="v" unicode="v" horiz-adv-x="517" 
d="M352 500h185l-220 -503h-117l-220 503h185q6 -15 26 -68t29 -78t21 -62t17 -61q3 6 17 55.5t22 69.5z" />
    <glyph glyph-name="w" unicode="w" horiz-adv-x="790" 
d="M449 498l53 -158q13 -38 34 -124q4 7 17.5 58t18.5 67l52 159h186l-209 -503h-121l-85 240l-84 -240h-121l-209 503h186q7 -22 24 -73.5t26 -81t20 -67t16 -62.5q43 151 89 282h107z" />
    <glyph glyph-name="x" unicode="x" horiz-adv-x="547" 
d="M546 500l-164 -240l171 -260h-194l-86 133l-83 -133h-196l166 244l-163 256h198l72 -138l76 138h203z" />
    <glyph glyph-name="y" unicode="y" horiz-adv-x="567" 
d="M20 -222v158q29 -11 62 -11q73 0 111 72l-204 503h194l52 -170q34 -112 46 -169q4 7 24 82.5t24 86.5l52 170h193l-193 -506q-81 -218 -258 -227q-37 -1 -64 3q-31 3 -39 8z" />
    <glyph glyph-name="z" unicode="z" horiz-adv-x="486" 
d="M463 138v-138h-450l207 362h-187v138h437l-207 -362h200z" />
    <glyph glyph-name="braceleft" unicode="{" horiz-adv-x="401" 
d="M110 102v103q0 31 -8.5 52.5t-22.5 30.5t-22 12t-16 4v117q8 1 16 3.5t22 11.5t22.5 30.5t8.5 53.5v95q0 172 207 172h55v-139h-27q-60 0 -60 -65v-90q0 -43 -15.5 -74.5t-29 -42t-24.5 -13.5v-1q12 -5 25.5 -15t28.5 -40.5t15 -71.5v-90q0 -40 15 -56t45 -16h27v-140
h-55q-207 0 -207 169z" />
    <glyph glyph-name="bar" unicode="|" horiz-adv-x="365" 
d="M268 -67h-171v854h171v-854z" />
    <glyph glyph-name="braceright" unicode="}" horiz-adv-x="401" 
d="M291 618v-103q0 -31 8.5 -52.5t22.5 -30.5t22 -12t16 -4v-117q-8 -1 -16 -3.5t-22 -11.5t-22.5 -30.5t-8.5 -53.5v-95q0 -172 -207 -172h-55v139h27q60 0 60 65v90q0 43 15.5 74.5t29 42t24.5 13.5v1q-12 5 -25.5 15t-28.5 40.5t-15 71.5v90q0 40 -15 56t-45 16h-27v140
h55q207 0 207 -169z" />
    <glyph glyph-name="asciitilde" unicode="~" horiz-adv-x="578" 
d="M198 443q33 0 92 -15.5t93 -15.5q72 0 123 37v-128q-14 -16 -49.5 -28t-76.5 -12q-33 0 -92.5 16t-93.5 16q-71 0 -122 -37v128q14 16 49.5 27.5t76.5 11.5z" />
    <glyph glyph-name="uni00A0" unicode="&#xa0;" horiz-adv-x="253" 
 />
    <glyph glyph-name="exclamdown" unicode="&#xa1;" horiz-adv-x="360" 
d="M252 278l17 -498h-178l17 498h144zM84 422q0 43 26 67.5t70 24.5t70 -24.5t26 -67.5t-26 -67.5t-70 -24.5t-70 24.5t-26 67.5z" />
    <glyph glyph-name="cent" unicode="&#xa2;" horiz-adv-x="538" 
d="M316 751h49v-129q52 -6 108 -32v-161q-43 35 -108 40v-219q34 3 65.5 16t45.5 24v-159q-50 -27 -111 -33v-131h-49v129q-117 2 -188.5 76t-71.5 188q0 113 71.5 187t188.5 77v127zM235 360q0 -42 21.5 -69.5t59.5 -36.5v211q-37 -9 -59 -36.5t-22 -68.5z" />
    <glyph glyph-name="sterling" unicode="&#xa3;" horiz-adv-x="622" 
d="M130 501q0 114 69 173.5t189 59.5q89 0 149 -19v-155q-56 23 -125 23q-51 0 -79 -26t-28 -75v-63h174v-113h-174v-72q0 -57 -25 -89h270v-145h-496q76 102 76 247v59h-73v113h73v82z" />
    <glyph glyph-name="currency" unicode="&#xa4;" horiz-adv-x="803" 
d="M401 607q58 0 106 -25l114 112l109 -109l-111 -111q27 -52 27 -108t-27 -108l111 -111l-109 -109l-115 112q-48 -25 -105 -25q-54 0 -106 25l-113 -112l-109 109l110 111q-27 53 -26 108q-1 57 27 108l-111 111l109 109l113 -112q48 25 106 25zM401 275q37 -1 64 26
t27 65t-26.5 65t-63.5 26q-38 1 -64.5 -25.5t-26.5 -65.5q0 -38 26.5 -65t63.5 -26z" />
    <glyph glyph-name="yen" unicode="&#xa5;" horiz-adv-x="744" 
d="M25 720h208l137 -270l136 270h208l-127 -224h89v-110h-152l-29 -52h150v-110h-183v-224h-184v224h-183v110h149l-29 52h-151v110h88z" />
    <glyph glyph-name="brokenbar" unicode="&#xa6;" horiz-adv-x="365" 
d="M268 446h-171v341h171v-341zM268 -67h-171v341h171v-341z" />
    <glyph glyph-name="section" unicode="&#xa7;" horiz-adv-x="648" 
d="M578 717q0 -23 0.5 -71t0.5 -71q-55 29 -125 43q-30 -21 -30 -68q0 -24 10.5 -50t40.5 -83l73 -139q47 -91 47 -153q0 -106 -76.5 -166t-202.5 -60q-139 0 -246 49q0 23 -0.5 70.5t-0.5 71.5q57 -30 124 -43q31 20 31 68q0 23 -11 50t-40 83l-73 139q-47 89 -47 152
q0 107 76.5 167t202.5 60q139 0 246 -49zM442 132q0 45 -36 110l-92 169q-48 88 -48 135q0 49 36 80q-96 -15 -96 -93q0 -46 37 -110l88 -161q51 -94 51 -143t-36 -80q96 13 96 93z" />
    <glyph glyph-name="dieresis" unicode="&#xa8;" horiz-adv-x="505" 
d="M37 643q0 43 26 67.5t70 24.5t70 -24.5t26 -67.5t-26 -68t-70 -25t-70 25t-26 68zM277 643q0 43 25.5 67.5t69.5 24.5t70 -24.5t26 -67.5t-26 -68t-70 -25t-69.5 25t-25.5 68z" />
    <glyph glyph-name="copyright" unicode="&#xa9;" horiz-adv-x="828" 
d="M50 360q0 156 105.5 264t256.5 108q153 0 259.5 -108t106.5 -264t-106.5 -264t-259.5 -108q-151 0 -256.5 108t-105.5 264zM146 360q0 -117 77 -196t189 -79q114 0 192 79t78 196q0 116 -78.5 195.5t-191.5 79.5q-112 0 -189 -79.5t-77 -195.5zM415 147
q-88 0 -146.5 60.5t-58.5 152.5t58.5 152.5t146.5 60.5q62 0 124 -35v-120q-51 38 -107 38q-41 0 -68 -27.5t-27 -68.5t27 -68.5t67 -27.5q58 0 110 39v-121q-1 0 -10 -4.5t-15.5 -7.5t-19.5 -8t-24 -7.5t-26.5 -5t-30.5 -2.5z" />
    <glyph glyph-name="ordfeminine" unicode="&#xaa;" horiz-adv-x="409" 
d="M48 585v124q53 25 146 25q92 0 140 -41t48 -115v-244h-127l-2 27q-2 24 2 28h-1q-12 -27 -42 -47t-73 -20q-51 0 -87 30.5t-36 88.5q0 60 49 94.5t126 34.5q29 0 52 -4q0 29 -17.5 41t-55.5 12q-71 0 -122 -34zM239 500q-15 3 -28 3q-32 0 -48.5 -12.5t-16.5 -31.5
q0 -31 34 -31q26 0 42.5 19.5t16.5 52.5z" />
    <glyph glyph-name="guillemotleft" unicode="&#xab;" horiz-adv-x="700" 
d="M395 500l-166 -250l166 -250h-190l-158 250l158 250h190zM662 500l-166 -250l166 -250h-190l-158 250l158 250h190z" />
    <glyph glyph-name="logicalnot" unicode="&#xac;" horiz-adv-x="642" 
d="M79 291v138h484v-282h-140v144h-344z" />
    <glyph glyph-name="uni00AD" unicode="&#xad;" horiz-adv-x="394" 
d="M37 213v138h335v-138h-335z" />
    <glyph glyph-name="registered" unicode="&#xae;" horiz-adv-x="828" 
d="M50 360q0 156 105.5 264t256.5 108q153 0 259.5 -108t106.5 -264t-106.5 -264t-259.5 -108q-151 0 -256.5 108t-105.5 264zM146 360q0 -117 77 -196t189 -79q114 0 192 79t78 196q0 116 -78.5 195.5t-191.5 79.5q-112 0 -189 -79.5t-77 -195.5zM374 303v-137h-102v390
h148q62 0 103 -37t41 -96q0 -73 -70 -105l76 -152h-107l-61 137h-28zM406 464h-32v-81h32q51 0 51 40q0 41 -51 41z" />
    <glyph glyph-name="macron" unicode="&#xaf;" horiz-adv-x="417" 
d="M37 579v128h343v-128h-343z" />
    <glyph glyph-name="degree" unicode="&#xb0;" horiz-adv-x="398" 
d="M199 735q73 0 121.5 -47.5t48.5 -118.5q0 -69 -49 -116.5t-121 -47.5q-73 0 -121.5 47.5t-48.5 116.5q0 71 48.5 118.5t121.5 47.5zM199 506q25 0 43 17.5t18 45.5q0 29 -18 47t-43 18q-26 0 -43.5 -18t-17.5 -47q0 -28 18 -45.5t43 -17.5z" />
    <glyph glyph-name="plusminus" unicode="&#xb1;" 
d="M71 398v138h153v158h139v-158h155v-138h-155v-157h-139v157h-153zM85 13v137h418v-137h-418z" />
    <glyph glyph-name="twosuperior" unicode="&#xb2;" horiz-adv-x="311" 
d="M14 600v109q39 26 107 26q72 0 112 -37t40 -99q0 -72 -85 -157h100v-105h-302q9 12 33 41t34.5 42t29.5 37t28.5 38t20 31.5t15 29.5t4.5 22q0 23 -14.5 36t-38.5 13q-42 0 -84 -27z" />
    <glyph glyph-name="threesuperior" unicode="&#xb3;" horiz-adv-x="321" 
d="M169 604q0 28 -52 28q-41 0 -90 -20v100q51 22 108 22q70 0 111 -32t41 -84q0 -49 -64 -84q71 -25 71 -90q0 -56 -44.5 -87.5t-114.5 -31.5q-67 0 -113 24v99q55 -21 104 -21q22 0 35 8.5t13 22.5q0 35 -65 35h-33v82h37q24 0 40 8t16 21z" />
    <glyph glyph-name="acute" unicode="&#xb4;" horiz-adv-x="378" 
d="M37 561l80 173h224l-149 -173h-155z" />
    <glyph glyph-name="mu" unicode="&#xb5;" horiz-adv-x="616" 
d="M232 -14q-14 0 -22 4l2 -30q3 -30 3 -43v-117h-162v700h178v-285q0 -58 43 -66q20 -3 40 5q28 8 45 33.5t17 61.5v251h179v-500h-162l-5 51q-3 19 4 32h-2q-18 -37 -62.5 -66.5t-95.5 -30.5z" />
    <glyph glyph-name="paragraph" unicode="&#xb6;" horiz-adv-x="637" 
d="M339 220h-45q-120 0 -193.5 69t-73.5 181t73.5 181t193.5 69h45v-500zM567 720v-732q0 -222 -225 -222q-54 0 -87 10v145q30 -9 61 -9q76 0 76 73v735h175z" />
    <glyph glyph-name="periodcentered" unicode="&#xb7;" horiz-adv-x="266" 
d="M37 246q0 43 26 67.5t70 24.5t70 -24.5t26 -67.5t-26 -68t-70 -25t-70 25t-26 68z" />
    <glyph glyph-name="cedilla" unicode="&#xb8;" horiz-adv-x="288" 
d="M89 10h81l-17 -52q38 -3 68 -28.5t30 -68.5q0 -47 -37.5 -71t-101.5 -24q-55 0 -75 10v97q24 -7 42 -7q39 0 39 24q0 15 -19.5 21t-48.5 2z" />
    <glyph glyph-name="onesuperior" unicode="&#xb9;" horiz-adv-x="296" 
d="M26 720h190v-278h68v-105h-262v105h68v173h-64v105z" />
    <glyph glyph-name="ordmasculine" unicode="&#xba;" horiz-adv-x="466" 
d="M27 528q0 88 58.5 146t147.5 58q90 0 148.5 -58t58.5 -146q0 -87 -58.5 -145t-148.5 -58q-89 0 -147.5 58t-58.5 145zM156 528q0 -38 22.5 -63t54.5 -25t54.5 24.5t22.5 63.5t-22.5 64t-54.5 25t-54.5 -25t-22.5 -64z" />
    <glyph glyph-name="guillemotright" unicode="&#xbb;" horiz-adv-x="700" 
d="M37 0l167 250l-167 250h190l158 -250l-158 -250h-190zM304 0l167 250l-167 250h190l158 -250l-158 -250h-190z" />
    <glyph glyph-name="onequarter" unicode="&#xbc;" horiz-adv-x="776" 
d="M685 0h-94v75h-193l133 324h104l-95 -236h53v83h92v-83h45v-88h-45v-75zM50 720h173v-294h70v-91h-248v91h70v203h-65v91zM85 0l513 720h100l-513 -720h-100z" />
    <glyph glyph-name="onehalf" unicode="&#xbd;" horiz-adv-x="821" 
d="M50 720h173v-294h70v-91h-248v91h70v203h-65v91zM508 278v99q35 22 95 22q71 0 113.5 -40t42.5 -104q0 -19 -4 -36.5t-16.5 -38t-17.5 -29t-25 -33t-22 -27.5h102v-91h-291q8 9 32 37t34.5 40.5t30 36.5t28.5 38.5t20.5 33t16 33.5t4.5 28q0 25 -16.5 40t-46.5 15
q-44 0 -80 -24zM85 0l513 720h100l-513 -720h-100z" />
    <glyph glyph-name="threequarters" unicode="&#xbe;" horiz-adv-x="809" 
d="M718 -2h-94v76h-193l133 323h104l-95 -235h53v83h92v-83h45v-89h-45v-75zM189 607q0 33 -56 33q-46 0 -82 -18v92q44 20 101 20q68 0 108 -31.5t40 -82.5q0 -27 -17.5 -50.5t-42.5 -36.5q67 -26 67 -92q0 -55 -43.5 -86.5t-111.5 -31.5q-61 0 -107 23v90q46 -18 98 -18
t52 36q0 39 -74 39h-20v81h24q64 0 64 33zM85 0l513 720h100l-513 -720h-100z" />
    <glyph glyph-name="questiondown" unicode="&#xbf;" horiz-adv-x="486" 
d="M384 278v-52q0 -40 -15.5 -72t-38 -52.5t-44.5 -38.5t-37.5 -38t-15.5 -42q0 -26 18 -44t45 -18q75 0 163 55v-161q-85 -50 -179 -50q-92 0 -157.5 52.5t-65.5 141.5q0 48 18 86t44 62.5t52 46t44 46t18 52.5v26h151zM213 422q0 43 25.5 67.5t69.5 24.5t70 -24.5
t26 -67.5t-26 -67.5t-70 -24.5t-69.5 24.5t-25.5 67.5z" />
    <glyph glyph-name="Agrave" unicode="&#xc0;" horiz-adv-x="709" 
d="M-8 0l358 730h9l358 -730h-191l-51 110h-242l-50 -110h-191zM286 233h137q-48 110 -68 172q-2 -5 -29.5 -75t-39.5 -97zM358 984l83 -203h-142l-158 203h217z" />
    <glyph glyph-name="Aacute" unicode="&#xc1;" horiz-adv-x="709" 
d="M-8 0l358 730h9l358 -730h-191l-51 110h-242l-50 -110h-191zM286 233h137q-48 110 -68 172q-2 -5 -29.5 -75t-39.5 -97zM268 781l83 203h217l-158 -203h-142z" />
    <glyph glyph-name="Acircumflex" unicode="&#xc2;" horiz-adv-x="709" 
d="M-8 0l358 730h9l358 -730h-191l-51 110h-242l-50 -110h-191zM286 233h137q-48 110 -68 172q-2 -5 -29.5 -75t-39.5 -97zM160 782l100 200h187l101 -200h-148l-46 108l-46 -108h-148z" />
    <glyph glyph-name="Atilde" unicode="&#xc3;" horiz-adv-x="709" 
d="M-8 0l358 730h9l358 -730h-191l-51 110h-242l-50 -110h-191zM286 233h137q-48 110 -68 172q-2 -5 -29.5 -75t-39.5 -97zM273 962q29 0 83 -15t82 -15q58 0 96 36v-132q-10 -15 -38 -26.5t-61 -11.5q-29 0 -83 15.5t-82 15.5q-55 0 -97 -36v131q11 15 39 26.5t61 11.5z
" />
    <glyph glyph-name="Adieresis" unicode="&#xc4;" horiz-adv-x="709" 
d="M-8 0l358 730h9l358 -730h-191l-51 110h-242l-50 -110h-191zM286 233h137q-48 110 -68 172q-2 -5 -29.5 -75t-39.5 -97zM138 880q0 43 26 67.5t70 24.5t70 -24.5t26 -67.5t-26 -68t-70 -25t-70 25t-26 68zM379 880q0 43 26 67.5t70 24.5t70 -24.5t26 -67.5t-26 -68
t-70 -25t-70 25t-26 68z" />
    <glyph glyph-name="Aring" unicode="&#xc5;" horiz-adv-x="709" 
d="M-8 0l358 730h9l358 -730h-191l-51 110h-242l-50 -110h-191zM286 233h137q-48 110 -68 172q-2 -5 -29.5 -75t-39.5 -97zM226 880q0 51 36.5 80.5t92.5 29.5q55 0 91.5 -29.5t36.5 -80.5t-36.5 -80.5t-91.5 -29.5q-56 0 -92.5 29.5t-36.5 80.5zM322 880q0 -15 9 -24t24 -9
q14 0 23 9.5t9 23.5t-9 22.5t-23 8.5q-15 0 -24 -8.5t-9 -22.5z" />
    <glyph glyph-name="AE" unicode="&#xc6;" horiz-adv-x="898" 
d="M523 0l-41 118h-241l-58 -118h-190l388 720h458v-154h-345l46 -128h278v-146h-225l50 -138h233v-154h-353zM382 408l-81 -168h139l-56 168h-2z" />
    <glyph glyph-name="Ccedilla" unicode="&#xc7;" horiz-adv-x="654" 
d="M618 686v-167q-94 48 -191 48q-98 0 -156.5 -60t-58.5 -147t56.5 -147t150.5 -60q110 0 204 48v-169q-75 -39 -191 -45l-9 -29q38 -3 68 -28.5t30 -68.5q0 -47 -37.5 -71t-101.5 -24q-55 0 -75 10v97q25 -7 42 -7q39 0 39 24q0 15 -19.5 21t-48.5 2l30 77
q-141 17 -231.5 121t-90.5 249q0 158 108.5 266t274.5 108q115 0 207 -48z" />
    <glyph glyph-name="Egrave" unicode="&#xc8;" horiz-adv-x="586" 
d="M557 0h-487v720h472v-154h-289v-128h247v-146h-247v-138h304v-154zM305 984l83 -203h-142l-158 203h217z" />
    <glyph glyph-name="Eacute" unicode="&#xc9;" horiz-adv-x="586" 
d="M557 0h-487v720h472v-154h-289v-128h247v-146h-247v-138h304v-154zM217 781l83 203h217l-158 -203h-142z" />
    <glyph glyph-name="Ecircumflex" unicode="&#xca;" horiz-adv-x="586" 
d="M557 0h-487v720h472v-154h-289v-128h247v-146h-247v-138h304v-154zM113 782l100 200h187l101 -200h-148l-46 108l-46 -108h-148z" />
    <glyph glyph-name="Edieresis" unicode="&#xcb;" horiz-adv-x="586" 
d="M557 0h-487v720h472v-154h-289v-128h247v-146h-247v-138h304v-154zM92 880q0 43 26 67.5t70 24.5t70 -24.5t26 -67.5t-26 -68t-70 -25t-70 25t-26 68zM333 880q0 43 26 67.5t70 24.5t70 -24.5t26 -67.5t-26 -68t-70 -25t-70 25t-26 68z" />
    <glyph glyph-name="Igrave" unicode="&#xcc;" horiz-adv-x="322" 
d="M253 0h-183v720h183v-720zM151 984l83 -203h-142l-158 203h217z" />
    <glyph glyph-name="Iacute" unicode="&#xcd;" horiz-adv-x="322" 
d="M253 0h-183v720h183v-720zM85 781l83 203h217l-158 -203h-142z" />
    <glyph glyph-name="Icircumflex" unicode="&#xce;" horiz-adv-x="322" 
d="M253 0h-183v720h183v-720zM-33 782l100 200h187l101 -200h-148l-46 108l-46 -108h-148z" />
    <glyph glyph-name="Idieresis" unicode="&#xcf;" horiz-adv-x="322" 
d="M253 0h-183v720h183v-720zM-56 880q0 43 26 67.5t70 24.5t70 -24.5t26 -67.5t-26 -68t-70 -25t-70 25t-26 68zM185 880q0 43 26 67.5t70 24.5t70 -24.5t26 -67.5t-26 -68t-70 -25t-70 25t-26 68z" />
    <glyph glyph-name="Eth" unicode="&#xd0;" horiz-adv-x="769" 
d="M23 305v110h67v305h241q186 0 297 -100.5t111 -259.5t-110.5 -259.5t-296.5 -100.5h-242v305h-67zM329 566h-56v-151h138v-110h-138v-151h57q105 0 164.5 59t59.5 147t-59.5 147t-165.5 59z" />
    <glyph glyph-name="Ntilde" unicode="&#xd1;" horiz-adv-x="752" 
d="M683 -10h-7l-369 325l-58 48v-363h-179v730h8l366 -324q8 -6 28 -23.5t31 -25.5v363h180v-730zM295 962q29 0 83 -15t82 -15q58 0 96 36v-132q-10 -15 -38 -26.5t-61 -11.5q-29 0 -83 15.5t-82 15.5q-55 0 -97 -36v131q11 15 39 26.5t61 11.5z" />
    <glyph glyph-name="Ograve" unicode="&#xd2;" horiz-adv-x="819" 
d="M28 360q0 157 108.5 265.5t272.5 108.5q165 0 273 -108.5t108 -265.5q0 -158 -108 -266t-273 -108t-273 108t-108 266zM212 360q0 -86 55.5 -146.5t141.5 -60.5t141 60.5t55 146.5q0 85 -55 146t-141 61t-141.5 -61t-55.5 -146zM400 984l83 -203h-142l-158 203h217z" />
    <glyph glyph-name="Oacute" unicode="&#xd3;" horiz-adv-x="819" 
d="M28 360q0 157 108.5 265.5t272.5 108.5q165 0 273 -108.5t108 -265.5q0 -158 -108 -266t-273 -108t-273 108t-108 266zM212 360q0 -86 55.5 -146.5t141.5 -60.5t141 60.5t55 146.5q0 85 -55 146t-141 61t-141.5 -61t-55.5 -146zM322 781l83 203h217l-158 -203h-142z" />
    <glyph glyph-name="Ocircumflex" unicode="&#xd4;" horiz-adv-x="819" 
d="M28 360q0 157 108.5 265.5t272.5 108.5q165 0 273 -108.5t108 -265.5q0 -158 -108 -266t-273 -108t-273 108t-108 266zM212 360q0 -86 55.5 -146.5t141.5 -60.5t141 60.5t55 146.5q0 85 -55 146t-141 61t-141.5 -61t-55.5 -146zM215 782l100 200h187l101 -200h-148
l-46 108l-46 -108h-148z" />
    <glyph glyph-name="Otilde" unicode="&#xd5;" horiz-adv-x="819" 
d="M28 360q0 157 108.5 265.5t272.5 108.5q165 0 273 -108.5t108 -265.5q0 -158 -108 -266t-273 -108t-273 108t-108 266zM212 360q0 -86 55.5 -146.5t141.5 -60.5t141 60.5t55 146.5q0 85 -55 146t-141 61t-141.5 -61t-55.5 -146zM328 962q28 0 82 -15t83 -15q58 0 96 36
v-132q-10 -15 -38 -26.5t-61 -11.5q-29 0 -83 15.5t-82 15.5q-55 0 -97 -36v131q11 15 39 26.5t61 11.5z" />
    <glyph glyph-name="Odieresis" unicode="&#xd6;" horiz-adv-x="819" 
d="M28 360q0 157 108.5 265.5t272.5 108.5q165 0 273 -108.5t108 -265.5q0 -158 -108 -266t-273 -108t-273 108t-108 266zM212 360q0 -86 55.5 -146.5t141.5 -60.5t141 60.5t55 146.5q0 85 -55 146t-141 61t-141.5 -61t-55.5 -146zM192 880q0 43 26 67.5t70 24.5t70 -24.5
t26 -67.5t-26 -68t-70 -25t-70 25t-26 68zM433 880q0 43 26 67.5t70 24.5t70 -24.5t26 -67.5t-26 -68t-70 -25t-70 25t-26 68z" />
    <glyph glyph-name="multiply" unicode="&#xd7;" horiz-adv-x="621" 
d="M444 593l98 -99l-134 -134l134 -132l-98 -99l-133 134l-134 -134l-98 99l134 134l-133 132l97 98l133 -133z" />
    <glyph glyph-name="Oslash" unicode="&#xd8;" horiz-adv-x="819" 
d="M28 360q0 157 108.5 265.5t272.5 108.5q94 0 171 -37l60 93h89l-85 -132q69 -51 107.5 -129.5t38.5 -168.5q0 -158 -108 -266t-273 -108q-93 0 -172 37l-59 -93h-88l84 131q-69 51 -107.5 129.5t-38.5 169.5zM212 360q0 -89 58 -149l217 340q-37 16 -78 16
q-86 0 -141.5 -61t-55.5 -146zM605 360q0 87 -57 147l-217 -339q35 -15 78 -15q86 0 141 60.5t55 146.5z" />
    <glyph glyph-name="Ugrave" unicode="&#xd9;" horiz-adv-x="750" 
d="M688 720v-453q0 -128 -83 -204.5t-230 -76.5q-146 0 -229.5 76.5t-83.5 204.5v453h183v-433q0 -64 33.5 -99t96.5 -35t96 35t33 99v433h184zM370 984l83 -203h-142l-158 203h217z" />
    <glyph glyph-name="Uacute" unicode="&#xda;" horiz-adv-x="750" 
d="M688 720v-453q0 -128 -83 -204.5t-230 -76.5q-146 0 -229.5 76.5t-83.5 204.5v453h183v-433q0 -64 33.5 -99t96.5 -35t96 35t33 99v433h184zM291 781l83 203h217l-158 -203h-142z" />
    <glyph glyph-name="Ucircumflex" unicode="&#xdb;" horiz-adv-x="750" 
d="M688 720v-453q0 -128 -83 -204.5t-230 -76.5q-146 0 -229.5 76.5t-83.5 204.5v453h183v-433q0 -64 33.5 -99t96.5 -35t96 35t33 99v433h184zM181 782l100 200h187l101 -200h-148l-46 108l-46 -108h-148z" />
    <glyph glyph-name="Udieresis" unicode="&#xdc;" horiz-adv-x="750" 
d="M688 720v-453q0 -128 -83 -204.5t-230 -76.5q-146 0 -229.5 76.5t-83.5 204.5v453h183v-433q0 -64 33.5 -99t96.5 -35t96 35t33 99v433h184zM157 880q0 43 26 67.5t70 24.5t70 -24.5t26 -67.5t-26 -68t-70 -25t-70 25t-26 68zM398 880q0 43 26 67.5t70 24.5t70 -24.5
t26 -67.5t-26 -68t-70 -25t-70 25t-26 68z" />
    <glyph glyph-name="Yacute" unicode="&#xdd;" horiz-adv-x="643" 
d="M-33 720h208l146 -270l147 270h208l-263 -445v-275h-183v275zM241 781l83 203h217l-158 -203h-142z" />
    <glyph glyph-name="Thorn" unicode="&#xde;" horiz-adv-x="594" 
d="M276 115h-23v-115h-183v720h183v-115h23q135 0 214.5 -63t79.5 -182q0 -120 -79.5 -182.5t-214.5 -62.5zM284 451h-31v-182h23q21 0 30 1q79 10 79 90q0 46 -28 68.5t-73 22.5z" />
    <glyph glyph-name="germandbls" unicode="&#xdf;" horiz-adv-x="673" 
d="M234 0h-175v476q0 108 77 183t215 75q101 0 168.5 -53.5t67.5 -134.5q0 -40 -22.5 -75t-49 -54.5t-49 -38.5t-22.5 -31q0 -9 7 -16t16 -11.5t33 -14.5q84 -36 120 -68t36 -95q0 -74 -55.5 -115t-153.5 -41q-89 0 -158 32v155q31 -20 76.5 -34.5t78.5 -14.5q49 0 49 26
q0 14 -15 23t-51 22q-75 28 -108.5 56.5t-33.5 86.5q0 32 20.5 61t45 47t45 40.5t20.5 43.5q0 26 -18 41t-49 15q-53 0 -84 -31.5t-31 -85.5v-469z" />
    <glyph glyph-name="agrave" unicode="&#xe0;" horiz-adv-x="535" 
d="M62 324v158q69 32 188 32q118 0 179.5 -52.5t61.5 -147.5v-314h-160l-4 39l2 32h-2q-15 -34 -52.5 -59.5t-94.5 -25.5q-67 0 -112.5 39t-45.5 114q0 91 83 133.5t209 24.5v7q0 63 -95 63q-90 0 -157 -43zM231 119q34 0 56 26t22 68q-61 10 -91.5 -6t-30.5 -46
q0 -19 12 -30.5t32 -11.5zM277 734l80 -173h-154l-150 173h224z" />
    <glyph glyph-name="aacute" unicode="&#xe1;" horiz-adv-x="535" 
d="M62 324v158q69 32 188 32q118 0 179.5 -52.5t61.5 -147.5v-314h-160l-4 39l2 32h-2q-15 -34 -52.5 -59.5t-94.5 -25.5q-67 0 -112.5 39t-45.5 114q0 91 83 133.5t209 24.5v7q0 63 -95 63q-90 0 -157 -43zM231 119q34 0 56 26t22 68q-61 10 -91.5 -6t-30.5 -46
q0 -19 12 -30.5t32 -11.5zM167 561l80 173h224l-149 -173h-155z" />
    <glyph glyph-name="acircumflex" unicode="&#xe2;" horiz-adv-x="535" 
d="M62 324v158q69 32 188 32q118 0 179.5 -52.5t61.5 -147.5v-314h-160l-4 39l2 32h-2q-15 -34 -52.5 -59.5t-94.5 -25.5q-67 0 -112.5 39t-45.5 114q0 91 83 133.5t209 24.5v7q0 63 -95 63q-90 0 -157 -43zM231 119q34 0 56 26t22 68q-61 10 -91.5 -6t-30.5 -46
q0 -19 12 -30.5t32 -11.5zM79 561l88 173h192l87 -173h-146l-37 90l-38 -90h-146z" />
    <glyph glyph-name="atilde" unicode="&#xe3;" horiz-adv-x="535" 
d="M62 324v158q69 32 188 32q118 0 179.5 -52.5t61.5 -147.5v-314h-160l-4 39l2 32h-2q-15 -34 -52.5 -59.5t-94.5 -25.5q-67 0 -112.5 39t-45.5 114q0 91 83 133.5t209 24.5v7q0 63 -95 63q-90 0 -157 -43zM231 119q34 0 56 26t22 68q-61 10 -91.5 -6t-30.5 -46
q0 -19 12 -30.5t32 -11.5zM181 728q29 0 81 -15.5t81 -15.5q56 0 96 36v-128q-11 -15 -39 -26.5t-60 -11.5q-29 0 -81.5 15.5t-80.5 15.5q-55 0 -97 -36v128q11 15 39 26.5t61 11.5z" />
    <glyph glyph-name="adieresis" unicode="&#xe4;" horiz-adv-x="535" 
d="M62 324v158q69 32 188 32q118 0 179.5 -52.5t61.5 -147.5v-314h-160l-4 39l2 32h-2q-15 -34 -52.5 -59.5t-94.5 -25.5q-67 0 -112.5 39t-45.5 114q0 91 83 133.5t209 24.5v7q0 63 -95 63q-90 0 -157 -43zM231 119q34 0 56 26t22 68q-61 10 -91.5 -6t-30.5 -46
q0 -19 12 -30.5t32 -11.5zM44 643q0 43 26 67.5t70 24.5t70 -24.5t26 -67.5t-26 -68t-70 -25t-70 25t-26 68zM284 643q0 43 25.5 67.5t69.5 24.5t70 -24.5t26 -67.5t-26 -68t-70 -25t-69.5 25t-25.5 68z" />
    <glyph glyph-name="aring" unicode="&#xe5;" horiz-adv-x="535" 
d="M62 324v158q69 32 188 32q118 0 179.5 -52.5t61.5 -147.5v-314h-160l-4 39l2 32h-2q-15 -34 -52.5 -59.5t-94.5 -25.5q-67 0 -112.5 39t-45.5 114q0 91 83 133.5t209 24.5v7q0 63 -95 63q-90 0 -157 -43zM231 119q34 0 56 26t22 68q-61 10 -91.5 -6t-30.5 -46
q0 -19 12 -30.5t32 -11.5zM131 643q0 51 36 78.5t93 27.5q56 0 92 -27.5t36 -78.5t-36 -79t-92 -28q-57 0 -93 28t-36 79zM227 643q0 -31 33 -31q14 0 23 8.5t9 22.5q0 13 -9 21.5t-23 8.5q-33 0 -33 -30z" />
    <glyph glyph-name="ae" unicode="&#xe6;" horiz-adv-x="802" 
d="M62 324v158q57 24 140 30q28 3 65 1q91 -3 138 -50q64 51 149 51q108 0 167 -67.5t59 -166.5q0 -17 -2.5 -40.5t-2.5 -25.5h-301q11 -80 118 -80q48 0 97.5 11t69.5 21v-149q-64 -31 -184 -31q-132 0 -208 81q-79 -81 -183 -81q-68 0 -115 39t-47 114q0 90 83.5 133
t212.5 26q0 3 3 15q-4 54 -98 54t-161 -43zM235 119q29 0 50.5 17t28.5 47v31q-64 8 -95.5 -7.5t-31.5 -45.5q0 -19 13 -30.5t35 -11.5zM612 296q1 35 -17 58t-51 23t-51.5 -23t-19.5 -58h139z" />
    <glyph glyph-name="ccedilla" unicode="&#xe7;" horiz-adv-x="472" 
d="M203 250q0 -51 32 -80.5t85 -29.5q37 0 72 14t51 26v-159q-64 -32 -140 -35l-9 -28q38 -3 68 -28.5t30 -68.5q0 -47 -37.5 -71t-101.5 -24q-55 0 -75 10v97q25 -7 42 -7q39 0 39 24q0 15 -19.5 21t-48.5 2l32 81q-92 19 -146 88.5t-54 167.5q0 115 74 189.5t195 74.5
q80 0 148 -34v-160q-20 16 -54 28t-66 12q-52 0 -84.5 -30t-32.5 -80z" />
    <glyph glyph-name="egrave" unicode="&#xe8;" horiz-adv-x="540" 
d="M282 514q113 0 174.5 -67.5t61.5 -166.5q0 -21 -5 -66h-305q11 -80 120 -80q49 0 99 11t70 21v-149q-64 -31 -186 -31q-132 0 -210 73.5t-78 190.5q0 114 74 189t185 75zM350 296q1 35 -17 58t-53 23q-34 0 -53 -23t-20 -58h143zM297 734l80 -173h-154l-150 173h224z" />
    <glyph glyph-name="eacute" unicode="&#xe9;" horiz-adv-x="540" 
d="M282 514q113 0 174.5 -67.5t61.5 -166.5q0 -21 -5 -66h-305q11 -80 120 -80q49 0 99 11t70 21v-149q-64 -31 -186 -31q-132 0 -210 73.5t-78 190.5q0 114 74 189t185 75zM350 296q1 35 -17 58t-53 23q-34 0 -53 -23t-20 -58h143zM182 561l80 173h224l-149 -173h-155z" />
    <glyph glyph-name="ecircumflex" unicode="&#xea;" horiz-adv-x="540" 
d="M282 514q113 0 174.5 -67.5t61.5 -166.5q0 -21 -5 -66h-305q11 -80 120 -80q49 0 99 11t70 21v-149q-64 -31 -186 -31q-132 0 -210 73.5t-78 190.5q0 114 74 189t185 75zM350 296q1 35 -17 58t-53 23q-34 0 -53 -23t-20 -58h143zM94 561l88 173h192l87 -173h-146l-37 90
l-38 -90h-146z" />
    <glyph glyph-name="edieresis" unicode="&#xeb;" horiz-adv-x="540" 
d="M282 514q113 0 174.5 -67.5t61.5 -166.5q0 -21 -5 -66h-305q11 -80 120 -80q49 0 99 11t70 21v-149q-64 -31 -186 -31q-132 0 -210 73.5t-78 190.5q0 114 74 189t185 75zM350 296q1 35 -17 58t-53 23q-34 0 -53 -23t-20 -58h143zM58 643q0 43 26 67.5t70 24.5t70 -24.5
t26 -67.5t-26 -68t-70 -25t-70 25t-26 68zM298 643q0 43 25.5 67.5t69.5 24.5t70 -24.5t26 -67.5t-26 -68t-70 -25t-69.5 25t-25.5 68z" />
    <glyph glyph-name="igrave" unicode="&#xec;" horiz-adv-x="297" 
d="M151 734l79 -173h-154l-149 173h224zM59 500h179v-500h-179v500z" />
    <glyph glyph-name="iacute" unicode="&#xed;" horiz-adv-x="297" 
d="M67 561l79 173h225l-150 -173h-154zM59 500h179v-500h-179v500z" />
    <glyph glyph-name="icircumflex" unicode="&#xee;" horiz-adv-x="297" 
d="M59 500h179v-500h-179v500zM-35 561l88 173h192l87 -173h-146l-37 90l-38 -90h-146z" />
    <glyph glyph-name="idieresis" unicode="&#xef;" horiz-adv-x="297" 
d="M-67 643q0 43 26 67.5t70 24.5t70 -24.5t26 -67.5t-26 -68t-70 -25t-70 25t-26 68zM173 643q0 43 25.5 67.5t69.5 24.5t70 -24.5t26 -67.5t-26 -68t-70 -25t-69.5 25t-25.5 68zM59 500h179v-500h-179v500z" />
    <glyph glyph-name="eth" unicode="&#xf0;" horiz-adv-x="582" 
d="M399 763l39 -62l-73 -43q83 -87 138.5 -188.5t55.5 -202.5q0 -121 -75 -201t-193 -80q-117 0 -192.5 75t-75.5 189q0 94 54.5 164.5t143.5 89.5q23 5 56 3q-27 37 -55 67l-72 -43l-40 62l63 37q-30 33 -89 90h220l8 -8zM190 250q0 -51 28.5 -83.5t72.5 -32.5t72.5 37
t28.5 96q1 39 -30 69.5t-71 30.5q-44 0 -72.5 -33t-28.5 -84z" />
    <glyph glyph-name="ntilde" unicode="&#xf1;" horiz-adv-x="614" 
d="M59 500h162l5 -51q3 -19 -4 -32h2q18 37 64.5 67t98.5 30q82 0 128.5 -51t46.5 -151v-312h-178v285q0 69 -54 69q-42 0 -67 -29t-25 -74v-251h-179v500zM235 728q29 0 81 -15.5t81 -15.5q56 0 96 36v-128q-11 -15 -39 -26.5t-60 -11.5q-29 0 -81.5 15.5t-80.5 15.5
q-55 0 -97 -36v128q11 15 39 26.5t61 11.5z" />
    <glyph glyph-name="ograve" unicode="&#xf2;" 
d="M294 514q118 0 194.5 -75t76.5 -189t-76.5 -189t-194.5 -75t-194.5 75t-76.5 189t76.5 189t194.5 75zM294 134q44 0 74 32t30 84t-30 84t-74 32q-45 0 -74.5 -32t-29.5 -84t29.5 -84t74.5 -32zM308 734l80 -173h-154l-150 173h224z" />
    <glyph glyph-name="oacute" unicode="&#xf3;" 
d="M294 514q118 0 194.5 -75t76.5 -189t-76.5 -189t-194.5 -75t-194.5 75t-76.5 189t76.5 189t194.5 75zM294 134q44 0 74 32t30 84t-30 84t-74 32q-45 0 -74.5 -32t-29.5 -84t29.5 -84t74.5 -32zM202 561l80 173h224l-149 -173h-155z" />
    <glyph glyph-name="ocircumflex" unicode="&#xf4;" 
d="M294 514q118 0 194.5 -75t76.5 -189t-76.5 -189t-194.5 -75t-194.5 75t-76.5 189t76.5 189t194.5 75zM294 134q44 0 74 32t30 84t-30 84t-74 32q-45 0 -74.5 -32t-29.5 -84t29.5 -84t74.5 -32zM110 561l88 173h192l87 -173h-146l-37 90l-38 -90h-146z" />
    <glyph glyph-name="otilde" unicode="&#xf5;" 
d="M294 514q118 0 194.5 -75t76.5 -189t-76.5 -189t-194.5 -75t-194.5 75t-76.5 189t76.5 189t194.5 75zM294 134q44 0 74 32t30 84t-30 84t-74 32q-45 0 -74.5 -32t-29.5 -84t29.5 -84t74.5 -32zM215 728q29 0 81 -15.5t81 -15.5q56 0 96 36v-128q-11 -15 -39 -26.5
t-60 -11.5q-29 0 -81.5 15.5t-80.5 15.5q-55 0 -97 -36v128q11 15 39 26.5t61 11.5z" />
    <glyph glyph-name="odieresis" unicode="&#xf6;" 
d="M294 514q118 0 194.5 -75t76.5 -189t-76.5 -189t-194.5 -75t-194.5 75t-76.5 189t76.5 189t194.5 75zM294 134q44 0 74 32t30 84t-30 84t-74 32q-45 0 -74.5 -32t-29.5 -84t29.5 -84t74.5 -32zM78 643q0 43 26 67.5t70 24.5t70 -24.5t26 -67.5t-26 -68t-70 -25t-70 25
t-26 68zM318 643q0 43 25.5 67.5t69.5 24.5t70 -24.5t26 -67.5t-26 -68t-70 -25t-69.5 25t-25.5 68z" />
    <glyph glyph-name="divide" unicode="&#xf7;" horiz-adv-x="620" 
d="M214 568q0 43 25.5 68t69.5 25t70 -25t26 -68t-26 -67.5t-70 -24.5t-69.5 24.5t-25.5 67.5zM79 291v138h462v-138h-462zM214 152q0 43 25.5 67.5t69.5 24.5t70 -24.5t26 -67.5t-26 -68t-70 -25t-69.5 25t-25.5 68z" />
    <glyph glyph-name="oslash" unicode="&#xf8;" 
d="M294 514q57 0 110 -21l49 77h89l-72 -115q95 -76 95 -205q0 -114 -76.5 -189t-194.5 -75q-56 0 -108 19l-47 -75h-89l70 112q-97 75 -97 208q0 114 76.5 189t194.5 75zM190 250q0 -42 18 -69l114 181q-18 4 -28 4q-45 0 -74.5 -32t-29.5 -84zM294 134q44 0 74 32t30 84
q0 37 -17 65l-112 -178q12 -3 25 -3z" />
    <glyph glyph-name="ugrave" unicode="&#xf9;" horiz-adv-x="614" 
d="M555 0h-162l-5 51q-1 17 4 32h-2q-18 -37 -64 -67t-98 -30q-82 0 -128.5 51t-46.5 151v312h179v-285q0 -69 54 -69q41 0 65.5 28.5t24.5 74.5v251h179v-500zM312 734l80 -173h-154l-150 173h224z" />
    <glyph glyph-name="uacute" unicode="&#xfa;" horiz-adv-x="614" 
d="M555 0h-162l-5 51q-1 17 4 32h-2q-18 -37 -64 -67t-98 -30q-82 0 -128.5 51t-46.5 151v312h179v-285q0 -69 54 -69q41 0 65.5 28.5t24.5 74.5v251h179v-500zM213 561l80 173h224l-149 -173h-155z" />
    <glyph glyph-name="ucircumflex" unicode="&#xfb;" horiz-adv-x="614" 
d="M555 0h-162l-5 51q-1 17 4 32h-2q-18 -37 -64 -67t-98 -30q-82 0 -128.5 51t-46.5 151v312h179v-285q0 -69 54 -69q41 0 65.5 28.5t24.5 74.5v251h179v-500zM122 561l88 173h192l87 -173h-146l-37 90l-38 -90h-146z" />
    <glyph glyph-name="udieresis" unicode="&#xfc;" horiz-adv-x="614" 
d="M555 0h-162l-5 51q-1 17 4 32h-2q-18 -37 -64 -67t-98 -30q-82 0 -128.5 51t-46.5 151v312h179v-285q0 -69 54 -69q41 0 65.5 28.5t24.5 74.5v251h179v-500zM89 643q0 43 26 67.5t70 24.5t70 -24.5t26 -67.5t-26 -68t-70 -25t-70 25t-26 68zM329 643q0 43 25.5 67.5
t69.5 24.5t70 -24.5t26 -67.5t-26 -68t-70 -25t-69.5 25t-25.5 68z" />
    <glyph glyph-name="yacute" unicode="&#xfd;" horiz-adv-x="563" 
d="M20 -222v158q29 -11 62 -11q73 0 111 72l-204 503h194l52 -170q34 -112 46 -169q4 7 24 82.5t24 86.5l52 170h193l-193 -506q-81 -218 -258 -227q-37 -1 -64 3q-31 3 -39 8zM200 561l80 173h224l-149 -173h-155z" />
    <glyph glyph-name="thorn" unicode="&#xfe;" horiz-adv-x="641" 
d="M59 -220v940h179v-227l-3 -42h2q19 28 58.5 45.5t88.5 17.5q97 0 163.5 -71t66.5 -193t-66 -193t-163 -71q-50 0 -89 18.5t-59 46.5h-2q3 0 3 -57v-214h-179zM346 134q44 0 72.5 32t28.5 84t-29 84t-72 32q-42 0 -72 -31t-30 -85t30 -85t72 -31z" />
    <glyph glyph-name="ydieresis" unicode="&#xff;" horiz-adv-x="563" 
d="M20 -222v158q29 -11 62 -11q73 0 111 72l-204 503h194l52 -170q34 -112 46 -169q4 7 24 82.5t24 86.5l52 170h193l-193 -506q-81 -218 -258 -227q-37 -1 -64 3q-31 3 -39 8zM66 643q0 43 26 67.5t70 24.5t70 -24.5t26 -67.5t-26 -68t-70 -25t-70 25t-26 68zM306 643
q0 43 25.5 67.5t69.5 24.5t70 -24.5t26 -67.5t-26 -68t-70 -25t-69.5 25t-25.5 68z" />
    <glyph glyph-name="Amacron" unicode="&#x100;" horiz-adv-x="709" 
d="M-8 0l358 730h9l358 -730h-191l-51 110h-242l-50 -110h-191zM286 233h137q-48 110 -68 172q-2 -5 -29.5 -75t-39.5 -97zM173 814v131h363v-131h-363z" />
    <glyph glyph-name="amacron" unicode="&#x101;" horiz-adv-x="535" 
d="M62 324v158q69 32 188 32q118 0 179.5 -52.5t61.5 -147.5v-314h-160l-4 39l2 32h-2q-15 -34 -52.5 -59.5t-94.5 -25.5q-67 0 -112.5 39t-45.5 114q0 91 83 133.5t209 24.5v7q0 63 -95 63q-90 0 -157 -43zM231 119q34 0 56 26t22 68q-61 10 -91.5 -6t-30.5 -46
q0 -19 12 -30.5t32 -11.5zM85 579v128h343v-128h-343z" />
    <glyph glyph-name="Abreve" unicode="&#x102;" horiz-adv-x="709" 
d="M-8 0l358 730h9l358 -730h-191l-51 110h-242l-50 -110h-191zM286 233h137q-48 110 -68 172q-2 -5 -29.5 -75t-39.5 -97zM394 962h128q1 -81 -41.5 -127t-125.5 -46q-84 0 -126.5 46t-40.5 127h127q-2 -56 40 -56t39 56z" />
    <glyph glyph-name="abreve" unicode="&#x103;" horiz-adv-x="535" 
d="M62 324v158q69 32 188 32q118 0 179.5 -52.5t61.5 -147.5v-314h-160l-4 39l2 32h-2q-15 -34 -52.5 -59.5t-94.5 -25.5q-67 0 -112.5 39t-45.5 114q0 91 83 133.5t209 24.5v7q0 63 -95 63q-90 0 -157 -43zM231 119q34 0 56 26t22 68q-61 10 -91.5 -6t-30.5 -46
q0 -19 12 -30.5t32 -11.5zM291 732h128q1 -80 -40 -124.5t-123 -44.5q-81 0 -122 44.5t-40 124.5h128q-2 -24 7.5 -38t26.5 -14q38 0 35 52z" />
    <glyph glyph-name="Aogonek" unicode="&#x104;" horiz-adv-x="709" 
d="M-8 0l358 730h9l358 -730q-70 -48 -70 -97q0 -33 35 -33q14 0 40 7v-102q-23 -9 -66 -9q-63 0 -101.5 25.5t-38.5 77.5q0 39 34 72.5t88 58.5h-112l-51 110h-242l-50 -110h-191zM286 233h137q-48 110 -68 172q-2 -5 -29.5 -75t-39.5 -97z" />
    <glyph glyph-name="aogonek" unicode="&#x105;" horiz-adv-x="535" 
d="M62 324v158q69 32 188 32q118 0 179.5 -52.5t61.5 -147.5v-314q-70 -48 -70 -97q0 -33 35 -33q14 0 40 7v-102q-23 -9 -66 -9q-63 0 -101.5 25.5t-38.5 77.5q0 39 34 72.5t88 58.5h-81l-4 39l2 32h-2q-15 -34 -52.5 -59.5t-94.5 -25.5q-67 0 -112.5 39t-45.5 114
q0 91 83 133.5t209 24.5v7q0 63 -95 63q-90 0 -157 -43zM231 119q34 0 56 26t22 68q-61 10 -91.5 -6t-30.5 -46q0 -19 12 -30.5t32 -11.5z" />
    <glyph glyph-name="Cacute" unicode="&#x106;" horiz-adv-x="654" 
d="M618 686v-167q-94 48 -191 48q-98 0 -156.5 -60t-58.5 -147t56.5 -147t150.5 -60q110 0 204 48v-169q-88 -46 -220 -46q-161 0 -268 108t-107 266t108.5 266t274.5 108q115 0 207 -48zM309 781l83 203h217l-158 -203h-142z" />
    <glyph glyph-name="cacute" unicode="&#x107;" horiz-adv-x="472" 
d="M203 250q0 -51 32 -80.5t85 -29.5q37 0 72 14t51 26v-159q-70 -35 -151 -35q-121 0 -195 74.5t-74 189.5t74 189.5t195 74.5q80 0 148 -34v-160q-20 16 -54 28t-66 12q-52 0 -84.5 -30t-32.5 -80zM189 561l80 173h224l-149 -173h-155z" />
    <glyph glyph-name="Ccircumflex" unicode="&#x108;" horiz-adv-x="654" 
d="M618 686v-167q-94 48 -191 48q-98 0 -156.5 -60t-58.5 -147t56.5 -147t150.5 -60q110 0 204 48v-169q-88 -46 -220 -46q-161 0 -268 108t-107 266t108.5 266t274.5 108q115 0 207 -48zM194 782l100 200h187l101 -200h-148l-46 108l-46 -108h-148z" />
    <glyph glyph-name="ccircumflex" unicode="&#x109;" horiz-adv-x="472" 
d="M203 250q0 -51 32 -80.5t85 -29.5q37 0 72 14t51 26v-159q-70 -35 -151 -35q-121 0 -195 74.5t-74 189.5t74 189.5t195 74.5q80 0 148 -34v-160q-20 16 -54 28t-66 12q-52 0 -84.5 -30t-32.5 -80zM75 561l88 173h192l87 -173h-146l-37 90l-38 -90h-146z" />
    <glyph glyph-name="Cdotaccent" unicode="&#x10a;" horiz-adv-x="654" 
d="M618 686v-167q-94 48 -191 48q-98 0 -156.5 -60t-58.5 -147t56.5 -147t150.5 -60q110 0 204 48v-169q-88 -46 -220 -46q-161 0 -268 108t-107 266t108.5 266t274.5 108q115 0 207 -48zM300 880q0 43 26 67.5t70 24.5t70 -24.5t26 -67.5t-26 -68t-70 -25t-70 25t-26 68z
" />
    <glyph glyph-name="cdotaccent" unicode="&#x10b;" horiz-adv-x="472" 
d="M203 250q0 -51 32 -80.5t85 -29.5q37 0 72 14t51 26v-159q-70 -35 -151 -35q-121 0 -195 74.5t-74 189.5t74 189.5t195 74.5q80 0 148 -34v-160q-20 16 -54 28t-66 12q-52 0 -84.5 -30t-32.5 -80zM184 643q0 43 26 67.5t70 24.5t70 -24.5t26 -67.5t-26 -68t-70 -25
t-70 25t-26 68z" />
    <glyph glyph-name="Ccaron" unicode="&#x10c;" horiz-adv-x="654" 
d="M618 686v-167q-94 48 -191 48q-98 0 -156.5 -60t-58.5 -147t56.5 -147t150.5 -60q110 0 204 48v-169q-88 -46 -220 -46q-161 0 -268 108t-107 266t108.5 266t274.5 108q115 0 207 -48zM589 982l-101 -200h-187l-100 200h148l46 -108l46 108h148z" />
    <glyph glyph-name="ccaron" unicode="&#x10d;" horiz-adv-x="472" 
d="M203 250q0 -51 32 -80.5t85 -29.5q37 0 72 14t51 26v-159q-70 -35 -151 -35q-121 0 -195 74.5t-74 189.5t74 189.5t195 74.5q80 0 148 -34v-160q-20 16 -54 28t-66 12q-52 0 -84.5 -30t-32.5 -80zM449 734l-87 -173h-192l-88 173h146l38 -90l37 90h146z" />
    <glyph glyph-name="Dcaron" unicode="&#x10e;" horiz-adv-x="749" 
d="M312 0h-242v720h241q186 0 297 -100.5t111 -259.5t-110.5 -259.5t-296.5 -100.5zM309 566h-56v-412h57q105 0 164.5 59t59.5 147t-59.5 147t-165.5 59zM527 982l-101 -200h-187l-100 200h148l46 -108l46 108h148z" />
    <glyph glyph-name="dcaron" unicode="&#x10f;" horiz-adv-x="801" 
d="M577 720v-720h-161l-4 37l2 32h-2q-17 -36 -60.5 -59.5t-95.5 -23.5q-99 0 -166 71t-67 193t66 193t163 71q49 0 88 -18t60 -47h2q-3 13 -3 42v229h178zM291 366q-44 0 -72.5 -32t-28.5 -84t29 -84t72 -32q42 0 71.5 31t29.5 85t-29.5 85t-71.5 31zM636 403v315h162v-315
h-162z" />
    <glyph glyph-name="Dcroat" unicode="&#x110;" horiz-adv-x="769" 
d="M23 305v110h67v305h241q186 0 297 -100.5t111 -259.5t-110.5 -259.5t-296.5 -100.5h-242v305h-67zM329 566h-56v-151h138v-110h-138v-151h57q105 0 164.5 59t59.5 147t-59.5 147t-165.5 59z" />
    <glyph glyph-name="dcroat" unicode="&#x111;" horiz-adv-x="637" 
d="M577 720v-57h61v-110h-61v-553h-161l-4 37l2 32h-2q-17 -36 -60.5 -59.5t-95.5 -23.5q-99 0 -166 71t-67 193t66 193t163 71q49 0 88 -18t60 -47h2q-3 13 -3 42v62h-138v110h138v57h178zM291 366q-44 0 -72.5 -32t-28.5 -84t29 -84t72 -32q42 0 71.5 31t29.5 85t-29.5 85
t-71.5 31z" />
    <glyph glyph-name="Emacron" unicode="&#x112;" horiz-adv-x="586" 
d="M557 0h-487v720h472v-154h-289v-128h247v-146h-247v-138h304v-154zM125 814v131h363v-131h-363z" />
    <glyph glyph-name="emacron" unicode="&#x113;" horiz-adv-x="540" 
d="M282 514q113 0 174.5 -67.5t61.5 -166.5q0 -21 -5 -66h-305q11 -80 120 -80q49 0 99 11t70 21v-149q-64 -31 -186 -31q-132 0 -210 73.5t-78 190.5q0 114 74 189t185 75zM350 296q1 35 -17 58t-53 23q-34 0 -53 -23t-20 -58h143zM103 579v128h343v-128h-343z" />
    <glyph glyph-name="Ebreve" unicode="&#x114;" horiz-adv-x="586" 
d="M557 0h-487v720h472v-154h-289v-128h247v-146h-247v-138h304v-154zM346 962h128q1 -81 -41.5 -127t-125.5 -46q-84 0 -126.5 46t-40.5 127h127q-2 -56 40 -56t39 56z" />
    <glyph glyph-name="ebreve" unicode="&#x115;" horiz-adv-x="540" 
d="M282 514q113 0 174.5 -67.5t61.5 -166.5q0 -21 -5 -66h-305q11 -80 120 -80q49 0 99 11t70 21v-149q-64 -31 -186 -31q-132 0 -210 73.5t-78 190.5q0 114 74 189t185 75zM350 296q1 35 -17 58t-53 23q-34 0 -53 -23t-20 -58h143zM309 732h128q1 -80 -40 -124.5
t-123 -44.5q-81 0 -122 44.5t-40 124.5h128q-2 -24 7.5 -38t26.5 -14q38 0 35 52z" />
    <glyph glyph-name="Edotaccent" unicode="&#x116;" horiz-adv-x="586" 
d="M557 0h-487v720h472v-154h-289v-128h247v-146h-247v-138h304v-154zM211 880q0 43 26 67.5t70 24.5t70 -24.5t26 -67.5t-26 -68t-70 -25t-70 25t-26 68z" />
    <glyph glyph-name="edotaccent" unicode="&#x117;" horiz-adv-x="540" 
d="M282 514q113 0 174.5 -67.5t61.5 -166.5q0 -21 -5 -66h-305q11 -80 120 -80q49 0 99 11t70 21v-149q-64 -31 -186 -31q-132 0 -210 73.5t-78 190.5q0 114 74 189t185 75zM350 296q1 35 -17 58t-53 23q-34 0 -53 -23t-20 -58h143zM185 643q0 43 26 67.5t70 24.5t70 -24.5
t26 -67.5t-26 -68t-70 -25t-70 25t-26 68z" />
    <glyph glyph-name="Eogonek" unicode="&#x118;" horiz-adv-x="586" 
d="M557 0h-2q-70 -48 -70 -97q0 -33 35 -33q14 0 40 7v-102q-23 -9 -66 -9q-63 0 -101.5 25.5t-38.5 77.5q0 39 34 72.5t88 58.5h-406v720h472v-154h-289v-128h247v-146h-247v-138h304v-154z" />
    <glyph glyph-name="eogonek" unicode="&#x119;" horiz-adv-x="540" 
d="M282 514q113 0 174.5 -67.5t61.5 -166.5q0 -21 -5 -66h-305q11 -80 120 -80q49 0 99 11t70 21v-149q-17 -9 -52 -17q-70 -48 -70 -97q0 -33 35 -33q14 0 40 7v-102q-23 -9 -66 -9q-63 0 -101.5 25.5t-38.5 77.5q0 64 96 118q-10 -1 -29 -1q-132 0 -210 73.5t-78 190.5
q0 114 74 189t185 75zM350 296q1 35 -17 58t-53 23q-34 0 -53 -23t-20 -58h143z" />
    <glyph glyph-name="Ecaron" unicode="&#x11a;" horiz-adv-x="586" 
d="M557 0h-487v720h472v-154h-289v-128h247v-146h-247v-138h304v-154zM501 982l-101 -200h-187l-100 200h148l46 -108l46 108h148z" />
    <glyph glyph-name="ecaron" unicode="&#x11b;" horiz-adv-x="540" 
d="M282 514q113 0 174.5 -67.5t61.5 -166.5q0 -21 -5 -66h-305q11 -80 120 -80q49 0 99 11t70 21v-149q-64 -31 -186 -31q-132 0 -210 73.5t-78 190.5q0 114 74 189t185 75zM350 296q1 35 -17 58t-53 23q-34 0 -53 -23t-20 -58h143zM457 734l-87 -173h-192l-88 173h146
l38 -90l37 90h146z" />
    <glyph glyph-name="Gcircumflex" unicode="&#x11c;" horiz-adv-x="712" 
d="M669 40q-108 -54 -250 -54q-172 0 -281.5 107t-109.5 267q0 158 109 266t275 108q131 0 231 -48v-167q-105 48 -215 48q-100 0 -158 -60t-58 -147q0 -88 56.5 -148.5t150.5 -60.5q39 0 75 9v178h175v-298zM205 782l100 200h187l101 -200h-148l-46 108l-46 -108h-148z" />
    <glyph glyph-name="gcircumflex" unicode="&#x11d;" horiz-adv-x="535" 
d="M227 122q0 -12 23 -18.5t76 -14.5q107 -16 153 -49t46 -100q0 -80 -75 -125.5t-199 -45.5q-109 0 -177.5 34t-68.5 96q0 40 33.5 70.5t86.5 43.5q-30 6 -49.5 24t-19.5 46q0 25 21.5 48.5t61.5 36.5q-53 22 -84 64t-31 98q0 83 64 133.5t159 50.5q51 0 89 -14h188v-125
h-52q-7 1 -19 3q12 -21 12 -48q0 -70 -46.5 -117t-120.5 -60q-71 -14 -71 -31zM247 259q29 0 46.5 18.5t17.5 47.5t-17.5 48t-46.5 19q-28 0 -45.5 -19t-17.5 -48t17.5 -47.5t45.5 -18.5zM256 -123q39 0 66 13.5t27 36.5q0 49 -98 49q-33 0 -55 -14.5t-22 -36.5
q0 -23 23 -35.5t59 -12.5zM68 561l88 173h192l87 -173h-146l-37 90l-38 -90h-146z" />
    <glyph glyph-name="Gbreve" unicode="&#x11e;" horiz-adv-x="712" 
d="M669 40q-108 -54 -250 -54q-172 0 -281.5 107t-109.5 267q0 158 109 266t275 108q131 0 231 -48v-167q-105 48 -215 48q-100 0 -158 -60t-58 -147q0 -88 56.5 -148.5t150.5 -60.5q39 0 75 9v178h175v-298zM444 962h128q1 -81 -41.5 -127t-125.5 -46q-84 0 -126.5 46
t-40.5 127h127q-2 -56 40 -56t39 56z" />
    <glyph glyph-name="gbreve" unicode="&#x11f;" horiz-adv-x="535" 
d="M227 122q0 -12 23 -18.5t76 -14.5q107 -16 153 -49t46 -100q0 -80 -75 -125.5t-199 -45.5q-109 0 -177.5 34t-68.5 96q0 40 33.5 70.5t86.5 43.5q-30 6 -49.5 24t-19.5 46q0 25 21.5 48.5t61.5 36.5q-53 22 -84 64t-31 98q0 83 64 133.5t159 50.5q51 0 89 -14h188v-125
h-52q-7 1 -19 3q12 -21 12 -48q0 -70 -46.5 -117t-120.5 -60q-71 -14 -71 -31zM247 259q29 0 46.5 18.5t17.5 47.5t-17.5 48t-46.5 19q-28 0 -45.5 -19t-17.5 -48t17.5 -47.5t45.5 -18.5zM256 -123q39 0 66 13.5t27 36.5q0 49 -98 49q-33 0 -55 -14.5t-22 -36.5
q0 -23 23 -35.5t59 -12.5zM285 732h128q1 -80 -40 -124.5t-123 -44.5q-81 0 -122 44.5t-40 124.5h128q-2 -24 7.5 -38t26.5 -14q38 0 35 52z" />
    <glyph glyph-name="Gdotaccent" unicode="&#x120;" horiz-adv-x="712" 
d="M669 40q-108 -54 -250 -54q-172 0 -281.5 107t-109.5 267q0 158 109 266t275 108q131 0 231 -48v-167q-105 48 -215 48q-100 0 -158 -60t-58 -147q0 -88 56.5 -148.5t150.5 -60.5q39 0 75 9v178h175v-298zM301 880q0 43 26 67.5t70 24.5t70 -24.5t26 -67.5t-26 -68
t-70 -25t-70 25t-26 68z" />
    <glyph glyph-name="gdotaccent" unicode="&#x121;" horiz-adv-x="535" 
d="M227 122q0 -12 23 -18.5t76 -14.5q107 -16 153 -49t46 -100q0 -80 -75 -125.5t-199 -45.5q-109 0 -177.5 34t-68.5 96q0 40 33.5 70.5t86.5 43.5q-30 6 -49.5 24t-19.5 46q0 25 21.5 48.5t61.5 36.5q-53 22 -84 64t-31 98q0 83 64 133.5t159 50.5q51 0 89 -14h188v-125
h-52q-7 1 -19 3q12 -21 12 -48q0 -70 -46.5 -117t-120.5 -60q-71 -14 -71 -31zM247 259q29 0 46.5 18.5t17.5 47.5t-17.5 48t-46.5 19q-28 0 -45.5 -19t-17.5 -48t17.5 -47.5t45.5 -18.5zM256 -123q39 0 66 13.5t27 36.5q0 49 -98 49q-33 0 -55 -14.5t-22 -36.5
q0 -23 23 -35.5t59 -12.5zM155 643q0 43 26 67.5t70 24.5t70 -24.5t26 -67.5t-26 -68t-70 -25t-70 25t-26 68z" />
    <glyph glyph-name="Gcommaaccent" unicode="&#x122;" horiz-adv-x="712" 
d="M669 40q-108 -54 -250 -54q-172 0 -281.5 107t-109.5 267q0 158 109 266t275 108q131 0 231 -48v-167q-105 48 -215 48q-100 0 -158 -60t-58 -147q0 -88 56.5 -148.5t150.5 -60.5q39 0 75 9v178h175v-298zM499 -51l-75 -183h-136l34 183h177z" />
    <glyph glyph-name="gcommaaccent" unicode="&#x123;" horiz-adv-x="535" 
d="M227 122q0 -12 23 -18.5t76 -14.5q107 -16 153 -49t46 -100q0 -80 -75 -125.5t-199 -45.5q-109 0 -177.5 34t-68.5 96q0 40 33.5 70.5t86.5 43.5q-30 6 -49.5 24t-19.5 46q0 25 21.5 48.5t61.5 36.5q-53 22 -84 64t-31 98q0 83 64 133.5t159 50.5q51 0 89 -14h188v-125
h-52q-7 1 -19 3q12 -21 12 -48q0 -70 -46.5 -117t-120.5 -60q-71 -14 -71 -31zM247 259q29 0 46.5 18.5t17.5 47.5t-17.5 48t-46.5 19q-28 0 -45.5 -19t-17.5 -48t17.5 -47.5t45.5 -18.5zM256 -123q39 0 66 13.5t27 36.5q0 49 -98 49q-33 0 -55 -14.5t-22 -36.5
q0 -23 23 -35.5t59 -12.5zM157 555l75 183h136l-34 -183h-177z" />
    <glyph glyph-name="Hcircumflex" unicode="&#x124;" horiz-adv-x="771" 
d="M712 0h-184v289h-266v-289h-183v720h183v-278h266v278h184v-720zM190 782l100 200h187l101 -200h-148l-46 108l-46 -108h-148z" />
    <glyph glyph-name="hcircumflex" unicode="&#x125;" horiz-adv-x="614" 
d="M59 720h175v-233q0 -37 -2 -57q25 34 66 59t89 25q82 0 128.5 -51t46.5 -151v-312h-178v285q0 69 -54 69q-42 0 -67 -29t-25 -74v-251h-179v720zM-37 765l88 173h192l87 -173h-146l-37 90l-38 -90h-146z" />
    <glyph glyph-name="Hbar" unicode="&#x126;" horiz-adv-x="830" 
d="M23 530v111h85v79h183v-79h266v79h184v-79h66v-111h-66v-530h-184v289h-266v-289h-183v530h-85zM291 442h266v88h-266v-88z" />
    <glyph glyph-name="hbar" unicode="&#x127;" horiz-adv-x="614" 
d="M59 720h175v-57h126v-110h-126v-66q0 -37 -2 -57q25 34 66 59t89 25q82 0 128.5 -51t46.5 -151v-312h-178v285q0 69 -54 69q-42 0 -67 -29t-25 -74v-251h-179v553h-60v110h60v57z" />
    <glyph glyph-name="Itilde" unicode="&#x128;" horiz-adv-x="322" 
d="M253 0h-183v720h183v-720zM79 962q29 0 83 -15t82 -15q58 0 96 36v-132q-10 -15 -38 -26.5t-61 -11.5q-29 0 -83 15.5t-82 15.5q-55 0 -97 -36v131q11 15 39 26.5t61 11.5z" />
    <glyph glyph-name="itilde" unicode="&#x129;" horiz-adv-x="297" 
d="M69 728q29 0 81 -15.5t81 -15.5q57 0 97 36v-128q-11 -15 -39 -26.5t-61 -11.5q-28 0 -81 15.5t-81 15.5q-54 0 -96 -36v128q11 15 39 26.5t60 11.5zM59 500h179v-500h-179v500z" />
    <glyph glyph-name="Imacron" unicode="&#x12a;" horiz-adv-x="322" 
d="M253 0h-183v720h183v-720zM-21 814v131h363v-131h-363z" />
    <glyph glyph-name="imacron" unicode="&#x12b;" horiz-adv-x="297" 
d="M-22 579v128h342v-128h-342zM59 500h179v-500h-179v500z" />
    <glyph glyph-name="Ibreve" unicode="&#x12c;" horiz-adv-x="322" 
d="M253 0h-183v720h183v-720zM200 962h128q1 -81 -41.5 -127t-125.5 -46q-84 0 -126.5 46t-40.5 127h127q-2 -56 40 -56t39 56z" />
    <glyph glyph-name="ibreve" unicode="&#x12d;" horiz-adv-x="297" 
d="M183 732h128q1 -80 -40 -124.5t-122 -44.5t-122.5 44.5t-40.5 124.5h128q-3 -52 35 -52q17 0 26.5 14t7.5 38zM59 500h179v-500h-179v500z" />
    <glyph glyph-name="Iogonek" unicode="&#x12e;" horiz-adv-x="322" 
d="M253 0q-70 -48 -70 -97q0 -33 35 -33q14 0 40 7v-102q-23 -9 -66 -9q-63 0 -101.5 25.5t-38.5 77.5q0 39 34 72.5t88 58.5h-104v720h183v-720z" />
    <glyph glyph-name="iogonek" unicode="&#x12f;" horiz-adv-x="297" 
d="M59 500h179v-500q-70 -48 -70 -97q0 -33 35 -33q14 0 40 7v-102q-23 -9 -66 -9q-63 0 -101.5 25.5t-38.5 77.5q0 39 34 72.5t88 58.5h-100v500zM53 643q0 43 26 67.5t70 24.5t69.5 -24.5t25.5 -67.5t-25.5 -68t-69.5 -25t-70 25t-26 68z" />
    <glyph glyph-name="Idotaccent" unicode="&#x130;" horiz-adv-x="322" 
d="M253 0h-183v720h183v-720zM64 880q0 43 26 67.5t70 24.5t70 -24.5t26 -67.5t-26 -68t-70 -25t-70 25t-26 68z" />
    <glyph glyph-name="dotlessi" unicode="&#x131;" horiz-adv-x="297" 
d="M59 500h179v-500h-179v500z" />
    <glyph glyph-name="IJ" unicode="&#x132;" horiz-adv-x="744" 
d="M253 0h-183v720h183v-720zM674 720v-505q0 -121 -59 -175t-171 -54q-68 0 -104 18v151q32 -16 72 -16q78 0 78 74v507h184z" />
    <glyph glyph-name="ij" unicode="&#x133;" horiz-adv-x="595" 
d="M59 500h179v-500h-179v500zM535 500v-546q0 -92 -50.5 -140t-145.5 -48q-59 0 -83 12v154q14 -6 40 -6q61 0 61 63v511h178zM53 643q0 43 26 67.5t70 24.5t69.5 -24.5t25.5 -67.5t-25.5 -68t-69.5 -25t-70 25t-26 68zM350 643q0 43 26 67.5t70 24.5t70 -24.5t26 -67.5
t-26 -68t-70 -25t-70 25t-26 68z" />
    <glyph glyph-name="Jcircumflex" unicode="&#x134;" horiz-adv-x="422" 
d="M352 720v-505q0 -121 -59 -175t-171 -54q-68 0 -104 18v151q32 -16 72 -16q78 0 78 74v507h184zM66 782l100 200h187l101 -200h-148l-46 108l-46 -108h-148z" />
    <glyph glyph-name="jcircumflex" unicode="&#x135;" horiz-adv-x="297" 
d="M238 500v-546q0 -92 -50.5 -140t-145.5 -48q-61 0 -83 12v154q14 -6 39 -6q61 0 61 63v511h179zM-35 561l88 173h192l87 -173h-146l-37 90l-38 -90h-146z" />
    <glyph glyph-name="Kcommaaccent" unicode="&#x136;" horiz-adv-x="709" 
d="M253 720v-317l248 317h214l-250 -307l254 -413h-203l-175 297l-88 -104v-193h-183v720h183zM467 -51l-75 -183h-136l34 183h177z" />
    <glyph glyph-name="kcommaaccent" unicode="&#x137;" horiz-adv-x="594" 
d="M579 500l-163 -217l171 -283h-200l-108 196l-45 -57v-139h-175v720h179v-404l136 184h205zM405 -51l-75 -183h-136l34 183h177z" />
    <glyph glyph-name="kgreenlandic" unicode="&#x138;" horiz-adv-x="594" 
d="M579 500l-163 -217l171 -283h-200l-108 196l-45 -57v-139h-175v500h179v-184l136 184h205z" />
    <glyph glyph-name="Lacute" unicode="&#x139;" horiz-adv-x="529" 
d="M513 0h-443v720h183v-566h260v-154zM86 781l83 203h217l-158 -203h-142z" />
    <glyph glyph-name="lacute" unicode="&#x13a;" horiz-adv-x="346" 
d="M55 151v569h178v-529q0 -55 46 -55q24 0 53 13v-147q-37 -16 -109 -16q-75 0 -121.5 40t-46.5 125zM62 765l80 173h224l-149 -173h-155z" />
    <glyph glyph-name="Lcommaaccent" unicode="&#x13b;" horiz-adv-x="529" 
d="M513 0h-443v720h183v-566h260v-154zM388 -51l-75 -183h-136l34 183h177z" />
    <glyph glyph-name="lcommaaccent" unicode="&#x13c;" horiz-adv-x="346" 
d="M55 151v569h178v-529q0 -55 46 -55q24 0 53 13v-147q-37 -16 -109 -16q-75 0 -121.5 40t-46.5 125zM289 -51l-75 -183h-136l34 183h177z" />
    <glyph glyph-name="Lcaron" unicode="&#x13d;" horiz-adv-x="529" 
d="M513 0h-443v720h183v-566h260v-154zM327 454v315h162v-315h-162z" />
    <glyph glyph-name="lcaron" unicode="&#x13e;" horiz-adv-x="463" 
d="M56 151v569h178v-529q0 -55 46 -55q24 0 53 13v-147q-37 -16 -109 -16q-75 0 -121.5 40t-46.5 125zM295 403v315h162v-315h-162z" />
    <glyph glyph-name="Ldot" unicode="&#x13f;" horiz-adv-x="536" 
d="M513 0h-443v720h183v-566h260v-154zM323 354q0 43 26 67.5t70 24.5t70 -24.5t26 -67.5t-26 -68t-70 -25t-70 25t-26 68z" />
    <glyph glyph-name="ldot" unicode="&#x140;" horiz-adv-x="482" 
d="M55 151v569h178v-529q0 -55 46 -55q24 0 53 13v-147q-37 -16 -109 -16q-75 0 -121.5 40t-46.5 125zM289 354q0 43 26 67.5t70 24.5t70 -24.5t26 -67.5t-26 -68t-70 -25t-70 25t-26 68z" />
    <glyph glyph-name="Lslash" unicode="&#x141;" horiz-adv-x="546" 
d="M10 222v84l76 51v363h183v-239l91 62v-84l-91 -62v-243h260v-154h-443v273z" />
    <glyph glyph-name="lslash" unicode="&#x142;" horiz-adv-x="364" 
d="M-4 225v85l70 47v363h178v-244l69 47v-85l-69 -47v-200q0 -55 46 -55q24 0 53 13v-147q-37 -16 -109 -16q-75 0 -121.5 40t-46.5 125v121z" />
    <glyph glyph-name="Nacute" unicode="&#x143;" horiz-adv-x="752" 
d="M683 -10h-7l-369 325l-58 48v-363h-179v730h8l366 -324q8 -6 28 -23.5t31 -25.5v363h180v-730zM274 781l83 203h217l-158 -203h-142z" />
    <glyph glyph-name="nacute" unicode="&#x144;" horiz-adv-x="614" 
d="M59 500h162l5 -51q3 -19 -4 -32h2q18 37 64.5 67t98.5 30q82 0 128.5 -51t46.5 -151v-312h-178v285q0 69 -54 69q-42 0 -67 -29t-25 -74v-251h-179v500zM222 561l80 173h224l-149 -173h-155z" />
    <glyph glyph-name="Ncommaaccent" unicode="&#x145;" horiz-adv-x="752" 
d="M683 -10h-7l-369 325l-58 48v-363h-179v730h8l366 -324q8 -6 28 -23.5t31 -25.5v363h180v-730zM495 -51l-75 -183h-136l34 183h177z" />
    <glyph glyph-name="ncommaaccent" unicode="&#x146;" horiz-adv-x="614" 
d="M59 500h162l5 -51q3 -19 -4 -32h2q18 37 64.5 67t98.5 30q82 0 128.5 -51t46.5 -151v-312h-178v285q0 69 -54 69q-42 0 -67 -29t-25 -74v-251h-179v500zM408 -51l-75 -183h-136l34 183h177z" />
    <glyph glyph-name="Ncaron" unicode="&#x147;" horiz-adv-x="752" 
d="M683 -10h-7l-369 325l-58 48v-363h-179v730h8l366 -324q8 -6 28 -23.5t31 -25.5v363h180v-730zM570 982l-101 -200h-187l-100 200h148l46 -108l46 108h148z" />
    <glyph glyph-name="ncaron" unicode="&#x148;" horiz-adv-x="614" 
d="M59 500h162l5 -51q3 -19 -4 -32h2q18 37 64.5 67t98.5 30q82 0 128.5 -51t46.5 -151v-312h-178v285q0 69 -54 69q-42 0 -67 -29t-25 -74v-251h-179v500zM498 734l-87 -173h-192l-88 173h146l38 -90l37 90h146z" />
    <glyph glyph-name="Omacron" unicode="&#x14c;" horiz-adv-x="819" 
d="M28 360q0 157 108.5 265.5t272.5 108.5q165 0 273 -108.5t108 -265.5q0 -158 -108 -266t-273 -108t-273 108t-108 266zM212 360q0 -86 55.5 -146.5t141.5 -60.5t141 60.5t55 146.5q0 85 -55 146t-141 61t-141.5 -61t-55.5 -146zM228 814v131h363v-131h-363z" />
    <glyph glyph-name="omacron" unicode="&#x14d;" 
d="M294 514q118 0 194.5 -75t76.5 -189t-76.5 -189t-194.5 -75t-194.5 75t-76.5 189t76.5 189t194.5 75zM294 134q44 0 74 32t30 84t-30 84t-74 32q-45 0 -74.5 -32t-29.5 -84t29.5 -84t74.5 -32zM122 579v128h343v-128h-343z" />
    <glyph glyph-name="Obreve" unicode="&#x14e;" horiz-adv-x="819" 
d="M28 360q0 157 108.5 265.5t272.5 108.5q165 0 273 -108.5t108 -265.5q0 -158 -108 -266t-273 -108t-273 108t-108 266zM212 360q0 -86 55.5 -146.5t141.5 -60.5t141 60.5t55 146.5q0 85 -55 146t-141 61t-141.5 -61t-55.5 -146zM448 962h128q1 -81 -41.5 -127t-125.5 -46
q-84 0 -126.5 46t-40.5 127h127q-2 -56 40 -56t39 56z" />
    <glyph glyph-name="obreve" unicode="&#x14f;" 
d="M294 514q118 0 194.5 -75t76.5 -189t-76.5 -189t-194.5 -75t-194.5 75t-76.5 189t76.5 189t194.5 75zM294 134q44 0 74 32t30 84t-30 84t-74 32q-45 0 -74.5 -32t-29.5 -84t29.5 -84t74.5 -32zM328 732h128q1 -80 -40.5 -124.5t-122.5 -44.5t-122 44.5t-40 124.5h128
q-2 -24 7.5 -38t26.5 -14q38 0 35 52z" />
    <glyph glyph-name="Ohungarumlaut" unicode="&#x150;" horiz-adv-x="819" 
d="M28 360q0 157 108.5 265.5t272.5 108.5q165 0 273 -108.5t108 -265.5q0 -158 -108 -266t-273 -108t-273 108t-108 266zM212 360q0 -86 55.5 -146.5t141.5 -60.5t141 60.5t55 146.5q0 85 -55 146t-141 61t-141.5 -61t-55.5 -146zM232 781l54 198h190l-100 -198h-144z
M440 781l103 198h202l-157 -198h-148z" />
    <glyph glyph-name="ohungarumlaut" unicode="&#x151;" 
d="M294 514q118 0 194.5 -75t76.5 -189t-76.5 -189t-194.5 -75t-194.5 75t-76.5 189t76.5 189t194.5 75zM294 134q44 0 74 32t30 84t-30 84t-74 32q-45 0 -74.5 -32t-29.5 -84t29.5 -84t74.5 -32zM106 561l54 173h190l-100 -173h-144zM314 561l103 173h202l-157 -173h-148z
" />
    <glyph glyph-name="OE" unicode="&#x152;" horiz-adv-x="1014" 
d="M550 720h423v-154h-243v-128h198v-146h-198v-138h258v-154h-438v30q-70 -44 -159 -44q-155 0 -259 108t-104 266q0 156 104 265t259 109q88 0 159 -43v29zM404 153q95 0 146 68v276q-50 70 -146 70q-82 0 -137 -59t-55 -148q0 -90 54.5 -148.5t137.5 -58.5z" />
    <glyph glyph-name="oe" unicode="&#x153;" horiz-adv-x="822" 
d="M569 514q111 0 171 -67.5t60 -166.5q0 -17 -2.5 -40.5t-2.5 -25.5h-296q11 -80 116 -80q47 0 96 11t69 21v-149q-64 -31 -182 -31q-86 0 -157 43q-65 -43 -148 -43q-117 0 -193.5 75t-76.5 189t76.5 189t193.5 75q79 0 142 -41q60 41 134 41zM293 134q22 0 44 11
q-22 48 -22 105t22 104q-20 12 -44 12q-44 0 -73.5 -32t-29.5 -84t29.5 -84t73.5 -32zM632 296q2 35 -15.5 58t-49.5 23t-50 -23t-19 -58h134z" />
    <glyph glyph-name="Racute" unicode="&#x154;" horiz-adv-x="665" 
d="M70 720h262q133 0 212 -63.5t79 -181.5q0 -75 -35 -128t-97 -80l145 -267h-191l-116 237h-80v-237h-179v720zM340 566h-91v-183h92q44 0 70.5 22.5t26.5 69.5q0 45 -27 68t-71 23zM216 781l83 203h217l-158 -203h-142z" />
    <glyph glyph-name="racute" unicode="&#x155;" horiz-adv-x="415" 
d="M58 0v500h162q0 -2 3 -38q2 -27 3 -31q24 36 62 59.5t82 23.5q7 0 14.5 -0.5t12.5 -1.5h5v-174h-2l-5 2.5t-7 2.5t-10 1.5t-12 0.5q-52 0 -91 -36t-39 -99v-210h-178zM140 561l80 173h224l-149 -173h-155z" />
    <glyph glyph-name="Rcommaaccent" unicode="&#x156;" horiz-adv-x="665" 
d="M70 720h262q133 0 212 -63.5t79 -181.5q0 -75 -35 -128t-97 -80l145 -267h-191l-116 237h-80v-237h-179v720zM340 566h-91v-183h92q44 0 70.5 22.5t26.5 69.5q0 45 -27 68t-71 23zM430 -51l-75 -183h-136l34 183h177z" />
    <glyph glyph-name="rcommaaccent" unicode="&#x157;" horiz-adv-x="415" 
d="M58 0v500h162q0 -2 3 -38q2 -27 3 -31q24 36 62 59.5t82 23.5q7 0 14.5 -0.5t12.5 -1.5h5v-174h-2l-5 2.5t-7 2.5t-10 1.5t-12 0.5q-52 0 -91 -36t-39 -99v-210h-178zM240 -51l-75 -183h-136l34 183h177z" />
    <glyph glyph-name="Rcaron" unicode="&#x158;" horiz-adv-x="665" 
d="M70 720h262q133 0 212 -63.5t79 -181.5q0 -75 -35 -128t-97 -80l145 -267h-191l-116 237h-80v-237h-179v720zM340 566h-91v-183h92q44 0 70.5 22.5t26.5 69.5q0 45 -27 68t-71 23zM494 982l-101 -200h-187l-100 200h148l46 -108l46 108h148z" />
    <glyph glyph-name="rcaron" unicode="&#x159;" horiz-adv-x="415" 
d="M58 0v500h162q0 -2 3 -38q2 -27 3 -31q24 36 62 59.5t82 23.5q7 0 14.5 -0.5t12.5 -1.5h5v-174h-2l-5 2.5t-7 2.5t-10 1.5t-12 0.5q-52 0 -91 -36t-39 -99v-210h-178zM403 734l-87 -173h-192l-88 173h146l38 -90l37 90h146z" />
    <glyph glyph-name="Sacute" unicode="&#x15a;" horiz-adv-x="558" 
d="M259 -14q-126 0 -218 39v176q84 -45 170 -52q27 -3 57 -1q92 6 92 50q0 26 -29 44t-104 46q-102 39 -150.5 87.5t-48.5 140.5q0 99 75 158.5t198 59.5q110 0 192 -34v-169q-72 45 -177 45q-49 0 -78.5 -16t-29.5 -43q0 -24 29 -43.5t97 -47.5q104 -41 154 -89.5
t50 -137.5q0 -100 -73 -156.5t-206 -56.5zM187 781l83 203h217l-158 -203h-142z" />
    <glyph glyph-name="sacute" unicode="&#x15b;" horiz-adv-x="459" 
d="M270 151q0 13 -16.5 21t-57.5 19q-80 21 -122 58t-42 107q0 74 52 116t144 42q97 0 173 -30v-151q-57 29 -126 38q-30 2 -43 1q-37 -5 -37 -25q0 -23 65 -40q92 -23 132.5 -59.5t40.5 -104.5q0 -75 -57.5 -116t-160.5 -41q-96 0 -174 32v155q35 -20 85.5 -34.5
t86.5 -14.5q57 0 57 27zM137 561l80 173h224l-149 -173h-155z" />
    <glyph glyph-name="Scircumflex" unicode="&#x15c;" horiz-adv-x="558" 
d="M259 -14q-126 0 -218 39v176q84 -45 170 -52q27 -3 57 -1q92 6 92 50q0 26 -29 44t-104 46q-102 39 -150.5 87.5t-48.5 140.5q0 99 75 158.5t198 59.5q110 0 192 -34v-169q-72 45 -177 45q-49 0 -78.5 -16t-29.5 -43q0 -24 29 -43.5t97 -47.5q104 -41 154 -89.5
t50 -137.5q0 -100 -73 -156.5t-206 -56.5zM84 782l100 200h187l101 -200h-148l-46 108l-46 -108h-148z" />
    <glyph glyph-name="scircumflex" unicode="&#x15d;" horiz-adv-x="459" 
d="M270 151q0 13 -16.5 21t-57.5 19q-80 21 -122 58t-42 107q0 74 52 116t144 42q97 0 173 -30v-151q-57 29 -126 38q-30 2 -43 1q-37 -5 -37 -25q0 -23 65 -40q92 -23 132.5 -59.5t40.5 -104.5q0 -75 -57.5 -116t-160.5 -41q-96 0 -174 32v155q35 -20 85.5 -34.5
t86.5 -14.5q57 0 57 27zM48 561l88 173h192l87 -173h-146l-37 90l-38 -90h-146z" />
    <glyph glyph-name="Scedilla" unicode="&#x15e;" horiz-adv-x="558" 
d="M538 199q0 -91 -60.5 -146t-172.5 -65l-10 -30q38 -3 68 -28.5t30 -68.5q0 -47 -37.5 -71t-101.5 -24q-55 0 -75 10v97q25 -7 42 -7q39 0 39 24q0 15 -19.5 21t-48.5 2l30 74q-108 6 -181 38v176q84 -45 170 -52q27 -3 57 -1q92 6 92 50q0 26 -29 44t-104 46
q-102 39 -150.5 87.5t-48.5 140.5q0 99 75 158.5t198 59.5q110 0 192 -34v-169q-72 45 -177 45q-49 0 -78.5 -16t-29.5 -43q0 -24 29 -43.5t97 -47.5q104 -41 154 -89.5t50 -137.5z" />
    <glyph glyph-name="scedilla" unicode="&#x15f;" horiz-adv-x="459" 
d="M270 151q0 13 -16.5 21t-57.5 19q-80 21 -122 58t-42 107q0 74 52 116t144 42q97 0 173 -30v-151q-57 29 -126 38q-30 2 -43 1q-37 -5 -37 -25q0 -23 65 -40q92 -23 132.5 -59.5t40.5 -104.5q0 -66 -45 -106t-127 -49l-10 -30q38 -3 68 -28.5t30 -68.5q0 -47 -37.5 -71
t-101.5 -24q-55 0 -75 10v97q25 -7 42 -7q39 0 39 24q0 15 -19.5 21t-48.5 2l30 74q-79 6 -137 31v155q35 -20 85.5 -34.5t86.5 -14.5q57 0 57 27z" />
    <glyph glyph-name="Scaron" unicode="&#x160;" horiz-adv-x="558" 
d="M259 -14q-126 0 -218 39v176q84 -45 170 -52q27 -3 57 -1q92 6 92 50q0 26 -29 44t-104 46q-102 39 -150.5 87.5t-48.5 140.5q0 99 75 158.5t198 59.5q110 0 192 -34v-169q-72 45 -177 45q-49 0 -78.5 -16t-29.5 -43q0 -24 29 -43.5t97 -47.5q104 -41 154 -89.5
t50 -137.5q0 -100 -73 -156.5t-206 -56.5zM474 982l-101 -200h-187l-100 200h148l46 -108l46 108h148z" />
    <glyph glyph-name="scaron" unicode="&#x161;" horiz-adv-x="459" 
d="M270 151q0 13 -16.5 21t-57.5 19q-80 21 -122 58t-42 107q0 74 52 116t144 42q97 0 173 -30v-151q-57 29 -126 38q-30 2 -43 1q-37 -5 -37 -25q0 -23 65 -40q92 -23 132.5 -59.5t40.5 -104.5q0 -75 -57.5 -116t-160.5 -41q-96 0 -174 32v155q35 -20 85.5 -34.5
t86.5 -14.5q57 0 57 27zM412 734l-87 -173h-192l-88 173h146l38 -90l37 90h146z" />
    <glyph glyph-name="Tcommaaccent" unicode="&#x162;" 
d="M578 566h-192v-566h-54l-13 -42q38 -3 68 -28.5t30 -68.5q0 -47 -37.5 -71t-101.5 -24q-55 0 -75 10v97q25 -7 42 -7q39 0 39 24q0 15 -19.5 21t-48.5 2l35 87h-49v566h-192v154h568v-154z" />
    <glyph glyph-name="tcommaaccent" unicode="&#x163;" horiz-adv-x="393" 
d="M4 500h65v150h173v-150h124v-138h-124v-171q0 -59 60 -59q36 0 80 20v-144q-40 -19 -119 -22l-9 -28q38 -3 68 -28.5t30 -68.5q0 -47 -37.5 -71t-101.5 -24q-55 0 -75 10v97q24 -7 42 -7q39 0 39 24q0 15 -19.5 21t-48.5 2l32 82q-96 26 -113 128q-4 32 -4 53v186h-62
v138z" />
    <glyph glyph-name="Tcaron" unicode="&#x164;" 
d="M578 566h-192v-566h-184v566h-192v154h568v-154zM488 982l-101 -200h-187l-100 200h148l46 -108l46 108h148z" />
    <glyph glyph-name="tcaron" unicode="&#x165;" horiz-adv-x="457" 
d="M288 544v304h162v-304h-162zM4 500h65v150h173v-150h124v-138h-124v-171q0 -59 60 -59q36 0 80 20v-144q-46 -22 -134 -22q-69 0 -117.5 33t-60.5 104q-4 32 -4 53v186h-62v138z" />
    <glyph glyph-name="Tbar" unicode="&#x166;" 
d="M578 566h-192v-136h109v-111h-109v-319h-184v319h-109v111h109v136h-192v154h568v-154z" />
    <glyph glyph-name="tbar" unicode="&#x167;" horiz-adv-x="393" 
d="M4 500h65v150h173v-150h124v-138h-124v-46h119v-111h-119v-14q0 -59 60 -59q36 0 80 20v-144q-46 -22 -134 -22q-69 0 -117.5 33t-60.5 104q-4 32 -4 53v29h-56v111h56v46h-62v138z" />
    <glyph glyph-name="Utilde" unicode="&#x168;" horiz-adv-x="750" 
d="M688 720v-453q0 -128 -83 -204.5t-230 -76.5q-146 0 -229.5 76.5t-83.5 204.5v453h183v-433q0 -64 33.5 -99t96.5 -35t96 35t33 99v433h184zM294 962q28 0 82 -15t83 -15q58 0 96 36v-132q-10 -15 -38 -26.5t-61 -11.5q-29 0 -83 15.5t-82 15.5q-55 0 -97 -36v131
q11 15 39 26.5t61 11.5z" />
    <glyph glyph-name="utilde" unicode="&#x169;" horiz-adv-x="614" 
d="M555 0h-162l-5 51q-1 17 4 32h-2q-18 -37 -64 -67t-98 -30q-82 0 -128.5 51t-46.5 151v312h179v-285q0 -69 54 -69q41 0 65.5 28.5t24.5 74.5v251h179v-500zM226 728q29 0 81.5 -15.5t80.5 -15.5q56 0 96 36v-128q-11 -15 -39 -26.5t-60 -11.5q-29 0 -81.5 15.5
t-80.5 15.5q-55 0 -97 -36v128q11 15 39 26.5t61 11.5z" />
    <glyph glyph-name="Umacron" unicode="&#x16a;" horiz-adv-x="750" 
d="M688 720v-453q0 -128 -83 -204.5t-230 -76.5q-146 0 -229.5 76.5t-83.5 204.5v453h183v-433q0 -64 33.5 -99t96.5 -35t96 35t33 99v433h184zM194 814v131h363v-131h-363z" />
    <glyph glyph-name="umacron" unicode="&#x16b;" horiz-adv-x="614" 
d="M555 0h-162l-5 51q-1 17 4 32h-2q-18 -37 -64 -67t-98 -30q-82 0 -128.5 51t-46.5 151v312h179v-285q0 -69 54 -69q41 0 65.5 28.5t24.5 74.5v251h179v-500zM135 579v128h343v-128h-343z" />
    <glyph glyph-name="Ubreve" unicode="&#x16c;" horiz-adv-x="750" 
d="M688 720v-453q0 -128 -83 -204.5t-230 -76.5q-146 0 -229.5 76.5t-83.5 204.5v453h183v-433q0 -64 33.5 -99t96.5 -35t96 35t33 99v433h184zM414 962h128q1 -81 -41.5 -127t-125.5 -46q-84 0 -126.5 46t-40.5 127h127q-2 -56 40 -56t39 56z" />
    <glyph glyph-name="ubreve" unicode="&#x16d;" horiz-adv-x="614" 
d="M555 0h-162l-5 51q-1 17 4 32h-2q-18 -37 -64 -67t-98 -30q-82 0 -128.5 51t-46.5 151v312h179v-285q0 -69 54 -69q41 0 65.5 28.5t24.5 74.5v251h179v-500zM336 732h128q1 -80 -40.5 -124.5t-122.5 -44.5t-122 44.5t-40 124.5h128q-2 -24 7.5 -38t26.5 -14q38 0 35 52z
" />
    <glyph glyph-name="Uring" unicode="&#x16e;" horiz-adv-x="750" 
d="M688 720v-453q0 -128 -83 -204.5t-230 -76.5q-146 0 -229.5 76.5t-83.5 204.5v453h183v-433q0 -64 33.5 -99t96.5 -35t96 35t33 99v433h184zM246 880q0 51 36.5 80.5t92.5 29.5q55 0 91.5 -29.5t36.5 -80.5t-36.5 -80.5t-91.5 -29.5q-56 0 -92.5 29.5t-36.5 80.5z
M342 880q0 -15 9 -24t24 -9q14 0 23 9.5t9 23.5t-9 22.5t-23 8.5q-15 0 -24 -8.5t-9 -22.5z" />
    <glyph glyph-name="uring" unicode="&#x16f;" horiz-adv-x="614" 
d="M555 0h-162l-5 51q-1 17 4 32h-2q-18 -37 -64 -67t-98 -30q-82 0 -128.5 51t-46.5 151v312h179v-285q0 -69 54 -69q41 0 65.5 28.5t24.5 74.5v251h179v-500zM172 643q0 51 36 78.5t93 27.5q56 0 92 -27.5t36 -78.5t-36 -79t-92 -28q-57 0 -93 28t-36 79zM268 643
q0 -31 33 -31q14 0 23 8.5t9 22.5q0 13 -9 21.5t-23 8.5q-33 0 -33 -30z" />
    <glyph glyph-name="Uhungarumlaut" unicode="&#x170;" horiz-adv-x="750" 
d="M688 720v-453q0 -128 -83 -204.5t-230 -76.5q-146 0 -229.5 76.5t-83.5 204.5v453h183v-433q0 -64 33.5 -99t96.5 -35t96 35t33 99v433h184zM187 781l54 198h190l-100 -198h-144zM395 781l103 198h202l-157 -198h-148z" />
    <glyph glyph-name="uhungarumlaut" unicode="&#x171;" horiz-adv-x="614" 
d="M555 0h-162l-5 51q-1 17 4 32h-2q-18 -37 -64 -67t-98 -30q-82 0 -128.5 51t-46.5 151v312h179v-285q0 -69 54 -69q41 0 65.5 28.5t24.5 74.5v251h179v-500zM120 561l54 173h190l-100 -173h-144zM328 561l103 173h202l-157 -173h-148z" />
    <glyph glyph-name="Uogonek" unicode="&#x172;" horiz-adv-x="750" 
d="M688 720v-453q0 -101 -52 -170.5t-148 -96.5h1q-70 -48 -70 -97q0 -33 35 -33q14 0 40 7v-102q-23 -9 -66 -9q-63 0 -101.5 25.5t-38.5 77.5q0 65 95 117h-8q-146 0 -229.5 76.5t-83.5 204.5v453h183v-433q0 -64 33.5 -99t96.5 -35t96 35t33 99v433h184z" />
    <glyph glyph-name="uogonek" unicode="&#x173;" horiz-adv-x="614" 
d="M555 0q-70 -48 -70 -97q0 -33 35 -33q14 0 40 7v-102q-23 -9 -66 -9q-63 0 -101.5 25.5t-38.5 77.5q0 39 34 72.5t88 58.5h-83l-5 51q-1 17 4 32h-2q-18 -37 -64 -67t-98 -30q-82 0 -128.5 51t-46.5 151v312h179v-285q0 -69 54 -69q41 0 65.5 28.5t24.5 74.5v251h179
v-500z" />
    <glyph glyph-name="Wcircumflex" unicode="&#x174;" horiz-adv-x="1022" 
d="M-5 720h205l89 -216q29 -66 55 -145q4 6 11 22t16 38.5t14 32.5l35 77l88 189h8q14 -30 43.5 -92.5t48 -101t39 -86t32.5 -79.5q6 12 146 361h205l-340 -730h-9l-135 287l-34 74q-33 -72 -34 -74l-135 -287h-9zM318 782l100 200h187l101 -200h-148l-46 108l-46 -108h-148
z" />
    <glyph glyph-name="wcircumflex" unicode="&#x175;" horiz-adv-x="790" 
d="M449 498l53 -158q13 -38 34 -124q4 7 17.5 58t18.5 67l52 159h186l-209 -503h-121l-85 240l-84 -240h-121l-209 503h186q7 -22 24 -73.5t26 -81t20 -67t16 -62.5q43 151 89 282h107zM212 561l88 173h192l87 -173h-146l-37 90l-38 -90h-146z" />
    <glyph glyph-name="Ycircumflex" unicode="&#x176;" horiz-adv-x="643" 
d="M-33 720h208l146 -270l147 270h208l-263 -445v-275h-183v275zM127 782l100 200h187l101 -200h-148l-46 108l-46 -108h-148z" />
    <glyph glyph-name="ycircumflex" unicode="&#x177;" horiz-adv-x="563" 
d="M20 -222v158q29 -11 62 -11q73 0 111 72l-204 503h194l52 -170q34 -112 46 -169q4 7 24 82.5t24 86.5l52 170h193l-193 -506q-81 -218 -258 -227q-37 -1 -64 3q-31 3 -39 8zM98 561l88 173h192l87 -173h-146l-37 90l-38 -90h-146z" />
    <glyph glyph-name="Ydieresis" unicode="&#x178;" horiz-adv-x="643" 
d="M-33 720h208l146 -270l147 270h208l-263 -445v-275h-183v275zM105 880q0 43 26 67.5t70 24.5t70 -24.5t26 -67.5t-26 -68t-70 -25t-70 25t-26 68zM346 880q0 43 26 67.5t70 24.5t70 -24.5t26 -67.5t-26 -68t-70 -25t-70 25t-26 68z" />
    <glyph glyph-name="Zacute" unicode="&#x179;" horiz-adv-x="646" 
d="M20 0l328 566h-294v154h571l-327 -566h311v-154h-589zM231 781l83 203h217l-158 -203h-142z" />
    <glyph glyph-name="zacute" unicode="&#x17a;" horiz-adv-x="486" 
d="M463 138v-138h-450l207 362h-187v138h437l-207 -362h200zM159 561l80 173h224l-149 -173h-155z" />
    <glyph glyph-name="Zdotaccent" unicode="&#x17b;" horiz-adv-x="646" 
d="M20 0l328 566h-294v154h571l-327 -566h311v-154h-589zM231 880q0 43 26 67.5t70 24.5t70 -24.5t26 -67.5t-26 -68t-70 -25t-70 25t-26 68z" />
    <glyph glyph-name="zdotaccent" unicode="&#x17c;" horiz-adv-x="486" 
d="M463 138v-138h-450l207 362h-187v138h437l-207 -362h200zM147 643q0 43 26 67.5t70 24.5t70 -24.5t26 -67.5t-26 -68t-70 -25t-70 25t-26 68z" />
    <glyph glyph-name="Zcaron" unicode="&#x17d;" horiz-adv-x="646" 
d="M20 0l328 566h-294v154h571l-327 -566h311v-154h-589zM524 982l-101 -200h-187l-100 200h148l46 -108l46 108h148z" />
    <glyph glyph-name="zcaron" unicode="&#x17e;" horiz-adv-x="486" 
d="M463 138v-138h-450l207 362h-187v138h437l-207 -362h200zM427 734l-87 -173h-192l-88 173h146l38 -90l37 90h146z" />
    <glyph glyph-name="florin" unicode="&#x192;" horiz-adv-x="533" 
d="M67 437h101q10 85 22 127q47 170 237 170q36 0 69 -6v-147q-18 5 -55 5q-34 0 -56.5 -18t-26.5 -51l-12 -80h101v-137h-121l-44 -302q-7 -50 -26 -96q-53 -136 -221 -136q-35 0 -68 6v147q17 -5 55 -5q32 0 54 18t26 51l45 317h-80v137z" />
    <glyph glyph-name="Aringacute" unicode="&#x1fa;" horiz-adv-x="709" 
d="M-8 0l358 730h9l358 -730h-191l-51 110h-242l-50 -110h-191zM286 233h137q-48 110 -68 172q-2 -5 -29.5 -75t-39.5 -97zM230 857q0 50 35 76.5t89 26.5q55 0 89.5 -26.5t34.5 -76.5q0 -49 -34.5 -75.5t-89.5 -26.5q-54 0 -89 26.5t-35 75.5zM326 857q0 -26 28 -26
q29 0 29 26t-29 26q-28 0 -28 -26zM339 1127h215l-129 -148h-154z" />
    <glyph glyph-name="aringacute" unicode="&#x1fb;" horiz-adv-x="535" 
d="M62 324v158q69 32 188 32q118 0 179.5 -52.5t61.5 -147.5v-314h-160l-4 39l2 32h-2q-15 -34 -52.5 -59.5t-94.5 -25.5q-67 0 -112.5 39t-45.5 114q0 91 83 133.5t209 24.5v7q0 63 -95 63q-90 0 -157 -43zM231 119q34 0 56 26t22 68q-61 10 -91.5 -6t-30.5 -46
q0 -19 12 -30.5t32 -11.5zM135 637q0 50 35 76.5t89 26.5t89 -26.5t35 -76.5q0 -49 -35 -75.5t-89 -26.5t-89 26.5t-35 75.5zM231 637q0 -26 28 -26q29 0 29 26t-29 26q-28 0 -28 -26zM245 907h214l-128 -148h-154z" />
    <glyph glyph-name="AEacute" unicode="&#x1fc;" horiz-adv-x="898" 
d="M523 0l-41 118h-241l-58 -118h-190l388 720h458v-154h-345l46 -128h278v-146h-225l50 -138h233v-154h-353zM529 781l83 203h217l-158 -203h-142zM382 408l-81 -168h139l-56 168h-2z" />
    <glyph glyph-name="aeacute" unicode="&#x1fd;" horiz-adv-x="802" 
d="M62 324v158q57 24 140 30q28 3 65 1q91 -3 138 -50q64 51 149 51q108 0 167 -67.5t59 -166.5q0 -17 -2.5 -40.5t-2.5 -25.5h-301q11 -80 118 -80q48 0 97.5 11t69.5 21v-149q-64 -31 -184 -31q-132 0 -208 81q-79 -81 -183 -81q-68 0 -115 39t-47 114q0 90 83.5 133
t212.5 26q0 3 3 15q-4 54 -98 54t-161 -43zM298 561l80 173h224l-149 -173h-155zM235 119q29 0 50.5 17t28.5 47v31q-64 8 -95.5 -7.5t-31.5 -45.5q0 -19 13 -30.5t35 -11.5zM612 296q1 35 -17 58t-51 23t-51.5 -23t-19.5 -58h139z" />
    <glyph glyph-name="Oslashacute" unicode="&#x1fe;" horiz-adv-x="819" 
d="M28 360q0 157 108.5 265.5t272.5 108.5q94 0 171 -37l60 93h89l-85 -132q69 -51 107.5 -129.5t38.5 -168.5q0 -158 -108 -266t-273 -108q-93 0 -172 37l-59 -93h-88l84 131q-69 51 -107.5 129.5t-38.5 169.5zM212 360q0 -89 58 -149l217 340q-37 16 -78 16
q-86 0 -141.5 -61t-55.5 -146zM605 360q0 87 -57 147l-217 -339q35 -15 78 -15q86 0 141 60.5t55 146.5zM322 781l83 203h217l-158 -203h-142z" />
    <glyph glyph-name="oslashacute" unicode="&#x1ff;" 
d="M294 514q57 0 110 -21l49 77h89l-72 -115q95 -76 95 -205q0 -114 -76.5 -189t-194.5 -75q-56 0 -108 19l-47 -75h-89l70 112q-97 75 -97 208q0 114 76.5 189t194.5 75zM202 561l80 173h224l-149 -173h-155zM190 250q0 -42 18 -69l114 181q-18 4 -28 4q-45 0 -74.5 -32
t-29.5 -84zM294 134q44 0 74 32t30 84q0 37 -17 65l-112 -178q12 -3 25 -3z" />
    <glyph glyph-name="Scommaaccent" unicode="&#x218;" horiz-adv-x="558" 
d="M259 -14q-126 0 -218 39v176q84 -45 170 -52q27 -3 57 -1q92 6 92 50q0 26 -29 44t-104 46q-102 39 -150.5 87.5t-48.5 140.5q0 99 75 158.5t198 59.5q110 0 192 -34v-169q-72 45 -177 45q-49 0 -78.5 -16t-29.5 -43q0 -24 29 -43.5t97 -47.5q104 -41 154 -89.5
t50 -137.5q0 -100 -73 -156.5t-206 -56.5zM371 -51l-75 -183h-136l34 183h177z" />
    <glyph glyph-name="scommaaccent" unicode="&#x219;" horiz-adv-x="459" 
d="M270 151q0 13 -16.5 21t-57.5 19q-80 21 -122 58t-42 107q0 74 52 116t144 42q97 0 173 -30v-151q-57 29 -126 38q-30 2 -43 1q-37 -5 -37 -25q0 -23 65 -40q92 -23 132.5 -59.5t40.5 -104.5q0 -75 -57.5 -116t-160.5 -41q-96 0 -174 32v155q35 -20 85.5 -34.5
t86.5 -14.5q57 0 57 27zM317 -51l-75 -183h-136l34 183h177z" />
    <glyph glyph-name="uni021A" unicode="&#x21a;" 
d="M578 566h-192v-566h-184v566h-192v154h568v-154zM383 -51l-75 -183h-136l34 183h177z" />
    <glyph glyph-name="uni021B" unicode="&#x21b;" horiz-adv-x="393" 
d="M4 500h65v150h173v-150h124v-138h-124v-171q0 -59 60 -59q36 0 80 20v-144q-46 -22 -134 -22q-69 0 -117.5 33t-60.5 104q-4 32 -4 53v186h-62v138zM319 -51l-75 -183h-136l34 183h177z" />
    <glyph glyph-name="dotlessj" unicode="&#x237;" horiz-adv-x="297" 
d="M238 500v-546q0 -92 -50.5 -140t-145.5 -48q-61 0 -83 12v154q14 -6 39 -6q61 0 61 63v511h179z" />
    <glyph glyph-name="circumflex" unicode="&#x2c6;" horiz-adv-x="441" 
d="M37 561l88 173h192l87 -173h-146l-37 90l-38 -90h-146z" />
    <glyph glyph-name="caron" unicode="&#x2c7;" horiz-adv-x="441" 
d="M404 734l-87 -173h-192l-88 173h146l38 -90l37 90h146z" />
    <glyph glyph-name="breve" unicode="&#x2d8;" horiz-adv-x="401" 
d="M235 732h128q1 -80 -40 -124.5t-123 -44.5q-81 0 -122 44.5t-40 124.5h128q-2 -24 7.5 -38t26.5 -14q38 0 35 52z" />
    <glyph glyph-name="dotaccent" unicode="&#x2d9;" horiz-adv-x="266" 
d="M37 643q0 43 26 67.5t70 24.5t70 -24.5t26 -67.5t-26 -68t-70 -25t-70 25t-26 68z" />
    <glyph glyph-name="ring" unicode="&#x2da;" horiz-adv-x="331" 
d="M37 643q0 51 36 78.5t93 27.5q56 0 92 -27.5t36 -78.5t-36 -79t-92 -28q-57 0 -93 28t-36 79zM133 643q0 -31 33 -31q14 0 23 8.5t9 22.5q0 13 -9 21.5t-23 8.5q-33 0 -33 -30z" />
    <glyph glyph-name="ogonek" unicode="&#x2db;" horiz-adv-x="280" 
d="M223 24l15 -24q-70 -48 -70 -97q0 -33 35 -33q14 0 40 7v-102q-23 -9 -66 -9q-63 0 -101.5 25.5t-38.5 77.5q0 50 56 91.5t130 63.5z" />
    <glyph glyph-name="tilde" unicode="&#x2dc;" horiz-adv-x="432" 
d="M137 728q29 0 81 -15.5t81 -15.5q56 0 96 36v-128q-11 -15 -39 -26.5t-60 -11.5q-29 0 -81.5 15.5t-80.5 15.5q-55 0 -97 -36v128q11 15 39 26.5t61 11.5z" />
    <glyph glyph-name="hungarumlaut" unicode="&#x2dd;" 
d="M37 561l54 173h190l-100 -173h-144zM245 561l103 173h202l-157 -173h-148z" />
    <glyph glyph-name="acutecomb" unicode="&#x301;" horiz-adv-x="377" 
d="M111 716h214l-128 -148h-154z" />
    <glyph glyph-name="pi" unicode="&#x3c0;" horiz-adv-x="776" 
d="M67 358v142h640v-142h-94v-172q0 -57 56 -57q24 0 40 6v-137q-24 -12 -83 -12q-179 0 -179 193v179h-119v-358h-166v358h-95z" />
    <glyph glyph-name="Wgrave" unicode="&#x1e80;" horiz-adv-x="1022" 
d="M-5 720h205l89 -216q29 -66 55 -145q4 6 11 22t16 38.5t14 32.5l35 77l88 189h8q14 -30 43.5 -92.5t48 -101t39 -86t32.5 -79.5q6 12 146 361h205l-340 -730h-9l-135 287l-34 74q-33 -72 -34 -74l-135 -287h-9zM495 984l83 -203h-142l-158 203h217z" />
    <glyph glyph-name="wgrave" unicode="&#x1e81;" horiz-adv-x="790" 
d="M449 498l53 -158q13 -38 34 -124q4 7 17.5 58t18.5 67l52 159h186l-209 -503h-121l-85 240l-84 -240h-121l-209 503h186q7 -22 24 -73.5t26 -81t20 -67t16 -62.5q43 151 89 282h107zM389 734l80 -173h-154l-150 173h224z" />
    <glyph glyph-name="Wacute" unicode="&#x1e82;" horiz-adv-x="1022" 
d="M-5 720h205l89 -216q29 -66 55 -145q4 6 11 22t16 38.5t14 32.5l35 77l88 189h8q14 -30 43.5 -92.5t48 -101t39 -86t32.5 -79.5q6 12 146 361h205l-340 -730h-9l-135 287l-34 74q-33 -72 -34 -74l-135 -287h-9zM425 781l83 203h217l-158 -203h-142z" />
    <glyph glyph-name="wacute" unicode="&#x1e83;" horiz-adv-x="790" 
d="M449 498l53 -158q13 -38 34 -124q4 7 17.5 58t18.5 67l52 159h186l-209 -503h-121l-85 240l-84 -240h-121l-209 503h186q7 -22 24 -73.5t26 -81t20 -67t16 -62.5q43 151 89 282h107zM316 561l80 173h224l-149 -173h-155z" />
    <glyph glyph-name="Wdieresis" unicode="&#x1e84;" horiz-adv-x="1022" 
d="M-5 720h205l89 -216q29 -66 55 -145q4 6 11 22t16 38.5t14 32.5l35 77l88 189h8q14 -30 43.5 -92.5t48 -101t39 -86t32.5 -79.5q6 12 146 361h205l-340 -730h-9l-135 287l-34 74q-33 -72 -34 -74l-135 -287h-9zM537 880q0 43 26 67.5t70 24.5t70 -24.5t26 -67.5t-26 -68
t-70 -25t-70 25t-26 68zM296 880q0 43 26 67.5t70 24.5t70 -24.5t26 -67.5t-26 -68t-70 -25t-70 25t-26 68z" />
    <glyph glyph-name="wdieresis" unicode="&#x1e85;" horiz-adv-x="790" 
d="M449 498l53 -158q13 -38 34 -124q4 7 17.5 58t18.5 67l52 159h186l-209 -503h-121l-85 240l-84 -240h-121l-209 503h186q7 -22 24 -73.5t26 -81t20 -67t16 -62.5q43 151 89 282h107zM180 643q0 43 26 67.5t70 24.5t70 -24.5t26 -67.5t-26 -68t-70 -25t-70 25t-26 68z
M420 643q0 43 25.5 67.5t69.5 24.5t70 -24.5t26 -67.5t-26 -68t-70 -25t-69.5 25t-25.5 68z" />
    <glyph glyph-name="uni1E9E" unicode="&#x1e9e;" horiz-adv-x="699" 
d="M235 0h-178v471q0 113 81.5 188t227.5 75q95 0 175 -39t120 -80l-164 -239l35 -17q72 -34 113.5 -77t41.5 -111q0 -86 -60.5 -135.5t-173.5 -49.5q-90 0 -157 30v151q49 -26 115 -38q34 -5 56 -2q53 6 53 44q0 19 -19 36.5t-40.5 28.5t-63.5 29l-103 44l158 245
q-35 22 -89 22q-56 0 -92 -31.5t-36 -87.5v-457z" />
    <glyph glyph-name="Ygrave" unicode="&#x1ef2;" horiz-adv-x="643" 
d="M-33 720h208l146 -270l147 270h208l-263 -445v-275h-183v275zM302 984l83 -203h-142l-158 203h217z" />
    <glyph glyph-name="ygrave" unicode="&#x1ef3;" horiz-adv-x="563" 
d="M20 -222v158q29 -11 62 -11q73 0 111 72l-204 503h194l52 -170q34 -112 46 -169q4 7 24 82.5t24 86.5l52 170h193l-193 -506q-81 -218 -258 -227q-37 -1 -64 3q-31 3 -39 8zM278 734l80 -173h-154l-150 173h224z" />
    <glyph glyph-name="endash" unicode="&#x2013;" horiz-adv-x="593" 
d="M37 213v138h518v-138h-518z" />
    <glyph glyph-name="emdash" unicode="&#x2014;" horiz-adv-x="835" 
d="M37 213v138h761v-138h-761z" />
    <glyph glyph-name="quoteleft" unicode="&#x2018;" horiz-adv-x="256" 
d="M2 493l112 300h144l-77 -300h-179z" />
    <glyph glyph-name="quoteright" unicode="&#x2019;" horiz-adv-x="256" 
d="M261 793l-112 -300h-144l78 300h178z" />
    <glyph glyph-name="quotesinglbase" unicode="&#x201a;" horiz-adv-x="256" 
d="M261 146l-112 -300h-144l78 300h178z" />
    <glyph glyph-name="quotedblleft" unicode="&#x201c;" horiz-adv-x="476" 
d="M222 493l112 300h144l-77 -300h-179zM2 493l112 300h144l-77 -300h-179z" />
    <glyph glyph-name="quotedblright" unicode="&#x201d;" horiz-adv-x="476" 
d="M482 793l-112 -300h-144l78 300h178zM261 793l-112 -300h-144l78 300h178z" />
    <glyph glyph-name="quotedblbase" unicode="&#x201e;" horiz-adv-x="476" 
d="M482 146l-112 -300h-144l78 300h178zM261 146l-112 -300h-144l78 300h178z" />
    <glyph glyph-name="dagger" unicode="&#x2020;" horiz-adv-x="597" 
d="M207 -67v468h-178v158h178v228h178v-228h183v-158h-183v-468h-178z" />
    <glyph glyph-name="daggerdbl" unicode="&#x2021;" horiz-adv-x="572" 
d="M198 267v186h-169v158h169v176h171v-176h174v-158h-174v-186h174v-158h-174v-176h-171v176h-169v158h169z" />
    <glyph glyph-name="bullet" unicode="&#x2022;" horiz-adv-x="328" 
d="M37 360q0 56 34 88.5t93 32.5q58 0 92 -32.5t34 -88.5t-34 -88.5t-92 -32.5q-59 0 -93 32.5t-34 88.5z" />
    <glyph glyph-name="ellipsis" unicode="&#x2026;" horiz-adv-x="816" 
d="M37 78q0 43 26 67.5t70 24.5t70 -24.5t26 -67.5t-26 -67.5t-70 -24.5t-70 24.5t-26 67.5zM312 78q0 43 25.5 67.5t69.5 24.5t70 -24.5t26 -67.5t-26 -67.5t-70 -24.5t-69.5 24.5t-25.5 67.5zM587 78q0 43 26 67.5t70 24.5t70 -24.5t26 -67.5t-26 -67.5t-70 -24.5
t-70 24.5t-26 67.5z" />
    <glyph glyph-name="perthousand" unicode="&#x2030;" horiz-adv-x="1068" 
d="M435 160q0 76 51.5 127t127.5 51q77 0 127 -57q50 57 126 57q77 0 128.5 -51t51.5 -127q0 -73 -51.5 -123.5t-128.5 -50.5t-126 56q-49 -56 -127 -56q-76 0 -127.5 50.5t-51.5 123.5zM43 557q0 75 51.5 126t128.5 51q76 0 128 -51t52 -126q0 -74 -52 -124.5t-128 -50.5
q-77 0 -128.5 50.5t-51.5 124.5zM542 160q0 -35 20.5 -56.5t51.5 -21.5t52 21.5t21 56.5q0 38 -21 59.5t-52 21.5t-51.5 -21.5t-20.5 -59.5zM151 557q0 -36 20 -57t52 -21q31 0 51.5 21t20.5 57q0 37 -20.5 58.5t-51.5 21.5q-32 0 -52 -21.5t-20 -58.5zM795 160
q0 -35 20.5 -56.5t51.5 -21.5t51.5 21.5t20.5 56.5q0 38 -20.5 59.5t-51.5 21.5q-32 0 -52 -21.5t-20 -59.5zM108 0l513 720h100l-513 -720h-100z" />
    <glyph glyph-name="guilsinglleft" unicode="&#x2039;" horiz-adv-x="433" 
d="M395 500l-166 -250l166 -250h-190l-158 250l158 250h190z" />
    <glyph glyph-name="guilsinglright" unicode="&#x203a;" horiz-adv-x="433" 
d="M60 0l167 250l-167 250h190l158 -250l-158 -250h-190z" />
    <glyph glyph-name="fraction" unicode="&#x2044;" horiz-adv-x="637" 
d="M12 0l513 720h100l-513 -720h-100z" />
    <glyph glyph-name="zerosuperior" unicode="&#x2070;" horiz-adv-x="408" 
d="M27 530q0 87 48 146t129 59t129 -59t48 -146q0 -88 -47.5 -146.5t-129.5 -58.5t-129.5 58.5t-47.5 146.5zM150 530q0 -90 54 -90t54 90q0 91 -54 91q-26 0 -40 -24t-14 -67z" />
    <glyph glyph-name="foursuperior" unicode="&#x2074;" horiz-adv-x="355" 
d="M304 337h-103v66h-201l132 321h114l-92 -227h56v85h94v-85h44v-97h-44v-63z" />
    <glyph glyph-name="lira" unicode="&#x20a4;" horiz-adv-x="632" 
d="M489 247h-177v-13q0 -57 -25 -89h273v-145h-499q66 87 74 201q2 30 2 46h-84v87h84v52h-79v87h79v28q0 114 69.5 173.5t191.5 59.5q89 0 149 -19v-155q-56 23 -125 23q-52 0 -81 -26.5t-29 -74.5v-9h182v-87h-182v-52h177v-87z" />
    <glyph glyph-name="Euro" unicode="&#x20ac;" horiz-adv-x="793" 
d="M610 386h-301q-1 -9 -1 -26q0 -18 1 -26h291v-87h-261q55 -94 173 -94q110 0 202 48v-169q-88 -46 -217 -46q-130 0 -226.5 72t-130.5 189h-108v87h92v52h-82v87h98q35 116 133 188.5t231 72.5q113 0 205 -48v-167q-91 48 -188 48q-61 0 -107 -25.5t-72 -68.5h268v-87z
" />
    <glyph glyph-name="trademark" unicode="&#x2122;" horiz-adv-x="665" 
d="M545 587l-72 -85l-71 86v-169h-98v301h95l74 -98l76 98h93v-301h-97v168zM275 626h-73v-207h-106v207h-73v94h252v-94z" />
    <glyph glyph-name="estimated" unicode="&#x212e;" horiz-adv-x="1026" 
d="M926 342h-669q-6 0 -6 -5v-191q0 -13 9 -25q97 -94 254 -94q168 0 266 106h60q-56 -67 -141 -106t-186 -39q-175 0 -294 108t-119 263t121 264t292 109q170 0 291.5 -111.5t121.5 -266.5v-12zM774 385v190q0 13 -9 25q-96 93 -251 93q-156 0 -253 -93q-10 -13 -10 -28
v-187q0 -7 6 -7h514q3 0 3 7z" />
    <glyph glyph-name="onethird" unicode="&#x2153;" horiz-adv-x="811" 
d="M50 720h173v-294h70v-91h-248v91h70v203h-65v91zM648 270q0 33 -56 33q-45 0 -83 -18v92q47 20 102 20q68 0 108 -31.5t40 -82.5q0 -27 -17.5 -50.5t-42.5 -36.5q66 -26 66 -92q0 -55 -43 -86.5t-111 -31.5q-63 0 -107 23v90q46 -18 97 -18q48 0 51 31q2 18 -20 26
q-10 18 -52 18h-20v81h23q28 0 46.5 8.5t18.5 24.5zM85 0l513 720h100l-513 -720h-100z" />
    <glyph glyph-name="twothirds" unicode="&#x2154;" horiz-adv-x="874" 
d="M68 614v98q37 23 95 23q72 0 114 -39.5t42 -104.5q0 -19 -4.5 -37t-15.5 -37.5t-18 -29.5t-25 -32.5t-22 -28.5h102v-91h-291q10 12 32.5 38t34 40t30 37t28.5 38t21 33.5t15.5 33t4.5 27.5q0 26 -16.5 40.5t-46.5 14.5q-42 0 -80 -23zM711 270q0 33 -55 33
q-47 0 -83 -18v92q47 20 101 20q69 0 109 -31.5t40 -82.5q0 -27 -17.5 -50.5t-43.5 -36.5q67 -26 67 -92q0 -55 -43.5 -86.5t-111.5 -31.5q-62 0 -106 23v90q46 -18 97 -18q48 0 51 31q2 18 -21 26q-9 18 -51 18h-20v81h23q64 0 64 33zM148 0l513 720h100l-513 -720h-100z
" />
    <glyph glyph-name="minus" unicode="&#x2212;" horiz-adv-x="603" 
d="M79 291v138h445v-138h-445z" />
    <glyph glyph-name="uni2215" unicode="&#x2215;" horiz-adv-x="637" 
d="M12 0l513 720h100l-513 -720h-100z" />
    <glyph glyph-name="uni2219" unicode="&#x2219;" horiz-adv-x="266" 
d="M37 356q0 43 26 67.5t70 24.5t70 -24.5t26 -67.5t-26 -68t-70 -25t-70 25t-26 68z" />
    <glyph glyph-name="approxequal" unicode="&#x2248;" horiz-adv-x="593" 
d="M79 378v127q15 16 50.5 27.5t75.5 11.5q32 0 92 -15.5t94 -15.5q69 0 123 36v-127q-15 -16 -50.5 -27.5t-75.5 -11.5q-32 0 -92 15.5t-94 15.5q-71 0 -123 -36zM80 172v127q14 16 49.5 27.5t76.5 11.5q32 0 91.5 -15.5t93.5 -15.5q70 0 124 36v-127q-15 -16 -50.5 -27.5
t-75.5 -11.5q-32 0 -92 15t-94 15q-72 0 -123 -35z" />
    <glyph glyph-name="notequal" unicode="&#x2260;" horiz-adv-x="603" 
d="M79 401v138h269l65 153h52l-65 -153h124v-138h-180l-35 -82h215v-138h-270l-65 -153h-51l65 153h-124v138h179l35 82h-214z" />
    <glyph glyph-name="lessequal" unicode="&#x2264;" horiz-adv-x="620" 
d="M74 11v83h463v-83h-463zM52 429l485 297v-183l-200 -114l200 -115v-182z" />
    <glyph glyph-name="greaterequal" unicode="&#x2265;" horiz-adv-x="620" 
d="M83 726l485 -297l-485 -297v182l200 115l-200 114v183zM546 94v-83h-463v83h463z" />
    <glyph glyph-name="commaaccent" unicode="&#xf6c3;" horiz-adv-x="286" 
d="M248 -51l-75 -183h-136l34 183h177z" />
    <glyph glyph-name="A.001" horiz-adv-x="729" 
d="M-4 0l287 720h163l287 -720h-193l-49 136h-253l-49 -136h-193zM291 279h147q-20 51 -73 221h-1q-53 -170 -73 -221z" />
    <glyph glyph-name="Aacute.001" horiz-adv-x="729" 
d="M-4 0l287 720h163l287 -720h-193l-49 136h-253l-49 -136h-193zM298 781l83 203h217l-158 -203h-142zM291 279h147q-20 51 -73 221h-1q-53 -170 -73 -221z" />
    <glyph glyph-name="Abreve.001" horiz-adv-x="729" 
d="M-4 0l287 720h163l287 -720h-193l-49 136h-253l-49 -136h-193zM404 962h128q2 -81 -40.5 -127t-126.5 -46t-126.5 46t-40.5 127h128q-3 -56 39 -56t39 56zM291 279h147q-20 51 -73 221h-1q-53 -170 -73 -221z" />
    <glyph glyph-name="Acircumflex.001" horiz-adv-x="729" 
d="M-4 0l287 720h163l287 -720h-193l-49 136h-253l-49 -136h-193zM171 782l100 200h187l100 -200h-148l-45 108l-46 -108h-148zM291 279h147q-20 51 -73 221h-1q-53 -170 -73 -221z" />
    <glyph glyph-name="Adieresis.001" horiz-adv-x="729" 
d="M-4 0l287 720h163l287 -720h-193l-49 136h-253l-49 -136h-193zM390 880q0 43 25.5 67.5t69.5 24.5t70 -24.5t26 -67.5t-26 -68t-70 -25t-69.5 25t-25.5 68zM149 880q0 43 25.5 67.5t69.5 24.5t70 -24.5t26 -67.5t-26 -68t-70 -25t-69.5 25t-25.5 68zM291 279h147
q-20 51 -73 221h-1q-53 -170 -73 -221z" />
    <glyph glyph-name="Agrave.001" horiz-adv-x="729" 
d="M-4 0l287 720h163l287 -720h-193l-49 136h-253l-49 -136h-193zM358 984l83 -203h-142l-158 203h217zM291 279h147q-20 51 -73 221h-1q-53 -170 -73 -221z" />
    <glyph glyph-name="Amacron.001" horiz-adv-x="729" 
d="M-4 0l287 720h163l287 -720h-193l-49 136h-253l-49 -136h-193zM184 814v131h363v-131h-363zM291 279h147q-20 51 -73 221h-1q-53 -170 -73 -221z" />
    <glyph glyph-name="Aogonek.001" horiz-adv-x="729" 
d="M-4 0l287 720h163l287 -720h-2q-70 -48 -70 -97q0 -33 35 -33q16 0 39 7v-102q-22 -9 -65 -9q-63 0 -101.5 25.5t-38.5 77.5q0 75 121 131h-111l-49 136h-253l-49 -136h-193zM291 279h147q-20 51 -73 221h-1q-53 -170 -73 -221z" />
    <glyph glyph-name="Aring.001" horiz-adv-x="729" 
d="M-4 0l287 720h163l287 -720h-193l-49 136h-253l-49 -136h-193zM236 880q0 51 37 80.5t92 29.5t91.5 -29.5t36.5 -80.5t-36.5 -80.5t-91.5 -29.5t-92 29.5t-37 80.5zM291 279h147q-20 51 -73 221h-1q-53 -170 -73 -221zM332 880q0 -15 9 -24t24 -9q14 0 23 9.5t9 23.5
t-9 22.5t-23 8.5q-15 0 -24 -8.5t-9 -22.5z" />
    <glyph glyph-name="Aringacute.001" horiz-adv-x="729" 
d="M-4 0l287 720h163l287 -720h-193l-49 136h-253l-49 -136h-193zM241 856q0 50 34.5 76.5t89.5 26.5q54 0 89 -26.5t35 -76.5q0 -49 -35 -75.5t-89 -26.5q-55 0 -89.5 26.5t-34.5 75.5zM350 1125h214l-128 -148h-154zM291 279h147q-20 51 -73 221h-1q-53 -170 -73 -221z
M336 856q0 -26 29 -26q28 0 28 26t-28 26q-29 0 -29 -26z" />
    <glyph glyph-name="Atilde.001" horiz-adv-x="729" 
d="M-4 0l287 720h163l287 -720h-193l-49 136h-253l-49 -136h-193zM283 962q29 0 83 -15t83 -15q58 0 96 36v-132q-11 -15 -39 -26.5t-60 -11.5q-29 0 -83 15.5t-82 15.5q-55 0 -97 -36v131q11 15 39 26.5t60 11.5zM291 279h147q-20 51 -73 221h-1q-53 -170 -73 -221z" />
    <glyph glyph-name="J.swsh" horiz-adv-x="322" 
d="M253 720v-713q0 -122 -59 -176.5t-170 -54.5q-69 0 -105 19v151q30 -15 71 -15q80 0 80 79v710h183z" />
    <glyph glyph-name="Jcircumflex.swsh" horiz-adv-x="322" 
d="M253 720v-713q0 -122 -59 -176.5t-170 -54.5q-69 0 -105 19v151q30 -15 71 -15q80 0 80 79v710h183zM-33 782l100 200h187l100 -200h-147l-46 108l-46 -108h-148z" />
    <glyph glyph-name="K.swsh" horiz-adv-x="726" 
d="M253 720v-317l248 317h214l-244 -299l80 -160q28 -54 48 -79t49 -30q29 -6 61 -1v-157q-32 -8 -75 -8q-69 0 -116 34t-90 118l-85 162l-90 -107v-193h-183v720h183z" />
    <glyph glyph-name="K.swsh_Mayus" horiz-adv-x="667" 
d="M253 720v-318l248 318h214l-249 -306q120 -304 279.5 -442.5t358.5 -138.5q99 0 167 16v-161q-64 -24 -168 -24q-123 0 -228.5 33.5t-203 106t-181 194.5t-151.5 293l-86 -105v-186h-183v720h183z" />
    <glyph glyph-name="K.swsh_minus" horiz-adv-x="652" 
d="M253 720v-317l248 317h214l-247 -302l50 -132q82 -214 187 -301t248 -87q94 0 160 17v-155q-61 -25 -161 -25q-200 0 -343.5 106.5t-239.5 358.5l-35 89l-81 -95v-194h-183v720h183z" />
    <glyph glyph-name="Kcommaaccent.swsh" horiz-adv-x="726" 
d="M253 720v-317l248 317h214l-244 -299l80 -160q28 -54 48 -79t49 -30q29 -6 61 -1v-157q-32 -8 -75 -8q-69 0 -116 34t-90 118l-85 162l-90 -107v-193h-183v720h183zM466 -51l-76 -183h-135l33 183h178z" />
    <glyph glyph-name="Kcommaaccent.swsh_Mayus" horiz-adv-x="626" 
d="M253 720v-318l248 318h214l-249 -306q120 -304 279.5 -442.5t358.5 -138.5q99 0 167 16v-161q-64 -24 -168 -24q-123 0 -228.5 33.5t-203 106t-181 194.5t-151.5 293l-86 -105v-186h-183v720h183zM414 -51l-75 -183h-136l33 183h178z" />
    <glyph glyph-name="Kcommaaccent.swsh_minus" horiz-adv-x="605" 
d="M253 720v-317l248 317h214l-247 -302l50 -132q82 -214 187 -301t248 -87q94 0 160 17v-155q-61 -25 -161 -25q-200 0 -343.5 106.5t-239.5 358.5l-35 89l-81 -95v-194h-183v720h183zM404 -51l-75 -183h-136l33 183h178z" />
    <glyph glyph-name="M.001" horiz-adv-x="898" 
d="M449 149l-197 279v-428h-182v720h164l215 -316l215 316h164v-720h-182v428z" />
    <glyph glyph-name="N.001" horiz-adv-x="795" 
d="M725 0h-159l-313 407v-407h-183v720h158l314 -423v423h183v-720z" />
    <glyph glyph-name="Nacute.001" horiz-adv-x="795" 
d="M725 0h-159l-313 407v-407h-183v720h158l314 -423v423h183v-720zM296 781l83 203h217l-158 -203h-142z" />
    <glyph glyph-name="Ncaron.001" horiz-adv-x="795" 
d="M725 0h-159l-313 407v-407h-183v720h158l314 -423v423h183v-720zM579 982l-100 -200h-187l-100 200h148l45 -108l46 108h148z" />
    <glyph glyph-name="Ncommaaccent.001" horiz-adv-x="795" 
d="M725 0h-159l-313 407v-407h-183v720h158l314 -423v423h183v-720zM492 -51l-75 -183h-136l34 183h177z" />
    <glyph glyph-name="Ntilde.001" horiz-adv-x="795" 
d="M725 0h-159l-313 407v-407h-183v720h158l314 -423v423h183v-720zM294 962q29 0 83 -15t82 -15q59 0 97 36v-132q-11 -15 -39 -26.5t-60 -11.5q-29 0 -83 15.5t-83 15.5q-54 0 -96 -36v131q11 15 39 26.5t60 11.5z" />
    <glyph glyph-name="Q.swsh_Mayus" horiz-adv-x="833" 
d="M28 360q0 157 108.5 265.5t272.5 108.5q165 0 273 -108.5t108 -265.5q0 -85 -33.5 -158.5t-93.5 -124.5q268 -255 575 -255q163 0 282 56v-162q-36 -24 -125.5 -41.5t-157.5 -17.5q-201 0 -374 83.5t-359 255.5q-50 -10 -95 -10q-165 0 -273 108t-108 266zM212 360
q0 -86 55.5 -146.5t141.5 -60.5t141 60.5t55 146.5q0 85 -55 146t-141 61t-141.5 -61t-55.5 -146z" />
    <glyph glyph-name="Q.swsh_minus" horiz-adv-x="822" 
d="M28 360q0 157 108.5 265.5t272.5 108.5q165 0 273 -108.5t108 -265.5q0 -91 -38 -168t-105 -128q153 -171 361 -171q112 0 191 39v-162q-69 -42 -191 -42q-147 0 -274.5 64.5t-252.5 199.5q-36 -6 -72 -6q-165 0 -273 108t-108 266zM212 360q0 -86 55.5 -146.5
t141.5 -60.5t141 60.5t55 146.5q0 85 -55 146t-141 61t-141.5 -61t-55.5 -146z" />
    <glyph glyph-name="R.swsh" horiz-adv-x="650" 
d="M321 237h-72v-237h-179v720h258q135 0 215 -63t80 -182q0 -77 -37.5 -130.5t-102.5 -80.5l31 -70q26 -61 85 -61q10 0 26 2v-141q-28 -8 -70 -8q-61 0 -103 31t-77 107zM336 566h-87v-183h89q45 0 72.5 22.5t27.5 69.5q0 45 -28.5 68t-73.5 23z" />
    <glyph glyph-name="R.swsh_Mayus" horiz-adv-x="658" 
d="M70 720h258q135 0 215 -63t80 -182q0 -71 -34 -124.5t-94 -80.5q27 -62 57 -114q187 -327 560 -327q105 0 174 22v-160q-68 -27 -183 -27q-488 0 -713 452q-36 73 -55 121h-86v-237h-179v720zM340 566h-91v-183h92q97 0 97 92q0 45 -26.5 68t-71.5 23z" />
    <glyph glyph-name="R.swsh_minus" horiz-adv-x="646" 
d="M70 720h258q135 0 215 -63t80 -182q0 -69 -33 -121.5t-91 -80.5q21 -57 45 -105q38 -76 84 -129.5t98 -84t106 -44t117 -13.5q96 0 161 19v-155q-59 -26 -163 -26q-206 0 -355 105t-238 348l-19 49h-86v-237h-179v720zM340 566h-91v-183h92q97 0 97 92q0 45 -26.5 68
t-71.5 23z" />
    <glyph glyph-name="Racute.swsh" horiz-adv-x="650" 
d="M321 237h-72v-237h-179v720h258q135 0 215 -63t80 -182q0 -77 -37.5 -130.5t-102.5 -80.5l31 -70q26 -61 85 -61q10 0 26 2v-141q-28 -8 -70 -8q-61 0 -103 31t-77 107zM336 566h-87v-183h89q45 0 72.5 22.5t27.5 69.5q0 45 -28.5 68t-73.5 23zM207 781l83 203h217
l-158 -203h-142z" />
    <glyph glyph-name="Racute.swsh_Mayus" horiz-adv-x="661" 
d="M70 720h258q135 0 215 -63t80 -182q0 -71 -34 -124.5t-94 -80.5q27 -62 57 -114q187 -327 560 -327q105 0 174 22v-160q-68 -27 -183 -27q-488 0 -713 452q-36 73 -55 121h-86v-237h-179v720zM340 566h-91v-183h92q97 0 97 92q0 45 -26.5 68t-71.5 23zM225 781l83 203
h217l-158 -203h-142z" />
    <glyph glyph-name="Racute.swsh_minus" horiz-adv-x="646" 
d="M70 720h258q135 0 215 -63t80 -182q0 -69 -33 -121.5t-91 -80.5q21 -57 45 -105q38 -76 84 -129.5t98 -84t106 -44t117 -13.5q96 0 161 19v-155q-59 -26 -163 -26q-206 0 -355 105t-238 348l-19 49h-86v-237h-179v720zM340 566h-91v-183h92q97 0 97 92q0 45 -26.5 68
t-71.5 23zM225 781l83 203h217l-158 -203h-142z" />
    <glyph glyph-name="Rcaron.swsh" horiz-adv-x="650" 
d="M321 237h-72v-237h-179v720h258q135 0 215 -63t80 -182q0 -77 -37.5 -130.5t-102.5 -80.5l31 -70q26 -61 85 -61q10 0 26 2v-141q-28 -8 -70 -8q-61 0 -103 31t-77 107zM336 566h-87v-183h89q45 0 72.5 22.5t27.5 69.5q0 45 -28.5 68t-73.5 23zM494 982l-100 -200h-187
l-100 200h148l45 -108l46 108h148z" />
    <glyph glyph-name="Rcaron.swsh_Mayus" horiz-adv-x="661" 
d="M70 720h258q135 0 215 -63t80 -182q0 -71 -34 -124.5t-94 -80.5q27 -62 57 -114q187 -327 560 -327q105 0 174 22v-160q-68 -27 -183 -27q-488 0 -713 452q-36 73 -55 121h-86v-237h-179v720zM340 566h-91v-183h92q97 0 97 92q0 45 -26.5 68t-71.5 23zM494 982l-100 -200
h-187l-100 200h148l46 -108l46 108h147z" />
    <glyph glyph-name="Rcaron.swsh_minus" horiz-adv-x="646" 
d="M70 720h258q135 0 215 -63t80 -182q0 -69 -33 -121.5t-91 -80.5q21 -57 45 -105q38 -76 84 -129.5t98 -84t106 -44t117 -13.5q96 0 161 19v-155q-59 -26 -163 -26q-206 0 -355 105t-238 348l-19 49h-86v-237h-179v720zM340 566h-91v-183h92q97 0 97 92q0 45 -26.5 68
t-71.5 23zM494 982l-100 -200h-187l-100 200h148l46 -108l46 108h147z" />
    <glyph glyph-name="Rcommaaccent.swsh" horiz-adv-x="650" 
d="M321 237h-72v-237h-179v720h258q135 0 215 -63t80 -182q0 -77 -37.5 -130.5t-102.5 -80.5l31 -70q26 -61 85 -61q10 0 26 2v-141q-28 -8 -70 -8q-61 0 -103 31t-77 107zM336 566h-87v-183h89q45 0 72.5 22.5t27.5 69.5q0 45 -28.5 68t-73.5 23zM423 -51l-75 -183h-136
l33 183h178z" />
    <glyph glyph-name="Rcommaaccent.swsh_Mayus" horiz-adv-x="661" 
d="M70 720h258q135 0 215 -63t80 -182q0 -71 -34 -124.5t-94 -80.5q27 -62 57 -114q187 -327 560 -327q105 0 174 22v-160q-68 -27 -183 -27q-488 0 -713 452q-36 73 -55 121h-86v-237h-179v720zM340 566h-91v-183h92q97 0 97 92q0 45 -26.5 68t-71.5 23zM384 -51l-76 -183
h-135l33 183h178z" />
    <glyph glyph-name="Rcommaaccent.swsh_minus" horiz-adv-x="646" 
d="M70 720h258q135 0 215 -63t80 -182q0 -69 -33 -121.5t-91 -80.5q21 -57 45 -105q38 -76 84 -129.5t98 -84t106 -44t117 -13.5q96 0 161 19v-155q-59 -26 -163 -26q-206 0 -355 105t-238 348l-19 49h-86v-237h-179v720zM340 566h-91v-183h92q97 0 97 92q0 45 -26.5 68
t-71.5 23zM370 -51l-75 -183h-136l33 183h178z" />
    <glyph glyph-name="V.001" horiz-adv-x="732" 
d="M367 238l164 482h205l-289 -720h-162l-289 720h205l164 -482h2z" />
    <glyph glyph-name="W.001" horiz-adv-x="1103" 
d="M765 257l136 463h206l-254 -720h-158l-145 415l-142 -415h-158l-254 720h205l137 -463h1l145 463h132l148 -463h1z" />
    <glyph glyph-name="Wacute.002" horiz-adv-x="1103" 
d="M765 257l136 463h206l-254 -720h-158l-145 415l-142 -415h-158l-254 720h205l137 -463h1l145 463h132l148 -463h1zM476 781l82 203h217l-158 -203h-141z" />
    <glyph glyph-name="Wcircumflex.002" horiz-adv-x="1103" 
d="M765 257l136 463h206l-254 -720h-158l-145 415l-142 -415h-158l-254 720h205l137 -463h1l145 463h132l148 -463h1zM358 782l100 200h187l100 -200h-148l-46 108l-45 -108h-148z" />
    <glyph glyph-name="Wdieresis.002" horiz-adv-x="1103" 
d="M765 257l136 463h206l-254 -720h-158l-145 415l-142 -415h-158l-254 720h205l137 -463h1l145 463h132l148 -463h1zM576 880q0 43 26 67.5t70 24.5t70 -24.5t26 -67.5t-26 -68t-70 -25t-70 25t-26 68zM335 880q0 43 26 67.5t70 24.5t70 -24.5t26 -67.5t-26 -68t-70 -25
t-70 25t-26 68z" />
    <glyph glyph-name="Wgrave.002" horiz-adv-x="1103" 
d="M765 257l136 463h206l-254 -720h-158l-145 415l-142 -415h-158l-254 720h205l137 -463h1l145 463h132l148 -463h1zM537 984l82 -203h-142l-157 203h217z" />
    <glyph glyph-name="Z.001" horiz-adv-x="594" 
d="M32 150l318 415h-298v155h494v-150l-318 -415h336v-155h-532v150z" />
    <glyph glyph-name="Z.swsh_Mayus" horiz-adv-x="562" 
d="M1287 -121l1 -163q-40 -26 -110 -42.5t-152 -16.5q-80 0 -154 16.5t-129 40t-117 63t-102.5 72t-101.5 81.5t-99 77q-38 29 -57 39t-47 12l-45 -72h-178l352 580h-294v154h571l-321 -527q64 -13 126 -59q33 -24 95.5 -76t108 -85.5t109 -71t134.5 -56.5t150 -19
q67 0 140.5 14.5t119.5 38.5z" />
    <glyph glyph-name="Z.swsh_Mayus.001" horiz-adv-x="562" 
d="M1287 -120l1 -163q-88 -59 -262 -59q-80 0 -154 16.5t-129 40t-117 63t-102.5 71.5t-101.5 81t-99 77q-38 29 -57 39t-47 12l-45 -72h-178l367 579h-309v155h499v-146l-249 -381q64 -13 126 -59q33 -24 95.5 -76t108 -85t109 -70.5t134.5 -56.5t150 -19q68 0 141 14
t119 39z" />
    <glyph glyph-name="Z.swsh_minus" horiz-adv-x="533" 
d="M1041 -65v-156q-83 -51 -209 -51q-54 0 -105 9.5t-97.5 30.5t-82.5 40.5t-78 53t-64 52.5t-60.5 55.5t-50.5 46.5q-46 40 -72 47l-48 -77h-178l352 580h-294v154h571l-317 -521q37 -6 83 -46q19 -17 62 -61t75.5 -72t80.5 -61.5t104 -50.5t119 -17q126 0 209 44z" />
    <glyph glyph-name="Z.swsh_minus.001" horiz-adv-x="533" 
d="M1041 -65v-156q-83 -51 -209 -51q-54 0 -105 9.5t-97.5 30.5t-82.5 40.5t-78 53t-64 52.5t-60.5 55.5t-50.5 46.5q-46 40 -72 47l-48 -77h-178l368 579h-310v155h499v-146l-245 -375q37 -6 83 -46q19 -17 62 -61t75.5 -72t80.5 -61.5t104 -50.5t119 -17q126 0 209 44z
" />
    <glyph glyph-name="Zacute.001" horiz-adv-x="610" 
d="M32 150l318 415h-298v155h494v-150l-318 -415h336v-155h-532v150zM225 781l83 203h217l-158 -203h-142z" />
    <glyph glyph-name="Zacute.swsh_Mayus" horiz-adv-x="515" 
d="M1287 -121q0 -27 0.5 -81.5t0.5 -81.5q-40 -26 -110 -42.5t-152 -16.5q-80 0 -154 16.5t-129 40t-117.5 63.5t-102.5 72t-101.5 81t-98.5 77q-29 21 -40 28.5t-28 14.5t-36 8l-45 -72h-178l352 580h-294v154h571l-321 -527q64 -13 126 -59q33 -24 95.5 -76t108 -85.5
t109 -71t134.5 -56.5t150 -19q67 0 140.5 14.5t119.5 38.5zM242 781l82 203h217l-158 -203h-141z" />
    <glyph glyph-name="Zacute.swsh_Mayus.001" horiz-adv-x="515" 
d="M1287 -120q0 -28 0.5 -82t0.5 -81q-88 -59 -262 -59q-80 0 -154 16.5t-129 39.5t-117.5 63t-102.5 72t-101.5 81t-98.5 77q-29 21 -40 28.5t-28 14.5t-36 8l-45 -72h-178l367 579h-309v155h499v-146l-249 -381q64 -13 126 -59q33 -24 95.5 -76t108 -85t109 -70.5
t134.5 -56.5t150 -19q68 0 141 14t119 39zM226 781l83 203h217l-158 -203h-142z" />
    <glyph glyph-name="Zacute.swsh_minus" horiz-adv-x="540" 
d="M1041 -65v-156q-83 -51 -209 -51q-54 0 -105 9.5t-97.5 30.5t-82.5 40.5t-78 53t-64 52.5t-60.5 55.5t-50.5 46.5q-46 40 -72 47l-48 -77h-178l352 580h-294v154h571l-317 -521q37 -6 83 -46q18 -16 61.5 -60.5t75.5 -72.5t80.5 -61.5t104.5 -50.5t119 -17q126 0 209 44z
M242 781l82 203h217l-158 -203h-141z" />
    <glyph glyph-name="Zacute.swsh_minus.001" horiz-adv-x="540" 
d="M1041 -65v-156q-83 -51 -209 -51q-54 0 -105 9.5t-97.5 30.5t-82.5 40.5t-78 53t-64 52.5t-60.5 55.5t-50.5 46.5q-46 40 -72 47l-48 -77h-178l368 579h-310v155h499v-146l-245 -375q37 -6 83 -46q18 -16 61.5 -60.5t75.5 -72.5t80.5 -61.5t104.5 -50.5t119 -17
q126 0 209 44zM226 781l83 203h217l-158 -203h-142z" />
    <glyph glyph-name="Zcaron.001" horiz-adv-x="602" 
d="M32 150l318 415h-298v155h494v-150l-318 -415h336v-155h-532v150zM496 982l-100 -200h-187l-100 200h148l45 -108l46 108h148z" />
    <glyph glyph-name="Zcaron.swsh_Mayus" horiz-adv-x="515" 
d="M1287 -121q0 -27 0.5 -81.5t0.5 -81.5q-40 -26 -110 -42.5t-152 -16.5q-80 0 -154 16.5t-129 40t-117.5 63.5t-102.5 72t-101.5 81t-98.5 77q-29 21 -40 28.5t-28 14.5t-36 8l-45 -72h-178l352 580h-294v154h571l-321 -527q64 -13 126 -59q33 -24 95.5 -76t108 -85.5
t109 -71t134.5 -56.5t150 -19q67 0 140.5 14.5t119.5 38.5zM521 982l-101 -200h-187l-100 200h148l46 -108l46 108h148z" />
    <glyph glyph-name="Zcaron.swsh_Mayus.001" horiz-adv-x="515" 
d="M1287 -120q0 -28 0.5 -82t0.5 -81q-88 -59 -262 -59q-80 0 -154 16.5t-129 39.5t-117.5 63t-102.5 72t-101.5 81t-98.5 77q-29 21 -40 28.5t-28 14.5t-36 8l-45 -72h-178l367 579h-309v155h499v-146l-249 -381q64 -13 126 -59q33 -24 95.5 -76t108 -85t109 -70.5
t134.5 -56.5t150 -19q68 0 141 14t119 39zM505 982l-100 -200h-187l-100 200h148l46 -108l45 108h148z" />
    <glyph glyph-name="Zcaron.swsh_minus" horiz-adv-x="540" 
d="M1041 -65v-156q-83 -51 -209 -51q-54 0 -105 9.5t-97.5 30.5t-82.5 40.5t-78 53t-64 52.5t-60.5 55.5t-50.5 46.5q-46 40 -72 47l-48 -77h-178l352 580h-294v154h571l-317 -521q37 -6 83 -46q18 -16 61.5 -60.5t75.5 -72.5t80.5 -61.5t104.5 -50.5t119 -17q126 0 209 44z
M521 982l-101 -200h-187l-100 200h148l46 -108l46 108h148z" />
    <glyph glyph-name="Zcaron.swsh_minus.001" horiz-adv-x="540" 
d="M1041 -65v-156q-83 -51 -209 -51q-54 0 -105 9.5t-97.5 30.5t-82.5 40.5t-78 53t-64 52.5t-60.5 55.5t-50.5 46.5q-46 40 -72 47l-48 -77h-178l368 579h-310v155h499v-146l-245 -375q37 -6 83 -46q18 -16 61.5 -60.5t75.5 -72.5t80.5 -61.5t104.5 -50.5t119 -17
q126 0 209 44zM505 982l-100 -200h-187l-100 200h148l46 -108l45 108h148z" />
    <glyph glyph-name="Zdotaccent.001" horiz-adv-x="594" 
d="M32 150l318 415h-298v155h494v-150l-318 -415h336v-155h-532v150zM206 880q0 43 25.5 67.5t69.5 24.5t70 -24.5t26 -67.5t-26 -68t-70 -25t-69.5 25t-25.5 68z" />
    <glyph glyph-name="Zdotaccent.swsh_Mayus" horiz-adv-x="515" 
d="M1287 -121l1 -163q-40 -26 -110 -42.5t-152 -16.5q-80 0 -154 16.5t-129 40t-117 63t-102.5 72t-101.5 81.5t-99 77q-38 29 -57 39t-47 12l-45 -72h-178l352 580h-294v154h571l-321 -527q64 -13 126 -59q33 -24 95.5 -76t108 -85.5t109 -71t134.5 -56.5t150 -19
q67 0 140.5 14.5t119.5 38.5zM243 880q0 43 26 67.5t70 24.5t70 -24.5t26 -67.5t-26 -68t-70 -25t-70 25t-26 68z" />
    <glyph glyph-name="Zdotaccent.swsh_Mayus.001" horiz-adv-x="515" 
d="M1287 -120l1 -163q-88 -59 -262 -59q-80 0 -154 16.5t-129 40t-117 63t-102.5 71.5t-101.5 81t-99 77q-38 29 -57 39t-47 12l-45 -72h-178l367 579h-309v155h499v-146l-249 -381q64 -13 126 -59q33 -24 95.5 -76t108 -85t109 -70.5t134.5 -56.5t150 -19q68 0 141 14
t119 39zM220 880q0 43 26 67.5t70 24.5t70 -25t26 -67q0 -43 -26 -68t-70 -25t-70 25t-26 68z" />
    <glyph glyph-name="Zdotaccent.swsh_minus" horiz-adv-x="540" 
d="M1041 -65v-156q-83 -51 -209 -51q-54 0 -105 9.5t-97.5 30.5t-82.5 40.5t-78 53t-64 52.5t-60.5 55.5t-50.5 46.5q-46 40 -72 47l-48 -77h-178l352 580h-294v154h571l-317 -521q37 -6 83 -46q19 -17 62 -61t75.5 -72t80.5 -61.5t104 -50.5t119 -17q126 0 209 44zM243 880
q0 43 26 67.5t70 24.5t70 -24.5t26 -67.5t-26 -68t-70 -25t-70 25t-26 68z" />
    <glyph glyph-name="Zdotaccent.swsh_minus.001" horiz-adv-x="540" 
d="M1041 -65v-156q-83 -51 -209 -51q-54 0 -105 9.5t-97.5 30.5t-82.5 40.5t-78 53t-64 52.5t-60.5 55.5t-50.5 46.5q-46 40 -72 47l-48 -77h-178l368 579h-310v155h499v-146l-245 -375q37 -6 83 -46q19 -17 62 -61t75.5 -72t80.5 -61.5t104 -50.5t119 -17q126 0 209 44z
M220 880q0 43 26 67.5t70 24.5t70 -25t26 -67q0 -43 -26 -68t-70 -25t-70 25t-26 68z" />
    <glyph glyph-name="a.alt" horiz-adv-x="637" 
d="M291 366q-44 0 -72.5 -32t-28.5 -84t29 -84t72 -32q42 0 71.5 31t29.5 85t-29.5 85t-71.5 31zM577 500v-500h-161l-4 39l2 32h-2q-17 -37 -61 -61t-98 -24q-97 0 -163.5 71t-66.5 193t67 193t166 71q51 0 95 -23.5t61 -59.5h2l-2 32l4 37h161z" />
    <glyph glyph-name="aacute.alt" horiz-adv-x="641" 
d="M582 500v-500h-162l-3 39l1 32h-2q-16 -37 -60.5 -61t-98.5 -24q-97 0 -163.5 71t-66.5 193t67 193t166 71q52 0 96 -23.5t60 -59.5h2l-1 32l3 37h162zM295 366q-44 0 -72.5 -32t-28.5 -84t29 -84t72 -32q42 0 72 31t30 85t-30 85t-72 31zM191 561l79 173h224l-149 -173
h-154z" />
    <glyph glyph-name="abreve.alt" horiz-adv-x="641" 
d="M582 500v-500h-162l-3 39l1 32h-2q-16 -37 -60.5 -61t-98.5 -24q-97 0 -163.5 71t-66.5 193t67 193t166 71q52 0 96 -23.5t60 -59.5h2l-1 32l3 37h162zM295 366q-44 0 -72.5 -32t-28.5 -84t29 -84t72 -32q42 0 72 31t30 85t-30 85t-72 31zM314 732h127q2 -80 -39 -124.5
t-123 -44.5q-81 0 -122.5 44.5t-39.5 124.5h128q-3 -52 34 -52q38 0 35 52z" />
    <glyph glyph-name="acircumflex.alt" horiz-adv-x="641" 
d="M582 500v-500h-162l-3 39l1 32h-2q-16 -37 -60.5 -61t-98.5 -24q-97 0 -163.5 71t-66.5 193t67 193t166 71q52 0 96 -23.5t60 -59.5h2l-1 32l3 37h162zM295 366q-44 0 -72.5 -32t-28.5 -84t29 -84t72 -32q42 0 72 31t30 85t-30 85t-72 31zM106 561l87 173h192l87 -173
h-146l-37 90l-37 -90h-146z" />
    <glyph glyph-name="acute.cap" horiz-adv-x="374" 
d="M37 561l83 203h217l-158 -203h-142z" />
    <glyph glyph-name="acutecomb.cap" horiz-adv-x="364" 
d="M106 716h215l-129 -148h-154z" />
    <glyph glyph-name="adieresis.alt" horiz-adv-x="641" 
d="M582 500v-500h-162l-3 39l1 32h-2q-16 -37 -60.5 -61t-98.5 -24q-97 0 -163.5 71t-66.5 193t67 193t166 71q52 0 96 -23.5t60 -59.5h2l-1 32l3 37h162zM295 366q-44 0 -72.5 -32t-28.5 -84t29 -84t72 -32q42 0 72 31t30 85t-30 85t-72 31zM69 643q0 43 26 67.5t70 24.5
t70 -24.5t26 -67.5t-26 -68t-70 -25t-70 25t-26 68zM309 643q0 43 25.5 67.5t69.5 24.5t70 -24.5t26 -67.5t-26 -68t-70 -25t-69.5 25t-25.5 68z" />
    <glyph glyph-name="agrave.alt" horiz-adv-x="641" 
d="M582 500v-500h-162l-3 39l1 32h-2q-16 -37 -60.5 -61t-98.5 -24q-97 0 -163.5 71t-66.5 193t67 193t166 71q52 0 96 -23.5t60 -59.5h2l-1 32l3 37h162zM295 366q-44 0 -72.5 -32t-28.5 -84t29 -84t72 -32q42 0 72 31t30 85t-30 85t-72 31zM302 734l79 -173h-154l-149 173
h224z" />
    <glyph glyph-name="amacron.alt" horiz-adv-x="641" 
d="M582 500v-500h-162l-3 39l1 32h-2q-16 -37 -60.5 -61t-98.5 -24q-97 0 -163.5 71t-66.5 193t67 193t166 71q52 0 96 -23.5t60 -59.5h2l-1 32l3 37h162zM295 366q-44 0 -72.5 -32t-28.5 -84t29 -84t72 -32q42 0 72 31t30 85t-30 85t-72 31zM108 579v128h343v-128h-343z
" />
    <glyph glyph-name="ampersand.alt" horiz-adv-x="720" 
d="M487 374h152q11 -134 -47 -224q30 -22 70 -24q27 -3 54 5v-136q-32 -9 -74 -9q-77 0 -147 53q-77 -53 -188 -53q-137 0 -209 58.5t-72 145.5q0 114 133 187q-34 39 -51 77.5t-17 93.5q0 64 48 116t120 65q23 5 58 3q82 -4 140.5 -58t58.5 -124q0 -130 -137 -198l93 -98
q20 59 15 120zM384 145l-138 142q-54 -36 -54 -82q0 -35 30.5 -58t85.5 -23q42 0 76 21zM241 535q0 -24 11 -43.5t36 -44.5q77 42 77 88q0 26 -18 43.5t-44 17.5t-44 -18t-18 -43z" />
    <glyph glyph-name="aogonek.alt" horiz-adv-x="641" 
d="M582 500v-500q-70 -48 -70 -97q0 -33 35 -33q13 0 39 7v-102q-23 -9 -65 -9q-63 0 -101.5 25.5t-38.5 77.5q0 75 121 131h-82l-3 39l1 32h-2q-16 -37 -60.5 -61t-98.5 -24q-97 0 -163.5 71t-66.5 193t67 193t166 71q52 0 96 -23.5t60 -59.5h2l-1 32l3 37h162zM295 366
q-44 0 -72.5 -32t-28.5 -84t29 -84t72 -32q42 0 72 31t30 85t-30 85t-72 31z" />
    <glyph glyph-name="aring.alt" horiz-adv-x="641" 
d="M582 500v-500h-162l-3 39l1 32h-2q-16 -37 -60.5 -61t-98.5 -24q-97 0 -163.5 71t-66.5 193t67 193t166 71q52 0 96 -23.5t60 -59.5h2l-1 32l3 37h162zM295 366q-44 0 -72.5 -32t-28.5 -84t29 -84t72 -32q42 0 72 31t30 85t-30 85t-72 31zM163 643q0 51 36 78.5t93 27.5
q56 0 92 -27.5t36 -78.5t-36 -79t-92 -28q-57 0 -93 28t-36 79zM259 643q0 -31 33 -31q14 0 23 8.5t9 22.5q0 13 -9 21.5t-23 8.5q-33 0 -33 -30z" />
    <glyph glyph-name="aringacute.alt" horiz-adv-x="641" 
d="M582 500v-500h-162l-3 39l1 32h-2q-16 -37 -60.5 -61t-98.5 -24q-97 0 -163.5 71t-66.5 193t67 193t166 71q52 0 96 -23.5t60 -59.5h2l-1 32l3 37h162zM295 366q-44 0 -72.5 -32t-28.5 -84t29 -84t72 -32q42 0 72 31t30 85t-30 85t-72 31zM168 637q0 50 35 76.5t89 26.5
t89 -26.5t35 -76.5q0 -49 -35 -75.5t-89 -26.5t-89 26.5t-35 75.5zM264 637q0 -26 28 -26q29 0 29 26t-29 26q-28 0 -28 -26zM276 907h214l-128 -148h-154z" />
    <glyph glyph-name="asciicircum.001" horiz-adv-x="670" 
d="M620 261h-184l-101 269l-100 -269h-185l192 462h187z" />
    <glyph glyph-name="atilde.alt" horiz-adv-x="641" 
d="M582 500v-500h-162l-3 39l1 32h-2q-16 -37 -60.5 -61t-98.5 -24q-97 0 -163.5 71t-66.5 193t67 193t166 71q52 0 96 -23.5t60 -59.5h2l-1 32l3 37h162zM295 366q-44 0 -72.5 -32t-28.5 -84t29 -84t72 -32q42 0 72 31t30 85t-30 85t-72 31zM205 728q29 0 81 -15.5
t81 -15.5q56 0 96 36v-128q-11 -15 -39 -26.5t-60 -11.5q-29 0 -81.5 15.5t-80.5 15.5q-55 0 -97 -36v128q11 15 39 26.5t61 11.5z" />
    <glyph glyph-name="breve.cap" horiz-adv-x="417" 
d="M248 742h128q1 -81 -41.5 -127t-125.5 -46q-84 0 -126.5 46t-40.5 127h127q-2 -56 40 -56t39 56z" />
    <glyph glyph-name="caron.cap" horiz-adv-x="462" 
d="M425 762l-101 -200h-187l-100 200h148l46 -108l46 108h148z" />
    <glyph glyph-name="circumflex.cap" horiz-adv-x="462" 
d="M37 562l100 200h187l101 -200h-148l-46 108l-46 -108h-148z" />
    <glyph glyph-name="dieresis.cap" horiz-adv-x="507" 
d="M37 660q0 43 26 67.5t70 24.5t70 -24.5t26 -67.5t-26 -68t-70 -25t-70 25t-26 68zM278 660q0 43 26 67.5t70 24.5t70 -24.5t26 -67.5t-26 -68t-70 -25t-70 25t-26 68z" />
    <glyph glyph-name="dotaccent.cap" horiz-adv-x="266" 
d="M37 660q0 43 26 67.5t70 24.5t70 -24.5t26 -67.5t-26 -68t-70 -25t-70 25t-26 68z" />
    <glyph glyph-name="f.alt" horiz-adv-x="369" 
d="M15 500h68v39q0 91 56 143t163 52q40 0 70 -6v-149q-21 7 -52 7q-34 0 -54 -17.5t-20 -50.5v-18h109v-138h-101v-582h-178v582h-61v138z" />
    <glyph glyph-name="foundryicon" horiz-adv-x="1128" 
d="M292 267v170h32l4 -11l4 3q8 11 28 11q24 0 37.5 -17t13.5 -46t-16 -47t-43 -18q-12 0 -20 5v-50h-40zM780 267v170h32l4 -11l3 3q11 11 30 11q24 0 37 -17.5t13 -45.5q0 -29 -16 -47t-43 -18q-11 0 -21 5v-50h-39zM491 440q30 0 46.5 -17t16.5 -46q0 -30 -17 -47.5
t-47 -17.5q-29 0 -45 17t-16 46q0 30 16.5 47.5t45.5 17.5zM679 322l-44 115h44l25 -84h1l20 84h43l-39 -125q-18 -50 -61 -50q-16 0 -30 7l5 28q1 0 4 -0.5t8 -1.5t10 -1q15 0 18 15zM100 461v35h144v-35h-55v-147h-39v147h-50zM528 461v35h139v-35h-50v-147h-39v147h-50z
M1024 368h-68q3 -24 27 -24q15 0 34 7l8 -29q-17 -10 -46 -10q-30 0 -46.5 17t-16.5 46q0 30 16.5 47.5t46.5 17.5q23 0 36 -13t13 -33q0 -14 -4 -26zM221 314v123h40v-123h-40zM881 181q0 30 29 30q12 0 20.5 -8.5t8.5 -21.5t-8.5 -22t-21.5 -9q-12 0 -20 9t-8 22zM535 181
q0 30 29 30q13 0 20.5 -8t7.5 -22q0 -13 -7.5 -22t-21.5 -9q-12 0 -20 9t-8 22zM491 412q-22 0 -22 -35q0 -37 22 -37t22 35q0 37 -22 37zM819 403v-57q8 -4 16 -4q23 0 23 33q0 34 -23 34q-8 0 -16 -6zM332 403v-57q4 -4 15 -4q23 0 23 33q0 34 -22 34q-10 0 -16 -6z
M933 180q0 27 -24 27q-23 0 -23 -26t24 -26q10 0 16.5 6.5t6.5 18.5zM587 180q0 27 -24 27q-22 0 -22 -26t23 -26t23 25zM710 152h-5v58h18q21 0 21 -17q0 -18 -21 -18h-13v-23zM493 152h-5v58h18q21 0 21 -17q0 -18 -22 -18h-12v-23zM159 208h4l19 -50l18 52h6l-21 -58h-6
l-18 49l-19 -49h-5l-21 58h6l18 -52zM342 208h5l18 -50l19 52h5l-21 -58h-6l-18 49l-18 -49h-5l-21 58h6l18 -52zM953 152v58h7l25 -44l23 44h8v-58h-5v53l-24 -45h-4l-24 45v-53h-6zM250 208h5l19 -50l17 52h6l-21 -58h-5l-19 49l-17 -49h-5l-21 58h4l19 -52zM505 207h-12
v-28h13q16 0 16 13q0 15 -17 15zM723 207h-13v-28h13q15 0 15 13q0 15 -15 15zM956 389h34q5 23 -14 23q-17 0 -20 -23zM791 210v-3h-30v-24h29v-4h-29v-23h31v-4h-36v58h35zM857 211q9 0 13 -3v-1q-1 -1 -1 -2q-6 2 -13 2q-23 0 -23 -26t26 -26q8 0 12 2l2 -4
q-12 -3 -15 -3q-14 0 -22.5 9t-8.5 22q0 30 30 30zM666 152v22l-22 36h5l20 -32l20 32h5l-23 -36v-22h-5zM408 207v3h44v-3h-19v-55h-5v55h-20zM597 207v3h44v-3h-19v-55h-5v55h-20zM463 152v58h6v-58h-6zM810 159q4 0 4 -4q0 -5 -4 -5t-4 5q0 4 4 4zM396 159q2 0 2 -4
q0 -5 -3 -5q-4 0 -4 5q0 4 5 4z" />
    <glyph glyph-name="four.001" horiz-adv-x="607" 
d="M500 0h-158v135h-321v141l207 444h187l-208 -435h140v169h153v-169h85v-150h-85v-135z" />
    <glyph glyph-name="foursuperior.001" horiz-adv-x="348" 
d="M296 337h-103v64h-183v84l114 239h115l-103 -229h66v87h94v-87h44v-98h-44v-60z" />
    <glyph glyph-name="g.alt" horiz-adv-x="637" 
d="M78 -196v157q79 -42 167 -42q77 0 120.5 29.5t43.5 82.5q0 20 1 20h-2q-51 -65 -156 -65q-97 0 -163 71t-66 193t67 193t166 71q52 0 95.5 -23.5t60.5 -59.5h2l-2 32l4 37h161v-442q0 -41 -3 -60q-13 -114 -91 -173t-208 -59q-135 0 -197 38zM291 134q42 0 71.5 31
t29.5 85t-29.5 85t-71.5 31q-43 0 -72 -32t-29 -84t28.5 -84t72.5 -32z" />
    <glyph glyph-name="gbreve.alt" horiz-adv-x="637" 
d="M79 -196v157q78 -42 166 -42q77 0 120.5 29.5t43.5 82.5l1 20h-2q-51 -65 -155 -65q-97 0 -163.5 71t-66.5 193t67 193t167 71q51 0 95 -23.5t60 -59.5h2l-1 32l3 37h162v-442q0 -31 -3 -60q-13 -114 -91 -173t-209 -59q-134 0 -196 38zM291 134q42 0 72 31t30 85t-30 85
t-72 31q-43 0 -72 -32t-29 -84t29 -84t72 -32zM311 732h127q2 -80 -39 -124.5t-123 -44.5t-123 44.5t-39 124.5h127q-2 -52 35 -52t35 52z" />
    <glyph glyph-name="gcircumflex.alt" horiz-adv-x="637" 
d="M79 -196v157q78 -42 166 -42q77 0 120.5 29.5t43.5 82.5l1 20h-2q-51 -65 -155 -65q-97 0 -163.5 71t-66.5 193t67 193t167 71q51 0 95 -23.5t60 -59.5h2l-1 32l3 37h162v-442q0 -31 -3 -60q-13 -114 -91 -173t-209 -59q-134 0 -196 38zM291 134q42 0 72 31t30 85t-30 85
t-72 31q-43 0 -72 -32t-29 -84t29 -84t72 -32zM100 561l88 173h192l87 -173h-146l-37 90l-38 -90h-146z" />
    <glyph glyph-name="gcommaaccent.alt" horiz-adv-x="637" 
d="M79 -196v157q78 -42 166 -42q77 0 120.5 29.5t43.5 82.5l1 20h-2q-51 -65 -155 -65q-97 0 -163.5 71t-66.5 193t67 193t167 71q51 0 95 -23.5t60 -59.5h2l-1 32l3 37h162v-442q0 -31 -3 -60q-13 -114 -91 -173t-209 -59q-134 0 -196 38zM291 134q42 0 72 31t30 85t-30 85
t-72 31q-43 0 -72 -32t-29 -84t29 -84t72 -32zM185 556l75 183h136l-34 -183h-177z" />
    <glyph glyph-name="gdotaccent.alt" horiz-adv-x="637" 
d="M79 -196v157q78 -42 166 -42q77 0 120.5 29.5t43.5 82.5l1 20h-2q-51 -65 -155 -65q-97 0 -163.5 71t-66.5 193t67 193t167 71q51 0 95 -23.5t60 -59.5h2l-1 32l3 37h162v-442q0 -31 -3 -60q-13 -114 -91 -173t-209 -59q-134 0 -196 38zM291 134q42 0 72 31t30 85t-30 85
t-72 31q-43 0 -72 -32t-29 -84t29 -84t72 -32zM196 643q0 43 26 67.5t70 24.5t70 -24.5t26 -67.5t-26 -68t-70 -25t-70 25t-26 68z" />
    <glyph glyph-name="germandbls.alt" horiz-adv-x="673" 
d="M234 -220h-175v696q0 108 77 183t215 75q101 0 168.5 -53.5t67.5 -134.5q0 -40 -22.5 -75t-49 -54.5t-49 -38.5t-22.5 -31q0 -9 7 -16t16 -11.5t33 -14.5q84 -36 120 -68t36 -95q0 -74 -55.5 -115t-153.5 -41q-89 0 -158 32v155q31 -20 76.5 -34.5t78.5 -14.5q49 0 49 26
q0 14 -15 23t-51 22q-75 28 -108.5 56.5t-33.5 86.5q0 32 20.5 61t45 47t45 40.5t20.5 43.5q0 26 -18 41t-49 15q-53 0 -84 -31.5t-31 -85.5v-689z" />
    <glyph glyph-name="grave.cap" horiz-adv-x="374" 
d="M254 764l83 -203h-142l-158 203h217z" />
    <glyph glyph-name="hungarumlaut.cap" 
d="M37 561l54 198h190l-100 -198h-144zM245 561l103 198h202l-157 -198h-148z" />
    <glyph glyph-name="i.TRK" horiz-adv-x="297" 
d="M59 500h179v-500h-179v500zM53 643q0 43 26 67.5t70 24.5t69.5 -24.5t25.5 -67.5t-25.5 -68t-69.5 -25t-70 25t-26 68z" />
    <glyph glyph-name="j.alt" horiz-adv-x="297" 
d="M59 500h179v-720h-179v720zM53 643q0 43 26 67.5t70 24.5t69.5 -24.5t25.5 -67.5t-25.5 -68t-69.5 -25t-70 25t-26 68z" />
    <glyph glyph-name="jcircumflex.alt" horiz-adv-x="297" 
d="M59 500h179v-720h-179v720zM-35 561l88 173h192l87 -173h-146l-37 90l-38 -90h-146z" />
    <glyph glyph-name="k.alt" horiz-adv-x="596" 
d="M590 500l-161 -248l161 -252h-201l-146 252l146 248h201zM59 720h179v-720h-179v720z" />
    <glyph glyph-name="k.alt.swsh_minus.001" horiz-adv-x="579" 
d="M590 500l-145 -230l-18 -21q57 -119 114.5 -195t141.5 -122t190 -46q61 0 138 17v-155q-2 -1 -23.5 -7t-34.5 -9t-43 -6.5t-64 -3.5q-103 0 -187 32.5t-156 102t-133 163.5t-127 232l146 248h201zM59 720h179v-720h-179v720z" />
    <glyph glyph-name="k.swsh" horiz-adv-x="595" 
d="M586 500l-177 -221l59 -96q28 -47 69 -47q23 0 48 9v-142q-32 -17 -94 -17q-57 0 -93 23t-66 75l-57 98l-41 -56v-126h-175v720h179v-393l136 173h212z" />
    <glyph glyph-name="k.swsh_minus" 
d="M586 500l-166 -209q48 -103 89.5 -171t96 -124.5t122.5 -83t154 -26.5q61 0 136 17v-155q-2 -1 -23.5 -7.5t-34.5 -9t-43 -6t-65 -3.5q-368 0 -564 479l-54 -75v-126h-175v720h175v-399l141 179h211z" />
    <glyph glyph-name="kcommaaccent.alt" horiz-adv-x="591" 
d="M590 500l-161 -248l161 -252h-201l-146 252l146 248h201zM59 720h179v-720h-179v720zM404 -51l-75 -183h-136l33 183h178z" />
    <glyph glyph-name="kcommaaccent.swsh" horiz-adv-x="595" 
d="M586 500l-177 -221l59 -96q28 -47 69 -47q23 0 48 9v-142q-32 -17 -94 -17q-57 0 -93 23t-66 75l-57 98l-41 -56v-126h-175v720h179v-393l136 173h212zM405 -51l-75 -183h-136l34 183h177z" />
    <glyph glyph-name="kcommaaccent.swsh_minus" horiz-adv-x="548" 
d="M586 500l-166 -209q48 -103 89.5 -171t96 -124.5t122.5 -83t154 -26.5q61 0 136 17v-155q-2 -1 -23.5 -7.5t-34.5 -9t-43 -6t-65 -3.5q-368 0 -564 479l-54 -75v-126h-175v720h175v-399l141 179h211zM335 -51l-75 -183h-136l33 183h178z" />
    <glyph glyph-name="l.alt" horiz-adv-x="290" 
d="M56 720h178v-720h-178v720z" />
    <glyph glyph-name="lacute.alt" horiz-adv-x="290" 
d="M56 720h178v-720h-178v720zM64 765l80 173h224l-150 -173h-154z" />
    <glyph glyph-name="lcaron.alt" horiz-adv-x="463" 
d="M56 720h178v-720h-178v720zM295 403v315h162v-315h-162z" />
    <glyph glyph-name="lcommaaccent.alt" horiz-adv-x="290" 
d="M56 720h178v-720h-178v720zM234 -51l-75 -183h-136l33 183h178z" />
    <glyph glyph-name="ldot.alt" horiz-adv-x="482" 
d="M56 720h178v-720h-178v720zM290 354q0 43 26 67.5t70 24.5t69.5 -24.5t25.5 -67.5t-25.5 -67.5t-69.5 -24.5t-70 24.5t-26 67.5z" />
    <glyph glyph-name="lslash.alt" horiz-adv-x="309" 
d="M66 720h178v-244l69 47v-85l-69 -47v-391h-178v272l-70 -47v85l70 47v363z" />
    <glyph glyph-name="macron.cap" horiz-adv-x="437" 
d="M37 594v131h363v-131h-363z" />
    <glyph glyph-name="onehalf.001" horiz-adv-x="821" 
d="M50 720h173v-294h70v-91h-248v91h70v203h-65v91zM500 274v100q36 24 105 24q73 0 114.5 -37t41.5 -99q0 -88 -116 -165h132v-97h-285v87q130 86 147 134q8 20 5 37q-3 19 -19.5 30t-40.5 11q-43 0 -84 -25zM86 0l513 720h99l-513 -720h-99z" />
    <glyph glyph-name="onequarter.001" horiz-adv-x="776" 
d="M50 720h173v-294h70v-91h-248v91h70v203h-65v91zM696 0h-101v66h-181v80l115 241h112l-108 -230h71v89h92v-89h44v-91h-44v-66zM86 0l513 720h99l-513 -720h-99z" />
    <glyph glyph-name="ring.cap" horiz-adv-x="331" 
d="M37 660q0 51 36.5 80.5t92.5 29.5q55 0 91.5 -29.5t36.5 -80.5t-36.5 -80.5t-91.5 -29.5q-56 0 -92.5 29.5t-36.5 80.5zM133 660q0 -15 9 -24t24 -9q14 0 23 9.5t9 23.5t-9 22.5t-23 8.5q-15 0 -24 -8.5t-9 -22.5z" />
    <glyph glyph-name="ringcomb" horiz-adv-x="330" 
d="M41 641q0 50 35 76.5t89 26.5t89 -26.5t35 -76.5q0 -49 -35 -75.5t-89 -26.5t-89 26.5t-35 75.5zM137 641q0 -26 28 -26q29 0 29 26t-29 26q-28 0 -28 -26z" />
    <glyph glyph-name="ringcomb.cap" horiz-adv-x="323" 
d="M37 641q0 50 35 76.5t89 26.5q55 0 89.5 -26.5t34.5 -76.5q0 -49 -34.5 -75.5t-89.5 -26.5q-54 0 -89 26.5t-35 75.5zM133 641q0 -26 28 -26q29 0 29 26t-29 26q-28 0 -28 -26z" />
    <glyph glyph-name="seven.001" horiz-adv-x="535" 
d="M240 0h-187l262 566h-298v154h486v-144z" />
    <glyph glyph-name="t.alt" horiz-adv-x="375" 
d="M5 500h92v170h178v-170h96v-138h-96v-362h-178v362h-92v138z" />
    <glyph glyph-name="tbar.alt" horiz-adv-x="375" 
d="M5 500h92v170h178v-170h96v-138h-96v-62h87v-110h-87v-190h-178v190h-84v110h84v62h-92v138z" />
    <glyph glyph-name="tcaron.alt" horiz-adv-x="478" 
d="M321 544v304h162v-304h-162zM5 500h92v170h178v-170h96v-138h-96v-362h-178v362h-92v138z" />
    <glyph glyph-name="tcommaaccent.alt" horiz-adv-x="375" 
d="M5 500h92v170h178v-170h96v-138h-96v-362h-178v362h-92v138zM276 -51l-75 -183h-136l34 183h177z" />
    <glyph glyph-name="threequarters.001" horiz-adv-x="809" 
d="M189 607q0 33 -56 33q-46 0 -82 -18v92q44 20 101 20q68 0 108 -31.5t40 -82.5q0 -27 -17.5 -50.5t-42.5 -36.5q67 -26 67 -92q0 -55 -43.5 -86.5t-111.5 -31.5q-61 0 -107 23v90q46 -18 98 -18t52 36q0 39 -74 39h-20v81h24q64 0 64 33zM701 0h-103v66h-181v80l115 241
h113l-107 -230h69v88h94v-88h44v-94h-44v-63zM85 0l513 720h100l-513 -720h-100z" />
    <glyph glyph-name="tilde.cap" horiz-adv-x="436" 
d="M137 742q29 0 83 -15t82 -15q58 0 96 36v-132q-10 -15 -38 -26.5t-61 -11.5q-29 0 -83 15.5t-82 15.5q-55 0 -97 -36v131q11 15 39 26.5t61 11.5z" />
    <glyph glyph-name="two.001" horiz-adv-x="534" 
d="M28 529v169q23 14 69.5 25t100.5 11q130 0 207 -70.5t77 -185.5q0 -161 -218 -316h244v-162h-490v145q154 119 196 160q55 56 71 106q12 36 9 72q-4 40 -36 62t-85 22q-83 0 -145 -38z" />
    <glyph glyph-name="twosuperior.001" horiz-adv-x="330" 
d="M31 600v109q39 26 107 26q72 0 113 -37t41 -99q0 -47 -31.5 -88t-72.5 -69h120v-105h-285v95q147 92 147 146q0 23 -15.5 36t-39.5 13q-42 0 -84 -27z" />
    <glyph glyph-name="u.alt" horiz-adv-x="606" 
d="M554 500v-276q0 -115 -65 -176.5t-187 -61.5q-121 0 -185.5 61.5t-64.5 176.5v276h178v-213q0 -77 13.5 -110.5t58.5 -33.5q46 0 59.5 33.5t13.5 110.5v213h179z" />
    <glyph glyph-name="uacute.alt" horiz-adv-x="606" 
d="M554 500v-276q0 -115 -65 -176.5t-187 -61.5q-121 0 -185.5 61.5t-64.5 176.5v276h178v-213q0 -77 13.5 -110.5t58.5 -33.5q46 0 59.5 33.5t13.5 110.5v213h179zM211 561l79 173h224l-149 -173h-154z" />
    <glyph glyph-name="ubreve.alt" horiz-adv-x="606" 
d="M554 500v-276q0 -115 -65 -176.5t-187 -61.5q-121 0 -185.5 61.5t-64.5 176.5v276h178v-213q0 -77 13.5 -110.5t58.5 -33.5q46 0 59.5 33.5t13.5 110.5v213h179zM335 732h128q2 -80 -39.5 -124.5t-122.5 -44.5t-122.5 44.5t-40.5 124.5h128q-3 -52 35 -52q17 0 26.5 14
t7.5 38z" />
    <glyph glyph-name="ucircumflex.alt" horiz-adv-x="606" 
d="M554 500v-276q0 -115 -65 -176.5t-187 -61.5q-121 0 -185.5 61.5t-64.5 176.5v276h178v-213q0 -77 13.5 -110.5t58.5 -33.5q46 0 59.5 33.5t13.5 110.5v213h179zM121 561l88 173h192l87 -173h-146l-37 90l-38 -90h-146z" />
    <glyph glyph-name="udieresis.alt" horiz-adv-x="606" 
d="M554 500v-276q0 -115 -65 -176.5t-187 -61.5q-121 0 -185.5 61.5t-64.5 176.5v276h178v-213q0 -77 13.5 -110.5t58.5 -33.5q46 0 59.5 33.5t13.5 110.5v213h179zM89 643q0 43 26 67.5t70 24.5t70 -24.5t26 -67.5t-26 -68t-70 -25t-70 25t-26 68zM329 643q0 43 25.5 67.5
t69.5 24.5t70 -24.5t26 -67.5t-26 -68t-70 -25t-69.5 25t-25.5 68z" />
    <glyph glyph-name="ugrave.alt" horiz-adv-x="606" 
d="M554 500v-276q0 -115 -65 -176.5t-187 -61.5q-121 0 -185.5 61.5t-64.5 176.5v276h178v-213q0 -77 13.5 -110.5t58.5 -33.5q46 0 59.5 33.5t13.5 110.5v213h179zM312 734l79 -173h-154l-150 173h225z" />
    <glyph glyph-name="uhungarumlaut.alt" horiz-adv-x="611" 
d="M554 500v-276q0 -115 -65 -176.5t-187 -61.5q-121 0 -185.5 61.5t-64.5 176.5v276h178v-213q0 -77 13.5 -110.5t58.5 -33.5q46 0 59.5 33.5t13.5 110.5v213h179zM120 561l54 173h190l-100 -173h-144zM328 561l103 173h202l-158 -173h-147z" />
    <glyph glyph-name="umacron.alt" horiz-adv-x="606" 
d="M554 500v-276q0 -115 -65 -176.5t-187 -61.5q-121 0 -185.5 61.5t-64.5 176.5v276h178v-213q0 -77 13.5 -110.5t58.5 -33.5q46 0 59.5 33.5t13.5 110.5v213h179zM133 579v128h342v-128h-342z" />
    <glyph glyph-name="uni021B.alt" horiz-adv-x="375" 
d="M5 500h92v170h178v-170h96v-138h-96v-362h-62l-13 -42q38 -3 68.5 -28.5t30.5 -68.5q0 -47 -37.5 -71t-102.5 -24q-56 0 -74 10v97q24 -7 42 -7q39 0 39 24q0 15 -19.5 21t-48.5 2l35 87h-36v362h-92v138z" />
    <glyph glyph-name="uogonek.alt" horiz-adv-x="606" 
d="M554 500v-276q0 -178 -148 -224q-70 -49 -70 -97q0 -33 36 -33q13 0 39 7v-102q-23 -9 -65 -9q-63 0 -101.5 25.5t-38.5 77.5q0 65 94 117q-120 1 -184 62t-64 176v276h178v-213q0 -77 13.5 -110.5t58.5 -33.5q46 0 59.5 33.5t13.5 110.5v213h179z" />
    <glyph glyph-name="uring.alt" horiz-adv-x="606" 
d="M554 500v-276q0 -115 -65 -176.5t-187 -61.5q-121 0 -185.5 61.5t-64.5 176.5v276h178v-213q0 -77 13.5 -110.5t58.5 -33.5q46 0 59.5 33.5t13.5 110.5v213h179zM173 643q0 51 35.5 78.5t92.5 27.5t92.5 -27.5t35.5 -78.5t-36 -79t-92 -28t-92 28t-36 79zM268 643
q0 -14 9 -22.5t24 -8.5q14 0 23.5 8.5t9.5 22.5q0 13 -9.5 21.5t-23.5 8.5q-15 0 -24 -8t-9 -22z" />
    <glyph glyph-name="utilde.alt" horiz-adv-x="606" 
d="M554 500v-276q0 -115 -65 -176.5t-187 -61.5q-121 0 -185.5 61.5t-64.5 176.5v276h178v-213q0 -77 13.5 -110.5t58.5 -33.5q46 0 59.5 33.5t13.5 110.5v213h179zM225 728q29 0 81.5 -15.5t80.5 -15.5q57 0 97 36v-128q-11 -15 -39 -26.5t-61 -11.5q-28 0 -81 15.5
t-81 15.5q-54 0 -96 -36v128q11 15 39 26.5t60 11.5z" />
    <glyph glyph-name="v.001" horiz-adv-x="520" 
d="M356 500h184l-191 -503h-178l-191 503h184l53 -170q26 -69 42 -139q3 7 19 61.5t25 77.5z" />
    <glyph glyph-name="w.001" horiz-adv-x="797" 
d="M633 500h182l-172 -503h-176q-50 184 -69 261q-12 -51 -39 -153t-29 -108h-176l-172 503h182l48 -155q25 -80 41 -162q2 8 34 146t41 171h141q6 -24 25 -101t30.5 -128.5t17.5 -87.5q3 7 19 73.5t23 88.5z" />
    <glyph glyph-name="wacute.001" horiz-adv-x="797" 
d="M633 500h182l-172 -503h-176q-50 184 -69 261q-12 -51 -39 -153t-29 -108h-176l-172 503h182l48 -155q25 -80 41 -162q2 8 34 146t41 171h141q6 -24 25 -101t30.5 -128.5t17.5 -87.5q3 7 19 73.5t23 88.5zM319 561l79 173h225l-150 -173h-154z" />
    <glyph glyph-name="wcircumflex.001" horiz-adv-x="797" 
d="M214 561l88 173h192l87 -173h-146l-37 90l-38 -90h-146zM633 500h182l-172 -503h-176q-50 184 -69 261q-12 -51 -39 -153t-29 -108h-176l-172 503h182l48 -155q25 -80 41 -162q2 8 34 146t41 171h141q6 -24 25 -101t30.5 -128.5t17.5 -87.5q3 7 19 73.5t23 88.5z" />
    <glyph glyph-name="wdieresis.001" horiz-adv-x="797" 
d="M183 643q0 43 25.5 67.5t69.5 24.5t70 -24.5t26 -67.5t-26 -68t-70 -25t-69.5 25t-25.5 68zM422 643q0 43 26 67.5t70 24.5t69.5 -24.5t25.5 -67.5t-25.5 -68t-69.5 -25t-70 25t-26 68zM633 500h182l-172 -503h-176q-50 184 -69 261q-12 -51 -39 -153t-29 -108h-176
l-172 503h182l48 -155q25 -80 41 -162q2 8 34 146t41 171h141q6 -24 25 -101t30.5 -128.5t17.5 -87.5q3 7 19 73.5t23 88.5z" />
    <glyph glyph-name="wgrave.001" horiz-adv-x="797" 
d="M393 734l79 -173h-154l-149 173h224zM633 500h182l-172 -503h-176q-50 184 -69 261q-12 -51 -39 -153t-29 -108h-176l-172 503h182l48 -155q25 -80 41 -162q2 8 34 146t41 171h141q6 -24 25 -101t30.5 -128.5t17.5 -87.5q3 7 19 73.5t23 88.5z" />
    <glyph glyph-name="x.swsh_minus" horiz-adv-x="540" 
d="M546 500l-156 -228l-12 -18q41 -71 75 -121.5t76.5 -100t85 -79.5t96 -48.5t113.5 -18.5q72 0 131 18v-158q-54 -24 -138 -24q-174 0 -303 99t-249 298l-75 -119h-196l164 240l-161 260h199l70 -141l77 141h203z" />
    <glyph glyph-name="y.alt" horiz-adv-x="563" 
d="M300 -221h-179l78 207l-210 514h194l51 -168q32 -99 47 -171q4 10 24.5 85.5t23.5 85.5l52 168h193z" />
    <glyph glyph-name="y.alt.02" horiz-adv-x="523" 
d="M364 500h186l-199 -457v-263h-179v263l-198 457h186l56 -146q27 -70 45 -142q3 6 21 65t25 77z" />
    <glyph glyph-name="yacute.alt" horiz-adv-x="563" 
d="M300 -221h-179l78 207l-210 514h194l51 -168q32 -99 47 -171q4 10 24.5 85.5t23.5 85.5l52 168h193zM201 561l79 173h224l-149 -173h-154z" />
    <glyph glyph-name="ycircumflex.alt" horiz-adv-x="563" 
d="M300 -221h-179l78 207l-210 514h194l51 -168q32 -99 47 -171q4 10 24.5 85.5t23.5 85.5l52 168h193zM98 561l88 173h192l87 -173h-146l-37 90l-38 -90h-146z" />
    <glyph glyph-name="ydieresis.alt" horiz-adv-x="563" 
d="M300 -221h-179l78 207l-210 514h194l51 -168q32 -99 47 -171q4 10 24.5 85.5t23.5 85.5l52 168h193zM66 643q0 43 26 67.5t70 24.5t69.5 -24.5t25.5 -67.5t-25.5 -68t-69.5 -25t-70 25t-26 68zM305 643q0 43 26 67.5t70 24.5t70 -24.5t26 -67.5t-26 -68t-70 -25t-70 25
t-26 68z" />
    <glyph glyph-name="ygrave.alt" horiz-adv-x="563" 
d="M300 -221h-179l78 207l-210 514h194l51 -168q32 -99 47 -171q4 10 24.5 85.5t23.5 85.5l52 168h193zM279 734l80 -173h-155l-149 173h224z" />
    <glyph glyph-name="z.001" horiz-adv-x="456" 
d="M439 142v-142h-409v136l205 222h-199v142h383v-136l-205 -222h225z" />
    <glyph glyph-name="z.swsh_minus" horiz-adv-x="468" 
d="M165 -12h-165l224 374h-189v138h437l-190 -321q33 -11 57 -37q99 -105 147 -145q136 -111 275 -111q120 0 189 34v-159q-59 -39 -184 -39q-79 0 -148.5 19.5t-131 59.5t-111 85t-109.5 111q-42 46 -66 47z" />
    <glyph glyph-name="z.swsh_minus.001" horiz-adv-x="467" 
d="M165 -12h-168l250 374h-212v138h388v-129l-139 -193q32 -10 57 -36q5 -6 16 -17q40 -43 63.5 -66.5t68.5 -61.5t81.5 -58.5t87.5 -36.5t103 -16q120 0 189 34v-159q-59 -39 -184 -39q-79 0 -148.5 19.5t-131 60t-110.5 85t-109 110.5q-42 46 -65 47z" />
    <glyph glyph-name="zacute.001" horiz-adv-x="464" 
d="M439 142v-142h-409v136l205 222h-199v142h383v-136l-205 -222h225zM140 561l80 173h224l-149 -173h-155z" />
    <glyph glyph-name="zacute.swsh_minus" horiz-adv-x="476" 
d="M165 -12h-165l224 374h-189v138h437l-190 -321q33 -11 57 -37q99 -105 147 -145q136 -111 275 -111q120 0 189 34v-159q-59 -39 -184 -39q-79 0 -148.5 19.5t-131 59.5t-111 85t-109.5 111q-42 46 -66 47zM169 561l79 173h224l-149 -173h-154z" />
    <glyph glyph-name="zacute.swsh_minus.001" horiz-adv-x="476" 
d="M165 -12h-168l250 374h-212v138h388v-129l-139 -193q32 -10 57 -36q5 -6 16 -17q40 -43 63.5 -66.5t68.5 -61.5t81.5 -58.5t87.5 -36.5t103 -16q120 0 189 34v-159q-59 -39 -184 -39q-79 0 -148.5 19.5t-131 60t-110.5 85t-109 110.5q-42 46 -65 47zM153 561l80 173h224
l-149 -173h-155z" />
    <glyph glyph-name="zcaron.001" horiz-adv-x="456" 
d="M413 734l-87 -173h-192l-87 173h146l37 -90l38 90h145zM439 142v-142h-409v136l205 222h-199v142h383v-136l-205 -222h225z" />
    <glyph glyph-name="zcaron.swsh_minus" horiz-adv-x="476" 
d="M165 -12h-165l224 374h-189v138h437l-190 -321q33 -11 57 -37q99 -105 147 -145q136 -111 275 -111q120 0 189 34v-159q-59 -39 -184 -39q-79 0 -148.5 19.5t-131 59.5t-111 85t-109.5 111q-42 46 -66 47zM435 734l-87 -173h-192l-87 173h146l37 -90l38 90h145z" />
    <glyph glyph-name="zcaron.swsh_minus.001" horiz-adv-x="476" 
d="M165 -12h-168l250 374h-212v138h388v-129l-139 -193q32 -10 57 -36q5 -6 16 -17q40 -43 63.5 -66.5t68.5 -61.5t81.5 -58.5t87.5 -36.5t103 -16q120 0 189 34v-159q-59 -39 -184 -39q-79 0 -148.5 19.5t-131 60t-110.5 85t-109 110.5q-42 46 -65 47zM419 734l-87 -173
h-192l-88 173h146l38 -90l37 90h146z" />
    <glyph glyph-name="zdotaccent.001" horiz-adv-x="456" 
d="M133 643q0 43 25.5 67.5t69.5 24.5t70 -24.5t26 -67.5t-26 -68t-70 -25t-69.5 25t-25.5 68zM439 142v-142h-409v136l205 222h-199v142h383v-136l-205 -222h225z" />
    <glyph glyph-name="zdotaccent.swsh_minus" horiz-adv-x="476" 
d="M165 -12h-165l224 374h-189v138h437l-190 -321q33 -11 57 -37q99 -105 147 -145q136 -111 275 -111q120 0 189 34v-159q-59 -39 -184 -39q-79 0 -148.5 19.5t-131 59.5t-111 85t-109.5 111q-42 46 -66 47zM156 643q0 43 26 67.5t70 24.5t70 -25t26 -67q0 -43 -26 -68
t-70 -25t-70 25t-26 68z" />
    <glyph glyph-name="zdotaccent.swsh_minus.001" horiz-adv-x="476" 
d="M165 -12h-168l250 374h-212v138h388v-129l-139 -193q32 -10 57 -36q5 -6 16 -17q40 -43 63.5 -66.5t68.5 -61.5t81.5 -58.5t87.5 -36.5t103 -16q120 0 189 34v-159q-59 -39 -184 -39q-79 0 -148.5 19.5t-131 60t-110.5 85t-109 110.5q-42 46 -65 47zM134 643
q0 43 26 67.5t70 24.5t70 -25t26 -67q0 -43 -26 -68t-70 -25t-70 25t-26 68z" />
    <glyph glyph-name="zero.slash" horiz-adv-x="667" 
d="M34 360q0 159 83 266.5t219 107.5q85 0 153 -46l64 107h87l-95 -157q93 -107 93 -278q0 -159 -83 -266.5t-219 -107.5q-87 0 -156 47l-65 -108h-86l96 159q-91 107 -91 276zM453 360q0 55 -13 104l-170 -283q26 -28 66 -28q56 0 86.5 56.5t30.5 150.5zM219 360
q0 -55 11 -101l170 282q-28 26 -64 26q-56 0 -86.5 -56.5t-30.5 -150.5z" />
    </font>
</defs>
</svg>
